<?xml version="1.0" encoding="utf-8"?>
<!-- Generator: Adobe Illustrator 26.0.2, SVG Export Plug-In . SVG Version: 6.00 Build 0)  -->
<svg version="1.1" id="_x31_" xmlns="http://www.w3.org/2000/svg" xmlns:xlink="http://www.w3.org/1999/xlink" x="0px" y="0px"
	 viewBox="0 0 570 416" style="enable-background:new 0 0 570 416;" xml:space="preserve">
<style type="text/css">
	.st0{fill-rule:evenodd;clip-rule:evenodd;fill:#D6F1FA;}
	.st1{fill-rule:evenodd;clip-rule:evenodd;fill:#B8E6F5;}
	.st2{fill-rule:evenodd;clip-rule:evenodd;fill:#1D9628;}
	.st3{fill-rule:evenodd;clip-rule:evenodd;fill:#2EAE3E;}
	.st4{fill-rule:evenodd;clip-rule:evenodd;fill:#FEFEFE;}
	.st5{fill:#EF8A52;}
	.st6{fill:#0D2B40;}
	.st7{fill:#195392;}
	.st8{fill:#F09D69;}
	.st9{fill:#48A3D8;}
	.st10{fill:#2C87CE;}
	.st11{fill:#F88F55;}
	.st12{fill:#FFA770;}
	.st13{fill:#FEFEFE;}
	.st14{fill:#F8F9FA;}
	.st15{fill:#E58069;}
	.st16{fill:#1D9628;}
	.st17{fill:#2EAE3E;}
	.st18{fill:#8FD6FF;}
	.st19{fill-rule:evenodd;clip-rule:evenodd;fill:#48A3D8;}
	.st20{fill-rule:evenodd;clip-rule:evenodd;fill:#8FD6FF;}
	.st21{fill-rule:evenodd;clip-rule:evenodd;fill:#2C87CE;}
	.st22{fill:#D6F1FA;}
	.st23{fill:#E9E9F4;}
	.st24{fill:#421606;}
	.st25{fill:#FFFFFF;}
	.st26{fill:#113F70;}
	.st27{fill:#F5CD56;}
	.st28{fill:#08325B;}
	.st29{fill:#1F6EAB;}
	.st30{fill:#E5605A;}
</style>
<g>
	<g>
		<path class="st0" d="M266.5,311.8c-17.5-7.7-37-4.7-51.2,6.2c-0.3,0.5,0,1.2,0.5,1.4l16.5,7.3l10.5-7.3c0.3-0.2,0.7-0.2,1,0.1
			c0.3,0.3,0.3,0.7,0.1,1l-5.6,8.8l14.3,6.3l6.5-9.2c0.2-0.3,0.6-0.5,1-0.3c0.4,0.2,0.5,0.6,0.5,0.9l-2.4,11l14.3,6.3l2.7-10.1
			c0.1-0.4,0.4-0.7,0.8-0.6c0.4,0,0.7,0.3,0.7,0.7l1.7,12.6l16.5,7.3c0.5,0.3,1.2,0,1.4-0.5C295,336,284,319.5,266.5,311.8
			L266.5,311.8z"/>
		<path class="st0" d="M338.6,323.5c-15.2,3.1-26.6,14.2-30.9,28c0.1,0.5,0.6,0.8,1,0.7l14.3-2.9l3.5-9.7c0.1-0.3,0.4-0.5,0.7-0.4
			c0.3,0,0.5,0.3,0.5,0.6l0.4,8.4l12.4-2.5l0-9.1c0-0.3,0.2-0.6,0.5-0.7c0.3-0.1,0.6,0.1,0.7,0.4l3.5,8.4l12.4-2.5l-2.9-7.9
			c-0.1-0.3,0-0.6,0.3-0.8c0.3-0.2,0.6-0.1,0.8,0.1l7,7.5l14.3-2.9c0.5-0.1,0.8-0.6,0.7-1C368.6,326.1,353.7,320.4,338.6,323.5
			L338.6,323.5z"/>
		<g>
			<path class="st1" d="M332.3,308.2c6.2-2.7,12.8-4.3,19.5-4.8c0.1,0,0.2,0,0.2,0c0.4,0.1,0.7,0.4,0.6,0.8
				c-1.2,6.5-3.5,13-6.9,18.9c-3.2,5.7-7.4,11-12.6,15.7c-5.2,4.6-10.9,8.2-17,10.8c-6.3,2.7-12.8,4.2-19.5,4.7c-0.1,0-0.1,0-0.2,0
				c-0.4-0.1-0.6-0.5-0.6-0.8c1.2-6.5,3.5-12.9,6.8-18.9l0-0.1c3.2-5.7,7.5-11,12.6-15.6C320.5,314.4,326.3,310.8,332.3,308.2
				L332.3,308.2z"/>
			<path class="st0" d="M334.3,307.4c0.5-0.2,1-0.3,1.4-0.5l-0.6,11.4l16.5-14.8l0.2,0c0.1,0,0.2,0,0.2,0c0.4,0.1,0.7,0.4,0.6,0.8
				l0,0.2l-6.9,6.2l5.3,0.3c-0.1,0.5-0.3,0.9-0.5,1.4l-6.4-0.4l-8.1,7.2l11.4,0.6c-0.2,0.5-0.5,0.9-0.7,1.4l-12.2-0.7L319.6,334
				l17.4,1c-0.4,0.5-0.9,0.9-1.3,1.3l-17.7-1l-8.9,8l16.9,0.9c-0.7,0.4-1.4,0.9-2,1.3l-16.4-0.9l-10.9,9.8h-0.2c-0.1,0-0.1,0-0.2,0
				c-0.4-0.1-0.6-0.5-0.6-0.8l0.1-0.2l10.9-9.8l0.9-16.4c0.5-0.6,1-1.2,1.5-1.9l-0.9,17l17.9-16l0.9-15.5c0.5-0.3,1-0.5,1.4-0.8
				l-0.8,14.9l5.9-5.3L334.3,307.4z"/>
		</g>
		<path class="st0" d="M328.7,133.6c1.8-0.3,3.5-0.5,5.4-0.7c-0.1-0.4-0.1-0.8-0.1-1.2c-1.8,0.2-3.5,0.3-5.2,0.5
			C328.7,132.7,328.7,133.2,328.7,133.6L328.7,133.6z M184.5,241.9c1.8-0.2,3.5-0.3,5.6-0.5C187,238.8,186,238.9,184.5,241.9
			L184.5,241.9z M435,308c0.9,0.6,1.6,1.3,2.6,1.7c0.2,0.1,0.9-1.3,1.4-2c-1-0.5-2.1-1-3.1-1.4C435.5,306.9,435.3,307.5,435,308
			L435,308z M392.4,137.2c1.8-0.6,3.5-1.1,5.7-1.8C394.7,133,393.6,133.4,392.4,137.2L392.4,137.2z M396.1,265.3
			c2.4,0.4,4.8,0.8,7.9,1.3c-2.3-3.7-5.3-1.7-7.7-2.1C396.2,264.7,396.1,265,396.1,265.3L396.1,265.3z M151.9,142
			c0.7,2.4,2.7,3.5,5.9,3.1C156.6,142,154.2,142.4,151.9,142L151.9,142z M137.9,147c-2.2,0.9-4.5,1.8-6.7,2.7c0.1,0.5,0.2,1,0.3,1.5
			c2.3-0.8,4.5-1.6,6.8-2.3C138.2,148.3,138.1,147.6,137.9,147L137.9,147z M182.7,239.6c-2.7-3.1-5.7-4.2-9.5-2.9
			C176.5,237.6,179.6,238.6,182.7,239.6L182.7,239.6z M417.2,265.7c-3.7,0.1-7.5,0.2-11.2,0.4c0,0.3-0.1,0.6-0.1,0.9
			c3.8-0.1,7.6-0.3,11.4-0.4C417.2,266.3,417.2,266,417.2,265.7L417.2,265.7z M435.5,141.5c2.3,2.8,5.8,2.7,8.7-0.3
			C441.1,141.3,438.5,141.4,435.5,141.5L435.5,141.5z M261.9,193.4c0.9-0.3,2-0.3,2.6-0.9c0.8-0.8,1.2-2.1,1.8-3.2
			c-1.1-0.2-2.6-1.1-3.2-0.6c-1,0.9-1.3,2.7-1.9,4.1C261.4,193.1,261.7,193.3,261.9,193.4L261.9,193.4z M386.8,243.9
			c-0.3,1.1-1.2,2.7-0.9,3.2c1.4,2.6,3.1,5,4.7,7.5c0.4-0.3,0.7-0.7,1.1-1c-0.7-1.4-1.5-2.8-2.2-4.3
			C388.5,247.5,387.6,245.7,386.8,243.9L386.8,243.9L386.8,243.9z M157.1,152c0.7,0.2,1.6,0.1,2.3-0.3c0.3-0.2,0.6-1.6,0.3-2
			c-0.4-0.7-1.2-1.5-1.8-1.4c-1.6,0.3-3.2,1-5.4,1.8C154.5,150.9,155.7,151.6,157.1,152L157.1,152z M160.7,158.7
			c0.4-0.9-0.2-2.7-0.8-3.5c-1.1-1.3-3.4,0.1-4.6,2.8C157.9,160.3,159.9,160.7,160.7,158.7L160.7,158.7z M414.2,254.3
			c-1.3,0.5-3,0.5-3.7,1.5c-1.2,1.8-2.2,4.1-0.7,6.4c0.4-0.6,0.8-1.1,1.1-1.6c0.9,0.6,1.5,1,2.4,1.6c0-2.2,0-3.8,0-5.6
			c-0.5-0.1-1.4-0.2-2.2-0.3c0.5-0.7,1-0.9,1.5-1c0.5-0.1,1.1-0.3,1.6-0.3C414.3,254.9,414.2,254.6,414.2,254.3L414.2,254.3z
			 M391.1,134.5c-1.2-1.7-2-4.1-3.5-5c-2-1.2-4.1,0-5.2,3.5c2.8,0.9,5.5,1.8,8.2,2.7C390.7,135.2,390.9,134.9,391.1,134.5
			L391.1,134.5z M150.3,150.9c-0.7-0.4-1.4-0.8-2.1-1.2c-0.7-0.3-1.4-0.6-2.1-0.8c-0.2,0.9-0.3,1.7-0.6,3.1c-1.4-0.6-2.9-1-4.3-1.6
			c-1.7-0.7-3-0.3-4,2C144.3,154.1,149,153.6,150.3,150.9L150.3,150.9z M246.2,169.3c0.5,1.1,0.7,2.7,1.4,3.1
			c3.7,2.3,6.7-0.8,10.3-2.4c-3.5-4.1-7.6,1-10.8-1.6C246.8,168.8,246.5,169.1,246.2,169.3L246.2,169.3z M415.6,239.3
			c-1.7-0.4-2.5-0.8-1.6-3.1c0.2-0.5-0.5-1.4-0.8-2.2c-0.5,0.6-1.4,1.2-1.4,1.8c-0.1,1.6,0.1,3.1,0.2,3.9c1.4,0.6,2.2,0.9,3,1.3
			c-0.5,0.4-0.9,0.8-2,1.7c1.4,0.8,2.6,1.5,3.9,2.2c-1.3,0.7-2.6,1.4-3.7,2c1.3,0.5,2.4,0.9,3.7,1.3
			C419,245.7,418.3,240,415.6,239.3L415.6,239.3z M474.4,301c-1.4-0.7-2.6-1.2-3.9-1.8c-0.2,2.1-0.4,3.9-0.5,5.6
			c-4.4,1.9-8.2,5.5-9.3,9.4C465.5,310.3,470.7,307.2,474.4,301L474.4,301z M385.7,256.2c1.2,1.8,2.2,3.7,3.6,5.2
			c2.6,2.9,3.5,2.4,4.5-2.2c-4.1-2-6.2-7.6-11.9-8.7C383.5,252.9,384.6,254.6,385.7,256.2L385.7,256.2z M267.3,195.6
			c2.1-0.4,3.8-0.6,5.4-1.2c0.8-0.3,1.4-1.3,2-2.2c0.1-0.1-0.8-1-1.2-1.6c-1.2-1.8-3.9-2.6-2.7-6.3c0.2-0.5-1.2-1.7-1.8-2.5
			c-0.6,0.7-1.5,1.3-1.9,2.2c-1.1,3,1.5,3.4,2.4,4.8C268.6,191.2,268,193.2,267.3,195.6L267.3,195.6z M318.6,285
			c-0.3,1.2,0.6,2.7,0.9,4.1c1.1-0.7,2.5-1.1,3.4-2.2c1-1.2,1.8-2.8,2.3-4.4c0.9-2.8,2.6-5.7,1.2-9C320.1,279.6,320,279.6,318.6,285
			L318.6,285z M340.3,156.5c0.2-2.1-0.2-4.4,0.5-5c2.8-2.6,5.8-4.9,8.8-7.1c1.5-1,3.3-1.6,4.9-2.4c-0.1-0.3-0.2-0.5-0.3-0.8
			c-7,2.6-15.3,2-19,13.4C336.9,155.3,338.7,156,340.3,156.5L340.3,156.5z M438.7,198c-0.7,2.4-1.3,4.8-2.1,7.1
			c-0.3,1-0.9,2.2-1.6,2.7c-2.1,1.5-4.4,2.6-6.6,3.9c-1,0.6-2.2,1.1-2.9,2.1c-0.5,0.6-0.3,2-0.5,2.9c0.3,0,0.7,0.1,1,0.1
			c0.3-1.2,0.7-2.3,1.1-3.8c3,3.3,5.8-0.3,8.4-1.2c3.9-1.4,2.8-6.1,3.3-9.3c1.8-1,3.5-1.9,5.9-3.2c-2.3-0.5-3.7-0.8-5-1
			C439.3,198.1,439,198.1,438.7,198L438.7,198z M302.9,140.4c-1.8-1,0.2-1.1-2-2.3c3.2-1.1,2.6,0.2,5.4-3.3c-0.8-0.3-1-0.6-1.2-0.5
			c-3.1,0.6-6.1-0.7-9.2,1.4c-1.6,1.1-4,0.1-6.1,0.2c-0.6,0.1-1.2,0.7-1.9,1c0.3,0.8,0.5,1.8,1,2.5c1,1.3,2,2.6,3.2,3.5
			c1.3,0.9,2.7,1.7,3.8-1c0.5-1.2,1.5-2.2,2-2.8c1.9,1.2,3.2,2.1,4.5,3C302.4,141.4,302.6,140.9,302.9,140.4L302.9,140.4z
			 M381.2,259.7c-0.1-0.9-0.2-1.9-0.3-2.8c-0.3-3.1-2.6-6.5,1.8-8.9c0.2-0.1,0.1-1.7,0-2.5c-0.3-1.4-0.7-2.7-1-4.1
			c-0.2-0.7-0.5-1.5-0.8-2.2c-0.6,0.4-1.3,0.7-1.8,1.3c-0.9,1.2-1.5,2.8-2.6,3.7c-2.8,2.2-3,4.5-1.3,7.2c0.5,0.8,0.7,1.8,1,2.7
			c3.1-1,3.1-1,4.2,5.7C380.8,259.7,381,259.7,381.2,259.7L381.2,259.7z M408.4,251.6c-0.1-0.9,0.1-2.6-0.2-2.7
			c-0.7-0.3-1.9-0.2-2.6,0.3c-2.2,1.5-4.3,3.7-6.5,5c-1.9,1.1-1.9,2.5-0.9,3.4c1.9,1.7,4.2,2.8,6.6,4.3
			C406.2,257.6,409.1,255.4,408.4,251.6L408.4,251.6z M445,266.7c-0.6-0.5-1.2-0.8-1.6-1.4c-0.5-0.6-0.7-1.5-1-2.3
			c0.7-0.3,1.3-0.7,2-0.9c0.6-0.2,1.3,0,1.9-0.4c0.7-0.3,1.2-1.1,1.8-1.7c-0.2-0.2-0.3-0.4-0.5-0.6c-2.6,2.5-5.1,2.7-7.9,1.3
			c-2.7-1.4-5.6-2.8-8.6-3.1c-1.8-0.2-3.8,1.8-5.1-1c-0.3-0.5-1.6-0.2-2.8-0.3c0.9,2.6,2,3.9,4.2,4.1c2,0.2,4.5,0.4,3.6,4.3
			c4.7,1.2,9.8-0.4,13.8,3C444.9,267.4,445,267.1,445,266.7L445,266.7z M132.9,154.7c-2.3-0.7-4.2-0.6-4.6,3
			c-0.1,1.1-0.5,2.9-0.2,3.1c0.9,0.5,2.1,0.7,3.1,0.4c1.2-0.4,2.3-1.4,3.4-2.1c2.4,6.3,6.2,8.4,11.8,7.3c2.1-0.4,4.3-0.1,6.5-0.4
			c1-0.1,1.9-1,2.8-1.5c0-0.4,0-0.8,0-1.2c-4-0.4-4.8-3.5-4.3-7.4c-2.5-0.3-4,0.4-3.7,3.5C142.7,157.8,137.8,156.2,132.9,154.7
			L132.9,154.7z M201.7,130.7c-3.8-0.1-7.6-0.5-11.4-0.3c-3.8,0.2-7.7,0.7-11.5,1.4c-3.6,0.6-7.2,1.6-10.8,2.5c0,0.3,0,0.7,0,1
			c3.7,0.9,7.4,1.8,11.7,2.8c-2.9,0.3-5.3,1.1-7.6,0.8c-2.3-0.3-4.4-2-6.7-2.4c-1-0.2-2.3,1.2-3.4,1.9c0.5,0.9,0.9,1.8,1.5,2.5
			c0.7,0.8,1.5,1.7,2.4,2c1.4,0.5,2.9,0.6,4.4,0.8c1.5,0.2,3.1,0.3,4.6,0.5c-0.1,0.3-0.1,0.7-0.1,1c-1,0.1-2.3-0.3-2.8,0.3
			c-2.3,2.9-4.8,2.8-7.5,2c-0.6-0.2-1.3,0-2,0.1c-0.2,0.3-0.4,0.7-0.5,1c2.8,0,4.5,1.4,5.4,4.2c0.1,0.1,0.3,0.2,0.5,0.2
			c4.3-0.1,8.6-0.3,13.2-0.4c-2.3-2.9-2.8-2.9-6.3-2.2c-1.5,0.3-3.1-0.1-4.6-0.2c0-0.5,0.1-0.9,0.1-1.4c1.1,0,2.2,0.3,3.2-0.2
			c3.5-1.5,8.3,2.4,10.6-4.2c0.1-0.4,0.9-0.4,1.2-0.8c0.7-0.7,1.2-1.5,1.9-2.2c0.5-0.6,1-1.2,1.6-1.6c4.4-2.5,8.8-4.9,13.3-7.3
			C201.8,131.9,201.7,131.3,201.7,130.7L201.7,130.7z M425.5,269.6c-1.2-0.1-3.4-0.3-3.5,0.3c-1.3,3.3-3.1,3.1-5.3,2.7
			c-0.6-0.1-1.5,0.6-2,1.2c-3,3.1-6.3,5.6-9.9,7.5c-4.7,2.4-5.3,4.5-3.7,9.8c0.5,1.6,0.9,3.3,0.7,5c-0.3,3.4,1.2,3.7,3.3,3
			c3-0.9,6-2,9-3.2c3.3-1.3,6.7-2.2,9.6-0.1c2.2,1.6,4.2,3.6,6.2,5.6c2.7,2.6,5.9,2.3,9.2,1c3.7-1.4,4.9-5.4,6.5-9
			c2.1-4.5,1.3-8.6-1.7-11.4c-1.6-1.5-3.2-3.1-4.4-5.1c-1.4-2.3-2.4-5.1-3.7-7.8c-1.9,2.4-0.5,7.1-4.2,6.8c-2.2-0.2-4.1-1.9-3-5.6
			C427.2,269.9,426.4,269.6,425.5,269.6L425.5,269.6z M213.3,164.8c-2.5,1.1-2.2,3.3-1.4,5.1c1.2,2.8,2.7,5.5,4.3,8
			c2.4,3.6,6.3,3,8.2-1c1.7-3.6,2.7-8.2,7.5-7.9c0.7,0.1,1.4-1,2.2-1.4c1.6-1,3.3-2,5-3c3.2-1.8,7-2.2,10-6.4c-1-0.7-1.9-1.4-3-2.2
			c1-0.4,1.6-0.6,2.1-0.8c0-0.2,0-0.4,0-0.6c-1-0.2-2-0.3-3.5-0.6c2.5-0.9,4.6-1,6.1-2.4c2.3-2,0.9-4.3-0.8-6.6
			c1.4,0.2,2.2,0.3,3,0.4c0.1-0.3,0.3-0.6,0.4-0.9c-1.1-1-2.3-2-3.6-3.1c2.3-4.6,6.2-7.1,10.4-9.3c-5.1-1-10.4,2.2-15.3-1.2
			c1.4-0.4,2.6-0.7,3.9-1.1c-2.9-1.4-5.9-2.7-8.8-2.7c-5.2,0-10.5,0.9-15.7,1.5c-0.4,0-0.7,0.7-1.1,1.1c-0.8,0.8-2,2.4-2.2,2.2
			c-2.9-1.9-5.8,0.6-8.4,0c-6.1-1.3-10.5,3.6-16.1,5.3c2.5,2.2,1.1,3.1-0.5,3.7c-2,0.8-4,1.4-6,2.1c0,0.3,0,0.7,0,1
			c1.8,0.3,3.7,0.7,5.5,1.1c0,0.1,0,0.2,0,0.3c-1,0.2-2,0.3-3.3,0.5c2.7,2.9,2.7,2.8,5.8,2.3c5.8-0.9,11.3,2.2,12.2,9.4
			c1.1,0.6,2.1,1.1,3.5,1.8c-1.7,0.9-2.6,1.4-3.5,2c0,0.3,0.1,0.7,0.1,1c1.2,0,2.4-0.1,4.1-0.1C213.8,163.3,213.7,164.6,213.3,164.8
			L213.3,164.8z M83,173.2c-1.6,0.5-3.3,1-4.9,1.5c0,0.5,0,1.1,0,1.6c2.3,0.3,4.6,0.6,6.9,0.9c-0.8,1.3-1.7,1.7-2.6,2.4
			c-1,0.8-1.9,1.8-2.9,2.7c0.8,1,1.5,2.2,2.6,2.9c1.8,1.2,3.8,2,6.1,3.2c-1.7,1.6-3.4,3.2-5.6,5.2c5.9-2.4,10.3-6.3,14.9-11.6
			c-0.3,1.6-0.3,2.2-0.5,2.8c3.7-2.5,17,0.5,17.7,3.9c0.7-0.1,1.4-0.1,2.1-0.2c-0.6,3.2,2.1,3.4,3.2,5c1.4,2,2.2,4.9,3.9,6.3
			c3.7,2.8,3.8,6.7,3.2,11.4c-0.6,4.3,1,7.2,3.4,9.9c2.6,3,4.8,6.6,7.2,9.9c1.4,1.8,2.9,3.5,4.3,5.3c0.1-0.1,0.1-0.1,0.2-0.2
			c-1.6-3.1-3.1-6.2-5.1-10c1.1,0.4,1.5,0.5,1.7,0.7c2.6,3.9,5.2,7.8,7.9,11.7c0.6,0.9,1.3,1.9,2.1,2.3c3.7,1.5,6.5,5.7,11.2,4.4
			c0.6-0.1,1.2,0.7,1.8,1.1c1,0.6,2,1.2,3,1.9c2,1.4,3.9,3,6.1,4.2c1.6,0.9,3.5,1.9,5.2,1.6c1.8-0.4,2.4,0.4,2.8,1.8
			c0.8,2.5,0.1,4.5-1.9,6.4c-1,1-2.1,2.8-2.2,4.3c-0.5,6.9,2.8,11.8,6.3,15.7c2.9,3.3,5.3,5.8,3.1,11.3c-0.2,0.4-0.1,0.9-0.2,1.3
			c-0.9,4.1-1.8,8.3-2.9,12.4c-0.8,3.1-1.9,6.2-2.8,9.3c-0.1,0.4,0.1,1,0.3,1.2c1.7,1.2,0.7,2.2-0.5,3.2c-0.3,0.3-1,0.5-1,0.8
			c-0.3,2.7-2.8,5.4-0.7,8c0.3,0.4,0.6,1.2,0.5,1.7c-1,3.6,1.1,4.2,3.1,4.5c2,0.3,4.1-0.1,6.5-0.1c-0.5-0.7-0.6-1-0.8-1.3
			c-3.6-3.2-3.6-3.8-0.1-8.4c0.7-0.9,0.7-2.6,1.2-4.7c3.2-3,3.2-3,2.8-6.3c2.6-1.6,5.2-3.2,7.7-4.9c0.7-0.5,1-1.6,1.6-2.3
			c0.5-0.7,1.1-1.8,1.7-2c4.1-1.5,7-5.3,8.8-9.1c1.5-3.2,3-5,5.7-6c3.2-1.1,5.6-3.7,6.5-7.3c1-4.2,2.2-7.8,5.2-10.7
			c1.3-1.3,1.6-3.2,0.1-4.1c-2.2-1.2-4.6-2-6.9-2.9c-2.8-1.1-6.5-1.3-8.3-3.6c-2.6-3.5-5.5-5.3-9-7.2c-3.8-2-6.9-4.8-11.6-4.8
			c-3.1,0-5.8-0.7-8.7,1.7c-2.8,2.3-5.7,1.4-8.4,0.1c-0.8-0.4-1.6-2.2-1.4-2.9c1.3-4-0.9-3.9-3-4.1c-0.8-0.1-1.5-0.2-2.5-0.3
			c0.5-1.3,1-2.2,1.2-3.1c0.3-1,0.3-2,0.4-3c-0.9,0.3-1.9,0.4-2.7,0.8c-0.5,0.2-0.8,1.2-1.3,1.4c-1.4,0.5-3.3,1.6-4.3,1
			c-1.5-0.8-3.2-2.6-3.5-4.5c-0.7-5,3.6-9.7,8-9.1c0.6,0.1,1.3,0.3,1.9,0.1c4.9-1.9,6.1-1.4,8.4,3.1c0.4,0.8,1.3,1,2,1.6
			c0.1-1,0.6-2.2,0.3-2.9c-1.5-3.1-0.5-5,2-6.8c1.4-1,2.6-2.6,3.6-4.1c0.7-1,0.8-2.5,1.5-3.4c2-2.4,4.1-4.8,6.4-6.9
			c1.3-1.2,3.8-3,4.4-2.5c2.9,2.4,4.1-1.7,6.2-1.9c-3.7-0.5-4.4-1.1-5-4.5c-1.1,0.3-2.3,0.6-4,1c4.3-5.3,9.6-0.9,13.4-5.3
			c0.1,0.3,0.2,0.6,0.3,0.9c-0.8,1.5-1.6,2.9-2.7,4.9c2.7,0.5,4.9,0.9,7.1,1.2c0.3-0.3,0.7-0.7,1-1c-3.5-2.5-3.3-8.5-6.3-10.2
			c-4-2.3-4.2-7.8-7.6-10.5c-0.7,0.9-1.3,1.7-2,2.4c-1.4,1.5-3.1,1.4-3.3-0.4c-0.5-3.9-3.4-3.7-5.3-4.8c-1.1-0.6-4,0.1-4.2,0.8
			c-0.5,2.1-0.7,4.7,0,6.6c0.8,2.2,0.3,3-1,4.5c-0.7,0.7-0.8,2.2-1.1,3.3c-0.3,0.9-0.6,1.9-0.9,2.9c-0.7-0.6-1.4-1-1.9-1.7
			c-0.8-1.1-1.1-3-2-3.5c-2.7-1.4-5.7-2-8.4-3.3c-1.6-0.8-4-1.8-4.3-3.4c-0.3-1.5,1.1-4.4,2.4-5.8c2-2.2,4.6-3.6,6.9-5.4
			c-0.3,3.5-0.3,3.5,6,2c-1-1.1-2-2.1-3.4-3.4c3.5-1.4,3.4-4.6,3.4-8.2c2.6,0.5,5,1,8,1.6c-1.3,1.1-1.9,1.7-2.6,2.3
			c1.4,2.3,4.2-3.6,5,1.8c-1.9,1.4-3.9,3-6.6,5c1.4-0.1,2.3-0.2,3.1-0.1c1.3,0.2,2.7,0.3,3.9,0.8c1.8,0.9,3.4,2.1,5.7,3.5
			c-0.4-1.6-0.5-2.1-0.7-2.7c1.2,0.4,2.3,0.8,3.3,1.2c0.2-0.3,0.4-0.5,0.6-0.8c-1.1-1.6-2.3-3.1-3.4-4.7c0.1-0.3,0.1-0.6,0.2-0.9
			c0.8,0.1,2-0.3,2.4,0.3c1.7,2.1,2.8,1.1,4.1-1c-2.8-2.4-5.3-5.1-7.8-7.6c-3.4-3.5-8.2-5-12.4-7.3c-0.1,0.2-0.1,0.3-0.2,0.4
			c0.5,0.7,0.9,1.3,1.3,2c-0.9,0.5-1.9,0.6-2.1,0.2c-1.6-4.1-3.9-2.3-6.1-0.7c-0.1,0.1-0.3,0-0.5,0c0.1-0.6,0.2-1.1,0.4-2.6
			c-1.5,1.4-2.5,2.2-3.3,3.1c-2.2,2.5-1.8,4.4,1,5.6c0.9,0.4,2.4,1.4,2.2,2c-0.2,1.3-1.2,2.4-2,4c-2.5-2.8-4.5-5.3-6.6-7.5
			c-1.7-1.7-1.6-2.9,0.5-4c0.8-0.4,1.5-1.2,2.2-1.9c-0.1-0.4-0.3-0.8-0.4-1.2c-1.7,0.5-4.3,0.4-4.8,1.5c-1.1,2.7-1.2,5.9-1.7,9
			c-0.9,0-1.9,0.1-3,0.1c0.7,3,0.1,3.9-2.2,3.4c-1.3-0.3-2.6-0.8-3.9-1.3c-2.3-1-4.1-0.3-5.1,2.7c-2.6-1.5-5.8-0.2-8.4-2.6
			c-1.6-1.5-4.3-1.7-6.6-1.6c-4.4,0.1-8.7-1.9-13.2,0.2c-1.6,0.8-3.5,1.6-5.1,1.4c-6-0.7-12.1-1.2-17.9-3
			c-6.4-1.9-11.3,1.6-16.8,5.7C80.6,171,81.9,172.2,83,173.2L83,173.2z M291.7,211.6c-1-1.3-1.5-2.3-2.3-2.8
			c-1.5-1.1-3.2-1.9-4.6-3.1c-1.4-1.1-6.9-0.3-8.3,1.2c-2.9,3.2-4.8,7.9-9.3,8.7c-0.1,0-0.3,0.5-0.9,1.6c6.4-1.2,12.3-2.3,18-3.4
			c0.3,2.2,0.1,4.6,0.9,5.1c2.3,1.5,4.9,2.4,7.5,3.2c0.6,0.2,1.5-0.5,2.3-0.8c1.3-0.4,2.7-1.5,3.9-1.2c3.6,1.1,7.2,1.5,11,1.1
			c4.5-0.5,5.8-2.5,4-7.2c-1.3,0.1-2.6,0.1-3.9,0.1c-3.3,0.3-6.9,1.5-7.3-4.4c0-0.4-1.3-0.6-2-0.9c-0.2,0.7-0.5,1.4-0.7,2.1
			c-0.3,1.1-0.7,2.2-1,3.3c-0.2,0.1-0.5,0.3-0.7,0.4c-1.5-6.4-5.3-9.8-10.4-12.1c-0.4,5,4,4,5.3,6.7c-1.5,1.6-1.8,5.5-5,3.4
			C289,212.3,290,212.1,291.7,211.6L291.7,211.6z M386.8,243.9c-0.2-2-0.3-4-0.6-6c-0.5-2.7-0.9-5.2,2.5-6.5c-0.5-1.2-1-1.9-1.2-2.8
			c-0.3-1-0.4-2.2-0.6-3.3c-0.1-0.9-0.1-1.8-0.1-2.7c-0.8,0.3-1.7,0.4-2.2,1c-1,1.2-1.6,2.7-2.4,4.2c-0.6,1-1.2,2.1-1.8,3.1
			c-3-1.2-5.6-0.7-8.1,2.1c-1.9,2-4.1,3.4-6,5.3c-0.7,0.7-1.2,1.9-1.6,3c-0.5,1.2-0.4,2.7-0.9,3.9c-1,2.7-2.6,3.1-3.6,0.7
			c-1.4-3.4-2.2-7.3-3.5-10.9c-0.4-1-1.2-1.8-1.9-2.7c-0.5-0.6-1-1.1-1.6-1.6c-1.6-1.2-3.2-3.3-5-3.3c-6.2,0.2-12-0.6-17.1-4.8
			c-0.5-0.4-1.4-0.1-2.2-0.1c0.1,0.8,0,1.7,0.3,2.3c1.8,4,4.3,4.7,8,2.2c0.3,0.5,0.6,1.1,1,1.6c0.8,1,2.6,2.5,2.4,2.8
			c-1,2.1-2.2,4.5-3.9,5.6c-3,2-6.3,3.1-9.5,4.6c-0.8,0.4-1.6,0.5-2.4,0.9c-2.8,1.3-3.3,1-3.7-2.4c-0.1-0.9-0.3-2-0.7-2.7
			c-2-3.6-4.1-7.2-6.2-10.7c-0.5-0.9-1.5-1.2-2.3-1.8c-0.3,0.3-0.6,0.6-0.9,0.9c2.7,5,5.4,9.9,7.9,15.1c2.2,4.7,5.2,6.4,9.8,4.4
			c0.7-0.3,1.4,0.4,2.2,0.6c-0.3,0.9-0.6,1.8-0.9,2.6c-2.7,6-7.9,8.8-11.7,13.4c-2.6,3.1-3.3,6-2.4,9.6c1,4,0.5,5.2-2.6,7.9
			c-2.4,2-5.1,3.7-4.7,7.9c0.1,0.7-0.9,2-1.5,2.7c-3.3,3.2-6.6,6.3-9.9,9.4c-0.8,0.7-1.6,1.6-2.4,1.9c-1.6,0.5-3.3,0.8-5,0.9
			c-2.4,0.2-3.4-2.9-3.9-4.5c-1-3.1-5-16.6-2.9-20.2c2.4-4.3,2-8-0.2-11.5c-1.5-2.4-3.4-4.6-1.7-8.5c0.2-0.4-1.3-2.1-2.2-2.6
			c-5.1-2.9-10.6-1.6-16.2,0.1c-3.3,1-5.5-1.4-7.4-3.9c-0.8-1-1.4-2.1-2.3-2.9c-1.8-1.7-2.8-3.7-1.1-6.7c0.3-0.5,0.5-1.3,0.4-1.9
			c-0.8-6.9,2.8-10.9,7.1-14.8c2.2-2,3.8-4.9,5.4-7.6c0.3-0.4-0.3-2.3-0.9-2.5c-1.8-0.8-2-2.1-1.6-4.1c0.9-5,0.9-5,5.4-5
			c0.5,0,1.2,0.2,1.6-0.1c0.9-0.5,2.1-1.1,2.3-1.9c0.2-0.9-0.4-2.2-1-2.9c-0.7-0.9-1.8-1.2-3.1-2c2.2-1,3.9-1.6,5.6-2.5
			c2.6-1.4,5-2.9,6.6-6.1c1.4-2.8,3.3-5.4,6.6-6.8c-0.2,1.4-0.6,2.3-0.4,2.9c0.2,0.9,0.9,2.2,1.4,2.2c2.9-0.1,5.8-0.4,8.8-0.9
			c0.7-0.1,1.4-1.3,2.1-2c1.1-1.1,2.1-2.2,3.5-3.6c-0.1-0.1-0.6-0.5-1.3-1.2c2.4-0.9,4.8-1.7,7.2-2.6c0-0.3,0-0.5,0-0.8
			c-1.9,0.2-3.8,0.6-5.6,0.6c-0.9,0-2.3-0.7-2.4-1.3c-0.2-1.3,0.2-2.9,0.7-4.2c0.3-0.7,1.1-1.2,1.7-1.8c0.5-0.6,1-1.3,1.7-2.2
			c-2.1-0.9-3.5-1.2-4.3,1.7c-0.3,1.2-1.3,2.2-2.1,3.2c-1.1,1.6-3,2.6-1.9,5.5c0.6,1.6-3.4,6.9-5.1,7.1c-0.5,0.1-1.3-0.7-1.6-1.3
			c-1-2.5-1.9-4.9-5.1-2.9c-0.7,0.4-2.5-0.2-2.7-0.9c-0.5-1.4-0.7-3.5-0.1-4.9c0.6-1.4,2.2-2.2,3.4-3.3c1.8-1.5,3.7-2.8,5.4-4.5
			c1.6-1.5,3.6-3.1,4.3-5.1c1.5-4.4,5-3.7,7.5-5.2c1.9-1.2,5-1.7,6.7-0.6c4.3,2.7,9.5,2.7,13.3,6.5c0.3,0.3,0.7,0.3,1,0.5
			c-0.1,0.3-0.3,0.7-0.4,1c-2.4,0.1-4.9,0.1-8.3,0.3c1.4,2,2.1,3.9,3.3,4.5c0.9,0.5,2.6-0.4,3.7-1.2c1.8-1.2,3.3-2.8,5.4-4.7
			c0-0.3,0.1-1.4,0.3-2.9c0.7,0.3,1.5,0.4,1.5,0.8c0.8,3.7,2.4,2,4.1,0.9c2.1-1.5,4.1-2.7,6.7-2.1c2,0.5,4.2-0.3,6.8-0.6
			c-0.7-1.1-1.2-2.1-1.9-3.3c3.6,1,7.1,2,11.2,3.2c-3-3.7-0.9-6.2,1.2-8.5c0.6-0.7,1.8-0.9,2.7-0.8c0.3,0.1,0.6,1.5,0.7,2.3
			c0.3,3.2,0.5,6.3,0.7,9.5c1-1,2.2-2.2,2.9-2.9c-0.9-1.7-1.8-3.6-2.6-5.4c1-1.1,1.6-1.8,2.2-2.5c0,0.3,0,0.5,0,0.7
			c2.7-0.1,5.4-0.2,8.3-0.3c-0.1-1-0.1-2.2-0.3-3.5c1-0.1,1.8-0.2,2.6-0.5c0.9-0.3,2.7,0.4,2.4-2.1c0-0.2,0.6-0.6,0.9-0.7
			c3.5-1,7-1.8,10.4-2.9c2.6-0.8,5-2.1,7.5-3c1.4-0.5,3.3-1.4,4.2-0.8c1.8,1.3,3.5,1.6,5.6,1.6c1.4,0,2.7,0.9,4,1.4
			c0.1,0.4,0.1,0.9,0.2,1.3c-3,1.8-6,3.5-9,5.3c3.5-0.3,6.7-0.8,9.9-0.9c1.9-0.1,3.7,0.6,5.6,0.7c1.4,0.1,2.9,0.1,4.2-0.5
			c2.9-1.6,6.1-0.3,7.1,3.1c0.2,0.7,1.2,1.3,1.9,1.3c1.8-0.1,3.6-0.7,5.4-0.9c1.9-0.2,3.6-0.3,5.6-1.8c1.7-1.3,4.4-0.7,6.7-0.5
			c1.7,0.2,3.2,1.3,4.9,1.7c2.2,0.5,4.5,0.9,6.7,1.1c1.8,0.2,3.9-0.7,5,2c0.2,0.5,1.2,0.6,1.9,0.6c2.3,0,4.6-0.3,6.9-0.2
			c0.9,0,1.7,0.9,2.4,0.5c1.5-0.4,3.1-1.4,4.5-1.2c4.1,0.5,8.1,1.5,11.4,4.6c0.8,0.7,2.1,0.6,3.2,0.9c1.4,0.4,2.8,0.7,4.1,1.5
			c-2.3,2.2-4.2,4.6-7.2,2c-2.1-1.9-4.4,0.1-6.5,2c0.3,0.8,0.5,1.7,0.8,2.6c-0.1,0.1-0.2,0.3-0.4,0.4c-2.2,1.2-4.4,2.4-6.6,3.4
			c-1.6,0.7-3.3,1-4.9,1.4c-2,0.5-4,0.7-5.9,1.4c-0.7,0.3-1.6,1.9-1.4,2.6c0.9,4.7-1.9,6.9-4.4,9.3c-0.9,0.9-1.8,1.6-2.7,2.4
			c-2.2-4.9-1.7-7.9,1.9-11.1c1.5-1.4,3.2-2.6,4.8-3.8c0.9-0.7,1.8-1.2,2.3-2.5c-2.3,0.8-3.8,0.9-5.8-0.3c-1.9-1.2-4.1,0.8-5.2,3
			c-1,2.2-2.4,2.1-3.7,1.8c-7.3-1.7-13.5,0.9-19,8.1c2.4,0.8,4.5,1.6,6.7,2.3c0.1,0.4,0.2,0.8,0.3,1.2c0.3-0.8,0.7-1.6,1-2.5
			c1.6,4.2,1.9,7.9-0.7,11.7c-0.2-2.4-0.3-4.8-0.5-6.8c-2.2,3-4.5,6-6.7,8.9c-1.5,1.9-3,3.3-5.4,3.8c-3.5,0.7-5.1,4.2-3.9,7.8
			c1,3.1-1.2,2.7-2.2,3.4c-1-2.3-1.5-5.6-3-6.3c-2-0.9-4.8,0.3-7.3,0.6c-0.1,0.6-0.1,1.2-0.1,1.8c1.4,0.3,2.9,0.5,4.7,0.9
			c-2.9,1.7-3.6,3.5-1.6,6.3c1.6,2.3-0.6,8.1-3.6,10.3c-0.9,0.7-1.8,1.4-2.8,1.7c-3.2,1-6,2.7-8.3,6.1c0.1-1.1,0.1-2.3,0.2-3.5
			c-3.7,1.2-4.2,2.6-2.3,5.6c2.7,4.4,2,6.4-3.2,9.2c-1.8-1.5-3.6-3-5.5-4.6C387.8,241.9,387.2,242.9,386.8,243.9
			C386.7,243.8,386.7,243.9,386.8,243.9L386.8,243.9z"/>
		<g>
			<g>
				<path class="st2" d="M296.5,205c1.8,0,3.7,0.1,5.4,0.3c1.8-0.2,3.6-0.3,5.6-0.3c0,49.9,0.2,99.6,0.2,149.4h0.5
					c-0.3,0-0.5,0-0.7,0h-10.6c-3.9,0.1-7.8-1.9-9.5-6.2c-10.5-20.5-41.5-71.7-41.5-92.6C245.8,227.7,268.5,205,296.5,205L296.5,205
					z"/>
				<path class="st3" d="M307.8,205c27.9,0,50.6,22.6,50.6,50.6c0,20.9-31,72.1-41.5,92.6c-3.3,8.3-15,8.1-18.2,0
					c-10.5-20.5-41.5-71.7-41.5-92.6C257.2,227.7,279.8,205,307.8,205L307.8,205z"/>
				<g>
					<rect x="301.6" y="232.5" class="st2" width="11.5" height="46.3"/>
					<path class="st2" d="M313,278.8c9.9,0,17.9-10.4,17.9-23.2c0-12.8-8.1-23.1-17.9-23.1c-9.9,0-17.9,10.4-17.9,23.1
						C295.1,268.4,303.1,278.8,313,278.8L313,278.8z"/>
					<path class="st4" d="M301.6,278.8c9.9,0,17.9-10.4,17.9-23.2c0-12.8-8.1-23.1-17.9-23.1c-9.9,0-17.9,10.4-17.9,23.1
						C283.7,268.4,291.8,278.8,301.6,278.8L301.6,278.8z"/>
				</g>
			</g>
			<g>
				<path class="st5" d="M321,268.3c-0.6-1.4-0.4-4.3-0.2-6.2c0.1-1.9,0-4.4,0.5-6.1c6.2-21.7,9.3-32,18.8-50.7
					c2.7-5.2-0.2-9.6-3.2-11.3c-8.3-4.7-9.9,11-9.3,11.9c-14.3,25.5-9.2,44.6-12.5,48.6c-1.1,1.2-2.2,2.4-2.1,2.4
					c0.8,1.2,4.2,11.1,4.2,11.1S321.9,270.3,321,268.3L321,268.3z"/>
				<path class="st6" d="M308.9,264.4c0.3-2,1-4.5,1.6-5.9c0.8-0.2,1.9,0.4,1.9,0.5c0.1,0,2.5,2.6,2.5,2.6l1.3,5.1l2.7,3.5l2.8,1.1
					c0,0.3-1.2,1.1-2.6,0.2c-1.1-0.8-1.8-1.2-2.3-1.6c-1.7-1.2-2.6-7.1-3.7-7.8c-0.9-0.6-2.6,2.6-2.9,3.2c0,0.1-0.1,0.1-0.1,0.1
					L308.9,264.4C308.9,264.5,308.9,264.5,308.9,264.4L308.9,264.4z"/>
				<path class="st7" d="M310.5,258.6c1,0.7,1.8,1.2,2.3,1.6c1.6,1.1,2.6,8.3,4.5,9.7c1.5,1,1.6,1.1,2,1.4c0.7,0.5,1.8,0.6,2.4,0.2
					c0.3-0.3,0.5-0.5,0.5-0.8c0-0.6-0.9-1.8-1.2-2.3c-0.1-0.3-1.7-0.6-3.2-2.6c-2-2.6-2.6-10.5-3.2-10.9
					C314.2,254.4,311.2,256.2,310.5,258.6L310.5,258.6z"/>
				<path class="st8" d="M299.5,264.4c-0.3-1.5,0.5-4.3,0.9-6.2c0.5-1.9,0.6-4.5,1.6-6c12-18,20.8-29.6,34.6-46.9
					c3.3-4.2,0.8-9.6-2.4-11.4c-4-2.2-5.4-0.8-9.3,3.9c-2.2,2.6-12.4,4.3-9.8,9.5c1.2,0.2,2.8-0.3,2.4,0.4
					c-13.1,19.6-17.9,39.2-21.3,42c-1.3,1-2.6,1.9-2.5,2c0.6,1.4,2.1,11.8,2.1,11.8S300,266.5,299.5,264.4L299.5,264.4z"/>
				<path class="st6" d="M288.3,258.3c0.7-1.8,1.9-4.3,2.7-5.4c0.8,0,1.8,0.8,1.8,0.8c0.1,0.1,2,3,2,3l0.3,5.3l2.1,4l2.5,1.6
					c0,0.3-1.4,0.8-2.5-0.3c-0.9-0.9-1.5-1.6-1.9-2c-1.5-1.5-1.3-7.5-2.2-8.3c-0.7-0.7-3,2.1-3.4,2.6c0,0.1-0.1,0.1-0.1,0l-1.2-1.2
					C288.3,258.4,288.3,258.4,288.3,258.3L288.3,258.3z"/>
				<path class="st7" d="M291,252.9c0.9,0.9,1.6,1.6,2,2c1.4,1.4,1,8.7,2.7,10.3c1.3,1.3,1.4,1.4,1.7,1.7c0.6,0.6,1.6,0.9,2.3,0.6
					c0.4-0.2,0.6-0.4,0.7-0.7c0.1-0.6-0.5-1.9-0.7-2.5c-0.1-0.3-1.5-0.9-2.7-3.1c-1.5-2.9-0.7-10.9-1.1-11.3
					C295.4,249.5,292.1,250.7,291,252.9L291,252.9z"/>
				<path class="st9" d="M303.5,157.4c0,0-21.4-6.1-21.4-0.4c0,8.1-8.7,18.9-8.7,33.1c0,8.6,7.3,17.1,15.8,17.1c23.2,0,6.1,0,25.9,0
					c6-3.3,13.2-12.8,21.9-12.8c-3.8-4.1-18.5-10.7-28.3-13.4C306.2,174.9,304.5,165.5,303.5,157.4L303.5,157.4z"/>
				<path class="st10" d="M303.5,157.4c0,0-21.4-6.1-21.4-0.4c0,6.9-6.4,15.9-8.2,27.3c9.1-18.8,26.8-7.3,30.4-7.8
					c1-0.1,1.7-0.8,2.4-1.6C305.2,169.5,304.2,163.1,303.5,157.4L303.5,157.4z"/>
				<path class="st6" d="M278.6,91.7c-0.3-4.1,5-7.5,8.2-7.8c5.3-0.6,14.1,3.5,15.8,7.4c1.2,2.8,4.3,7.2-5.2,10.7
					c0.3,7.1-0.6,31.8,0,46.1c-7.8,0.3-4.3-23.1-4.3-23.1L278.6,91.7z"/>
				<path class="st6" d="M283.6,157.9c-13.3-5.7-9.6-19.8-9.6-33.9c0-5.6,11-26.4,11.1-26c0.1,0.5,7.8,41.1,7.8,41.1L283.6,157.9z"
					/>
				<path class="st9" d="M319.3,148.9c-3.7-0.5-7.9-10.6-10.5-15.7c-3.6-7-8.4-14.4-22.6-12.4c-4.4,0.7,0.7,10,10.8,16.1
					c3.9,2.4,9.9,16.5,15.8,19.3L319.3,148.9z"/>
				<path class="st10" d="M298.1,135.1c-1.6,0.3-0.7,0.6,0.5,2.7c0.7,0.3,1.5,1.8,2.3,3.7c3.5,5.1,7.7,12.8,11.9,14.8l2.1-8.2
					C309.1,145.8,305.8,133.6,298.1,135.1L298.1,135.1z"/>
				<path class="st9" d="M285.9,120.1c-3.6,0.2-7.8,4.5-8.4,12.4c-0.6,8.6,7.4,17.5,1.6,29.6c-1.1,2.3,14.7,8.8,22.5,7.7
					c3.2-0.5,3.9-7.7,3.7-8.4c-0.7-2-2.6-6.6-0.3-11.2c1.4-2.8,2.2-7.9-1.5-12.4c-3.7-4.5-3-8.2-5.7-12.4
					C295.3,121.5,291.2,119.9,285.9,120.1L285.9,120.1z"/>
				<path class="st11" d="M308.1,149.7c3.8,0.5,4.3,1.5,3.3,1.7c-0.7,0.1-2.1,0.6-2.6,0.7c-0.9,0.2-2.2-0.4-3.5-0.3
					C305.9,149.3,308.1,149.7,308.1,149.7L308.1,149.7z"/>
				<path class="st12" d="M319.4,146c0,0-3.9,1.4-5.1,2c-2,0.9-8,3.8-8,3.8c-4.8,2.1-9.6-2.8-2.1-5.1c2.2-0.8,5.5-1.6,6.3-1.8
					c2.3-0.3,4.2-0.4,5.4-0.3c1.3,0.1,2.8,0.3,3.6,0.7C319.8,145.3,320.1,145.8,319.4,146L319.4,146z"/>
				<path class="st13" d="M300.8,147.5c1.2-0.5,2.5-1.2,3.1-1.4c0.8-0.3,3.7,6.2,2.8,6.5c-1.3,0.6-4.1,1.8-4.1,1.8L300.8,147.5z"/>
				<path class="st10" d="M302.3,151.6c-20,2.9-14.6-9.8-17.3-12c-2.6-2.1-6.8-5-7.3-4.3c1.2,12.4,6.7,15.9,1.5,26.8
					C289.5,166.9,303.5,156.7,302.3,151.6L302.3,151.6z"/>
				<path class="st9" d="M272.4,129.4c2.4-5.4,8.4-9.9,15.4-9.9c1,8.2,7.3,19.8-1.3,20.7c-3.7,0.4-4.2,6.6-3.2,13
					c8.3-2.1,13.8-4.8,17.1-6c1-0.3,4.1,7.2,2.8,7.8c-7.5,3.6-17,7.6-24.1,8.9c-1.4,0.3-2.8-0.4-3.5-1.7
					C272.6,156.1,269.4,136.2,272.4,129.4L272.4,129.4z"/>
				<path class="st13" d="M282.3,121.2c0.1,3.7,8.8,12.1,14.7,16.2c0.5-6.7-2.2-15.2-3.5-17.4C292.1,117.8,282.1,116.7,282.3,121.2
					L282.3,121.2z"/>
				<path class="st13" d="M299.4,161.2c0.3,0,0.6,0.5,0.7,1.1c0.1,0.7-0.1,1.2-0.4,1.2c-0.3,0-0.6-0.5-0.7-1.1
					C298.9,161.8,299.1,161.3,299.4,161.2L299.4,161.2z"/>
				<path class="st13" d="M298,142.6c0.3-0.1,0.6,0.5,0.7,1.1c0.1,0.7-0.1,1.2-0.4,1.2c-0.3,0-0.6-0.5-0.7-1.1
					C297.5,143.2,297.7,142.6,298,142.6L298,142.6z"/>
				<path class="st11" d="M338.1,146c2.6-3.1,1.4-4,0.5-3.6c-0.6,0.3-2,0.9-2.5,1.2c-0.8,0.5-1.4,1.7-2.5,2.5
					C335.9,147.7,338.1,146,338.1,146L338.1,146z"/>
				<path class="st12" d="M333.3,147.8c-0.1,1,1,4.7,1.9,5c0.7,0.2,1.8,0.5,2.9,0.6c1.2,0,3.3-7.4,1.2-7.9c-1-0.2-2.5,0.3-3.3,0.3
					C335.1,145.8,333.4,146.8,333.3,147.8L333.3,147.8z"/>
				<path class="st12" d="M282.9,120.7l-0.7-15l10.9,1.4l0.6,14.3c0,1.1,0.4,5-0.7,6.9C289,127.8,283,123.3,282.9,120.7L282.9,120.7
					z"/>
				<path class="st11" d="M293.7,119.5l-0.3-5.8l-6.5-2.4C287.1,114.3,288.4,118.5,293.7,119.5L293.7,119.5z"/>
				<path class="st12" d="M288.4,90.7c-0.2,0.1-5.5-1.9-5.5-1.9c-2.2-0.1-1.5,3.5-1.6,5.7l0.6,11.1c0.4,7.1,7.2,11.3,12.4,11.5
					c4.4,0.2,7.3-10.5,5.5-14.2c0.5-1.1,0.9-4.3,0.3-7C295.5,95.4,294.4,89.4,288.4,90.7L288.4,90.7z"/>
				<path class="st6" d="M274,99.6c0-8.9,4.9-14.9,12.8-15.7c1.7-0.2,4.3,4.8,3,6c-2.1,1.8-3.2,3.7-4,6.3c-0.8,2.7,0.6,7.4-2.3,7.5
					c-4.1,0.2-0.1,12.6-3.2,16c-1.6,1.7-2.9,3.4-6.2,4.3C274,110.4,274,107.8,274,99.6L274,99.6z"/>
				<path class="st14" d="M293.1,109.7c0,0,0.1,2.6,2.6,2.9c2,0.3,2.6-1.6,2.7-2.4C297.6,110.6,294.4,110.3,293.1,109.7L293.1,109.7
					z"/>
				<path class="st11" d="M298.9,107.9c0.4-0.8-1.4-2.3-1.4-2.3c0.2,0.7,0.9,1.4,0.6,1.9c-0.2,0.5-1.3,0.7-1.6,1.3
					C296.5,108.8,298.5,108.6,298.9,107.9L298.9,107.9z"/>
				<path class="st6" d="M293.1,102.5c0,0.7-0.5,1.3-1,1.3c-0.5,0-0.9-0.7-0.9-1.4c0.1-0.7,0.5-1.3,1-1.3
					C292.7,101.2,293.1,101.8,293.1,102.5L293.1,102.5z"/>
				<path class="st6" d="M299.9,102.8c0,0.7-0.4,1.3-0.9,1.2c-0.5,0-0.8-0.6-0.8-1.3c0-0.7,0.4-1.2,0.9-1.2
					C299.6,101.6,299.9,102.2,299.9,102.8L299.9,102.8z"/>
				<path class="st11" d="M293.7,113.3c1.2,0.3,2.5,0.4,2.9,0.1C296.2,114.5,294.6,114.8,293.7,113.3L293.7,113.3z"/>
				<path class="st15" d="M290.2,104.5c-0.9-0.1-1.6,0.3-1.6,0.7c0,0.5,0.7,0.9,1.5,0.9c0.9,0.1,1.6-0.3,1.6-0.7
					C291.7,105,291,104.6,290.2,104.5L290.2,104.5z"/>
				<path class="st6" d="M293.9,98.7c0.1,0,0.2,0,0.3-0.1c0.1-0.1,0.1-0.3,0-0.5c-0.5-0.4-1.1-0.7-1.8-0.7c-0.7,0-1.4,0.1-1.9,0.5
					c-0.1,0.1-0.2,0.3-0.1,0.5s0.3,0.2,0.5,0.1c0.4-0.3,0.9-0.4,1.5-0.4c0.6,0,1.1,0.2,1.4,0.5C293.8,98.7,293.8,98.7,293.9,98.7
					L293.9,98.7z"/>
				<path class="st6" d="M298.6,99.4c0.1,0,0.1,0,0.2-0.1c0.4-0.3,0.9-0.4,1.5-0.4c0.2,0,0.3-0.1,0.3-0.3c0-0.2-0.1-0.3-0.3-0.3
					c-0.7,0-1.4,0.1-1.9,0.5c-0.1,0.1-0.2,0.3-0.1,0.5C298.4,99.4,298.5,99.4,298.6,99.4L298.6,99.4z"/>
				<path class="st12" d="M282.9,106.8l-1.2,0.1c-1.3,0.2-2.2-0.6-2.2-1.9c0-0.8-0.2-2.1-0.1-3.4c0.1-1.1,1.1-1.9,2.3-1.8
					c1.1,0.1,1.9,1.1,1.8,2.2L282.9,106.8z"/>
				<path class="st14" d="M279.7,106.9c-0.1,0.7,0.4,1.3,1.1,1.4c0.7,0.1,1.3-0.4,1.4-1.1c0.1-0.7-0.4-1.3-1.1-1.4
					C280.4,105.8,279.8,106.3,279.7,106.9L279.7,106.9z"/>
				<g>
					<path class="st16" d="M333,163.9l-21.3-0.1c-0.6,0-1.1-0.6-0.9-1.2l6.8-30.8c0.1-0.5,0.5-0.8,0.9-0.8l21.3,0.1
						c0.6,0,1.1,0.6,0.9,1.2l-6.8,30.8C333.9,163.5,333.5,163.9,333,163.9L333,163.9z"/>
					<path class="st17" d="M328.5,147.7c2.1-6.7,5.7-9.5,11-9.5l1.3-5.9c0.1-0.6-0.3-1.2-0.9-1.2l-21.3-0.1c-0.5,0-0.9,0.3-0.9,0.8
						l-6.8,30.8c-0.1,0.6,0.3,1.2,0.9,1.2h3.9C318.1,153.5,325.8,156.2,328.5,147.7L328.5,147.7z"/>
					<path class="st10" d="M325.3,138.7c0-0.8,1.2-1.4,2.7-1.4c1.5,0,2.7,0.6,2.7,1.4c0,0.8-1.2,1.4-2.7,1.4
						C326.5,140.1,325.3,139.5,325.3,138.7L325.3,138.7z"/>
				</g>
			</g>
		</g>
		<path class="st18" d="M257.2,162.7c0.3,0.2,0.5,0.6,0.4,0.9c-0.1,0.4-0.6,0.5-0.9,0.4l-1.3-0.5c-0.4-0.2-0.5-0.6-0.4-0.9
			c0.1-0.4,0.6-0.5,0.9-0.4L257.2,162.7z M206.3,256.1c-0.4,0.1-0.8-0.1-0.9-0.5c-0.1-0.4,0.1-0.8,0.5-0.9c0.5-0.1,0.9-0.3,1.3-0.4
			c0.4-0.1,0.8,0.1,0.9,0.4c0.1,0.4-0.1,0.8-0.5,0.9C207.2,255.8,206.8,256,206.3,256.1L206.3,256.1z M211.7,254.1
			c-0.4,0.1-0.8,0-0.9-0.4c-0.1-0.4,0-0.8,0.4-0.9c0.5-0.2,0.9-0.4,1.3-0.6c0.3-0.2,0.8,0,0.9,0.3c0.2,0.4,0,0.8-0.4,1
			C212.6,253.8,212.2,253.9,211.7,254.1L211.7,254.1z M216.9,251.6c-0.3,0.2-0.8,0.1-1-0.3c-0.2-0.3-0.1-0.8,0.3-1
			c0.4-0.2,0.8-0.5,1.2-0.7c0.3-0.2,0.8-0.1,1,0.3c0.2,0.3,0.1,0.8-0.2,1C217.7,251.1,217.3,251.4,216.9,251.6L216.9,251.6z
			 M221.7,248.4c-0.3,0.2-0.8,0.2-1-0.1c-0.2-0.3-0.2-0.8,0.1-1c0.3-0.3,0.7-0.6,1-0.9c0.3-0.3,0.7-0.2,1,0.1c0.3,0.3,0.2,0.7-0.1,1
			C222.4,247.8,222.1,248.1,221.7,248.4L221.7,248.4z M225.8,244.4c-0.2,0.3-0.7,0.3-1,0.1c-0.3-0.2-0.3-0.7-0.1-1
			c0.3-0.3,0.6-0.7,0.8-1.1c0.2-0.3,0.7-0.4,1-0.2c0.3,0.2,0.4,0.7,0.2,1C226.5,243.6,226.2,244,225.8,244.4L225.8,244.4z
			 M228.9,239.3c-0.1,0.4-0.6,0.5-0.9,0.4c-0.4-0.1-0.5-0.5-0.4-0.9c0.2-0.4,0.3-0.9,0.5-1.3c0.1-0.4,0.5-0.6,0.9-0.5
			c0.4,0.1,0.6,0.5,0.5,0.9C229.2,238.4,229.1,238.9,228.9,239.3L228.9,239.3z M230.2,233.6c0,0.4-0.3,0.7-0.7,0.7
			c-0.4,0-0.7-0.3-0.7-0.7c0-0.5,0-0.9,0-1.4c0-0.4,0.3-0.7,0.7-0.7c0.4,0,0.7,0.3,0.7,0.7C230.3,232.6,230.2,233.1,230.2,233.6
			L230.2,233.6z M229.8,227.8c0.1,0.4-0.1,0.8-0.5,0.9c-0.4,0.1-0.8-0.2-0.9-0.5c-0.1-0.5-0.2-0.9-0.3-1.3c-0.1-0.4,0.1-0.8,0.5-0.9
			c0.4-0.1,0.8,0.1,0.9,0.5C229.6,226.8,229.7,227.3,229.8,227.8L229.8,227.8z M227.9,222.3c0.2,0.4,0,0.8-0.3,0.9
			c-0.4,0.2-0.8,0-0.9-0.4c-0.2-0.4-0.4-0.9-0.6-1.2c-0.2-0.4,0-0.8,0.3-1c0.4-0.2,0.8,0,1,0.3C227.5,221.4,227.8,221.8,227.9,222.3
			L227.9,222.3z M225.2,217.2c0.2,0.3,0.1,0.8-0.2,1c-0.3,0.2-0.8,0.1-1-0.2c-0.3-0.4-0.5-0.8-0.8-1.2c-0.2-0.3-0.1-0.8,0.2-1
			c0.3-0.2,0.8-0.1,1,0.2C224.7,216.4,225,216.8,225.2,217.2L225.2,217.2z M222,212.5c0.2,0.3,0.2,0.8-0.1,1c-0.3,0.3-0.8,0.2-1-0.1
			c-0.3-0.4-0.6-0.7-0.9-1.1c-0.3-0.3-0.2-0.8,0.1-1c0.3-0.2,0.8-0.2,1,0.1C221.4,211.7,221.7,212.1,222,212.5L222,212.5z
			 M218.3,208.1c0.3,0.3,0.2,0.7-0.1,1c-0.3,0.3-0.7,0.2-1-0.1c-0.3-0.3-0.6-0.7-0.9-1c-0.3-0.3-0.3-0.7,0-1c0.3-0.3,0.7-0.3,1,0
			C217.7,207.4,218,207.7,218.3,208.1L218.3,208.1z M214.4,203.9c0.3,0.3,0.3,0.7,0,1c-0.3,0.3-0.7,0.3-1,0l-1-1
			c-0.3-0.3-0.3-0.7,0-1c0.3-0.3,0.7-0.3,1,0L214.4,203.9z M210.3,200c0.3,0.3,0.3,0.7,0.1,1c-0.3,0.3-0.7,0.3-1,0.1l-1-0.9
			c-0.3-0.3-0.3-0.7-0.1-1c0.3-0.3,0.7-0.3,1-0.1L210.3,200z M206,196.3c0.3,0.2,0.3,0.7,0.1,1c-0.3,0.3-0.7,0.3-1,0.1
			c-0.4-0.3-0.7-0.6-1.1-0.9c-0.3-0.2-0.3-0.7-0.1-1c0.3-0.3,0.7-0.3,1-0.1C205.2,195.6,205.6,195.9,206,196.3L206,196.3z
			 M201.5,192.7c0.3,0.2,0.4,0.7,0.2,1c-0.2,0.3-0.7,0.4-1,0.1c-0.4-0.3-0.8-0.5-1.2-0.8c-0.3-0.2-0.4-0.7-0.2-1
			c0.2-0.3,0.7-0.4,1-0.2C200.7,192.2,201.1,192.5,201.5,192.7L201.5,192.7z M196.7,189.6c0.3,0.2,0.4,0.7,0.2,1
			c-0.2,0.3-0.7,0.4-1,0.2c-0.4-0.3-0.8-0.5-1.2-0.7c-0.3-0.2-0.5-0.6-0.3-1c0.2-0.3,0.7-0.5,1-0.3
			C195.9,189.1,196.3,189.3,196.7,189.6L196.7,189.6z M191.7,186.7c0.3,0.2,0.5,0.6,0.3,1c-0.2,0.3-0.6,0.5-1,0.3
			c-0.4-0.2-0.8-0.5-1.2-0.7c-0.4-0.2-0.5-0.6-0.3-1c0.2-0.3,0.6-0.5,1-0.3C190.9,186.3,191.3,186.5,191.7,186.7L191.7,186.7z
			 M186.7,184.1c0.3,0.2,0.5,0.6,0.3,1c-0.2,0.3-0.6,0.5-1,0.3l-1.3-0.6c-0.3-0.2-0.5-0.6-0.3-0.9c0.2-0.4,0.6-0.5,1-0.3
			L186.7,184.1z M181.5,181.8c0.4,0.1,0.5,0.6,0.4,0.9c-0.1,0.3-0.6,0.5-0.9,0.3l-1.3-0.5c-0.4-0.2-0.5-0.6-0.4-0.9
			c0.2-0.4,0.6-0.5,0.9-0.4L181.5,181.8z M176.2,179.6c0.4,0.1,0.5,0.6,0.4,0.9c-0.1,0.4-0.6,0.5-0.9,0.4l-1.3-0.5
			c-0.3-0.1-0.5-0.6-0.4-0.9c0.1-0.4,0.6-0.5,0.9-0.4L176.2,179.6z M171,177.5c0.4,0.1,0.5,0.5,0.4,0.9c-0.1,0.4-0.5,0.5-0.9,0.4
			l-1.3-0.5c-0.4-0.1-0.5-0.5-0.4-0.9c0.1-0.4,0.5-0.6,0.9-0.4L171,177.5z M165.6,175.5c0.4,0.1,0.5,0.5,0.4,0.9
			c-0.1,0.4-0.5,0.6-0.9,0.4l-1.3-0.5c-0.4-0.1-0.6-0.5-0.4-0.9c0.1-0.4,0.5-0.6,0.9-0.4L165.6,175.5z M160.3,173.6
			c0.4,0.1,0.6,0.5,0.5,0.9c-0.1,0.4-0.5,0.6-0.9,0.5l-1.4-0.5c-0.4-0.1-0.5-0.5-0.4-0.9c0.1-0.4,0.5-0.6,0.9-0.4L160.3,173.6z
			 M154.9,171.7c0.4,0.1,0.6,0.5,0.4,0.9c-0.1,0.4-0.5,0.6-0.9,0.4l-1.3-0.5c-0.4-0.1-0.6-0.5-0.4-0.9c0.1-0.4,0.5-0.6,0.9-0.4
			L154.9,171.7z M149.6,169.8c0.4,0.1,0.5,0.5,0.4,0.9c-0.1,0.4-0.5,0.6-0.9,0.4l-1.3-0.5c-0.4-0.1-0.6-0.5-0.4-0.9
			c0.1-0.4,0.5-0.6,0.9-0.4L149.6,169.8z M144.3,167.8c0.4,0.1,0.5,0.5,0.4,0.9c-0.1,0.4-0.5,0.5-0.9,0.4l-1.3-0.5
			c-0.4-0.1-0.5-0.6-0.4-0.9c0.1-0.4,0.6-0.6,0.9-0.4L144.3,167.8z M139.1,165.7c0.4,0.1,0.5,0.6,0.4,0.9c-0.1,0.4-0.6,0.5-0.9,0.4
			c-0.5-0.2-0.9-0.4-1.3-0.6c-0.3-0.2-0.5-0.6-0.3-0.9c0.1-0.4,0.6-0.5,0.9-0.4L139.1,165.7z M133.9,163.4c0.4,0.2,0.5,0.6,0.3,0.9
			c-0.2,0.4-0.6,0.5-1,0.3c-0.4-0.2-0.9-0.4-1.3-0.6c-0.3-0.2-0.5-0.6-0.3-1c0.2-0.3,0.6-0.5,0.9-0.3
			C133.1,162.9,133.5,163.1,133.9,163.4L133.9,163.4z M129,160.7c0.3,0.2,0.4,0.7,0.2,1c-0.2,0.3-0.6,0.5-1,0.2
			c-0.4-0.2-0.8-0.5-1.2-0.8c-0.3-0.2-0.4-0.7-0.2-1c0.2-0.3,0.7-0.4,1-0.2C128.2,160.2,128.6,160.4,129,160.7L129,160.7z
			 M124.5,157.4c0.3,0.3,0.3,0.7,0.1,1c-0.3,0.3-0.7,0.3-1,0.1c-0.4-0.3-0.7-0.7-1.1-1c-0.3-0.3-0.3-0.7,0-1c0.3-0.3,0.7-0.3,1,0
			C123.8,156.8,124.2,157.2,124.5,157.4L124.5,157.4z M120.8,153.4c0.2,0.3,0.1,0.8-0.2,1c-0.3,0.2-0.8,0.1-1-0.2
			c-0.3-0.4-0.5-0.9-0.8-1.3c-0.2-0.3-0.1-0.8,0.3-1c0.3-0.2,0.8,0,1,0.3C120.3,152.7,120.6,153.1,120.8,153.4L120.8,153.4z
			 M118.7,148.5c0.1,0.4-0.2,0.7-0.6,0.8c-0.4,0.1-0.8-0.2-0.8-0.6l-0.1-0.5l-0.1-0.3l0-0.3l-0.1-0.4c0-0.4,0.3-0.7,0.7-0.7
			c0.4,0,0.7,0.3,0.7,0.7c0,0.2,0.1,0.4,0.1,0.6C118.7,148,118.7,148.3,118.7,148.5L118.7,148.5z M118.8,143.1
			c-0.1,0.4-0.5,0.7-0.8,0.6c-0.4-0.1-0.7-0.5-0.6-0.9l0.1-0.3l0.1-0.3l0.1-0.3l0.1-0.5c0.1-0.4,0.5-0.6,0.9-0.5
			c0.4,0.1,0.6,0.5,0.5,0.9l-0.1,0.4C118.9,142.5,118.8,142.8,118.8,143.1L118.8,143.1z M120.5,137.9c-0.2,0.3-0.6,0.5-1,0.3
			c-0.3-0.2-0.5-0.6-0.3-0.9l0.3-0.6l0.2-0.4l0.2-0.3c0.2-0.3,0.6-0.5,1-0.3c0.3,0.2,0.5,0.6,0.3,1L121,137l-0.2,0.4L120.5,137.9z
			 M123.5,133.3c-0.3,0.3-0.7,0.3-1,0.1c-0.3-0.3-0.3-0.7-0.1-1l0.2-0.3l0.3-0.3l0.3-0.3l0.2-0.2c0.3-0.3,0.7-0.3,1,0
			c0.3,0.3,0.3,0.7,0,1l-0.2,0.2l-0.3,0.3l-0.3,0.3L123.5,133.3z M127.6,129.8c-0.3,0.2-0.8,0.1-1-0.2c-0.2-0.3-0.1-0.8,0.2-1
			l0.5-0.3l0.3-0.2l0.4-0.2c0.4-0.2,0.8-0.1,1,0.3c0.2,0.3,0.1,0.8-0.3,1l-0.4,0.2l-0.3,0.2L127.6,129.8z M132.5,127.5
			c-0.4,0.1-0.8-0.1-0.9-0.5c-0.1-0.4,0.1-0.8,0.5-0.9l0.7-0.2l0.4-0.1l0.3-0.1c0.4-0.1,0.8,0.1,0.9,0.5c0.1,0.4-0.1,0.8-0.5,0.9
			l-0.7,0.2L132.5,127.5z M137.9,126.2c-0.4,0.1-0.7-0.2-0.8-0.6c-0.1-0.4,0.2-0.7,0.6-0.8c0.5-0.1,1-0.1,1.4-0.2
			c0.4,0,0.7,0.3,0.8,0.7c0.1,0.4-0.2,0.7-0.6,0.8C138.8,126.1,138.4,126.1,137.9,126.2L137.9,126.2z M143.5,125.8
			c-0.4,0-0.7-0.3-0.7-0.7c0-0.4,0.3-0.7,0.7-0.7c0.5,0,0.9,0,1.4,0c0.4,0,0.7,0.3,0.7,0.7c0,0.4-0.3,0.7-0.7,0.7
			C144.4,125.7,143.9,125.7,143.5,125.8L143.5,125.8z M149.1,125.9c-0.4,0-0.7-0.4-0.7-0.8c0-0.4,0.4-0.7,0.8-0.7
			c0.5,0,0.9,0.1,1.4,0.1c0.4,0,0.7,0.4,0.7,0.8c-0.1,0.4-0.4,0.7-0.8,0.7C150,126,149.6,125.9,149.1,125.9L149.1,125.9z
			 M154.7,126.5c-0.4-0.1-0.7-0.4-0.6-0.8c0.1-0.4,0.4-0.7,0.8-0.6c0.5,0.1,1,0.1,1.4,0.2c0.4,0.1,0.7,0.4,0.6,0.8
			c-0.1,0.4-0.4,0.7-0.8,0.6C155.6,126.6,155.1,126.5,154.7,126.5L154.7,126.5z M160.2,127.4c-0.4-0.1-0.6-0.5-0.6-0.9
			c0.1-0.4,0.5-0.6,0.9-0.5c0.5,0.1,0.9,0.2,1.4,0.3c0.4,0.1,0.6,0.5,0.6,0.8c-0.1,0.4-0.5,0.6-0.9,0.6
			C161.2,127.6,160.7,127.5,160.2,127.4L160.2,127.4z M165.7,128.6c-0.4-0.1-0.6-0.5-0.5-0.9c0.1-0.4,0.5-0.6,0.9-0.5l1.4,0.3
			c0.4,0.1,0.6,0.5,0.5,0.9c-0.1,0.4-0.5,0.6-0.9,0.5L165.7,128.6z M171.2,130c-0.4-0.1-0.6-0.5-0.5-0.9c0.1-0.4,0.5-0.6,0.9-0.5
			l1.4,0.4c0.4,0.1,0.6,0.5,0.5,0.9c-0.1,0.4-0.5,0.6-0.9,0.5L171.2,130z M176.6,131.6c-0.4-0.1-0.6-0.5-0.5-0.9
			c0.1-0.4,0.5-0.6,0.9-0.5l1.4,0.4c0.4,0.1,0.6,0.5,0.5,0.9c-0.1,0.4-0.5,0.6-0.9,0.5L176.6,131.6z M182,133.3
			c-0.4-0.1-0.6-0.5-0.5-0.9c0.1-0.4,0.5-0.6,0.9-0.5l1.4,0.5c0.4,0.1,0.6,0.5,0.4,0.9c-0.1,0.4-0.5,0.6-0.9,0.5L182,133.3z
			 M187.4,135.1c-0.4-0.1-0.6-0.5-0.4-0.9c0.1-0.4,0.5-0.6,0.9-0.5l1.3,0.5c0.4,0.1,0.6,0.5,0.4,0.9c-0.1,0.4-0.5,0.6-0.9,0.4
			L187.4,135.1z M192.7,137c-0.4-0.1-0.6-0.5-0.4-0.9c0.1-0.4,0.5-0.6,0.9-0.4l1.3,0.5c0.4,0.1,0.6,0.5,0.4,0.9
			c-0.1,0.4-0.5,0.5-0.9,0.4L192.7,137z M198,139c-0.4-0.1-0.5-0.6-0.4-0.9c0.1-0.4,0.5-0.5,0.9-0.4l1.3,0.5
			c0.3,0.1,0.5,0.5,0.4,0.9c-0.1,0.4-0.6,0.5-0.9,0.4L198,139z M203.3,141.1c-0.4-0.1-0.5-0.5-0.4-0.9c0.1-0.4,0.6-0.5,0.9-0.4
			l1.3,0.5c0.4,0.2,0.5,0.6,0.4,0.9c-0.1,0.4-0.6,0.5-0.9,0.4L203.3,141.1z M208.5,143.2c-0.4-0.1-0.5-0.6-0.4-0.9
			c0.2-0.3,0.6-0.5,0.9-0.4c0.5,0.2,0.9,0.3,1.3,0.5c0.4,0.1,0.5,0.6,0.4,0.9c-0.1,0.4-0.6,0.5-0.9,0.4
			C209.4,143.6,209,143.4,208.5,143.2L208.5,143.2z M213.8,145.4c-0.4-0.2-0.5-0.6-0.4-0.9c0.2-0.4,0.6-0.5,0.9-0.4l1.3,0.6
			c0.4,0.1,0.5,0.6,0.4,0.9c-0.2,0.3-0.6,0.5-0.9,0.4L213.8,145.4z M219,147.6c-0.4-0.1-0.5-0.6-0.4-0.9c0.1-0.4,0.6-0.5,0.9-0.4
			l1.3,0.6c0.4,0.2,0.5,0.6,0.4,0.9c-0.2,0.4-0.6,0.5-0.9,0.4L219,147.6z M224.2,149.8c-0.3-0.1-0.5-0.6-0.4-0.9
			c0.2-0.3,0.6-0.5,0.9-0.4l1.3,0.6c0.4,0.2,0.5,0.6,0.4,0.9c-0.1,0.4-0.6,0.5-0.9,0.4L224.2,149.8z M229.4,152.1
			c-0.4-0.1-0.5-0.6-0.4-0.9c0.1-0.3,0.6-0.5,0.9-0.4l1.3,0.6c0.3,0.2,0.5,0.6,0.3,0.9c-0.1,0.4-0.6,0.5-0.9,0.4L229.4,152.1z
			 M234.6,154.3c-0.4-0.1-0.5-0.6-0.4-0.9c0.1-0.4,0.6-0.5,0.9-0.4l1.3,0.6c0.3,0.1,0.5,0.6,0.3,0.9c-0.1,0.3-0.6,0.5-0.9,0.4
			L234.6,154.3z M239.8,156.6c-0.4-0.1-0.5-0.6-0.4-0.9c0.2-0.4,0.6-0.5,0.9-0.4l1.3,0.6c0.3,0.2,0.5,0.6,0.3,0.9
			c-0.1,0.4-0.6,0.5-0.9,0.4L239.8,156.6z M244.9,158.9c-0.4-0.2-0.5-0.6-0.4-0.9c0.2-0.4,0.6-0.5,0.9-0.4l1.3,0.6
			c0.3,0.1,0.5,0.6,0.4,0.9c-0.2,0.3-0.6,0.5-0.9,0.4L244.9,158.9z M250.1,161.2c-0.3-0.2-0.5-0.6-0.4-0.9c0.2-0.4,0.6-0.5,0.9-0.4
			l1.3,0.6c0.4,0.1,0.5,0.6,0.4,0.9c-0.1,0.4-0.6,0.5-0.9,0.4L250.1,161.2z"/>
		<path class="st18" d="M371.8,99c-0.4,0.1-0.7-0.2-0.8-0.6c-0.1-0.4,0.2-0.7,0.6-0.8l1.4-0.2c0.4-0.1,0.7,0.2,0.8,0.6
			c0.1,0.4-0.2,0.8-0.6,0.8L371.8,99z M399.1,289.9c0.3,0.3,0.2,0.7-0.1,1c-0.3,0.3-0.7,0.2-1-0.1c-0.3-0.4-0.6-0.7-0.9-1.1
			c-0.3-0.3-0.2-0.8,0.1-1c0.3-0.2,0.8-0.2,1,0.1C398.5,289.1,398.8,289.5,399.1,289.9L399.1,289.9z M395.6,285.5
			c0.2,0.3,0.2,0.8-0.1,1c-0.3,0.3-0.8,0.2-1-0.1c-0.3-0.4-0.6-0.8-0.9-1.2c-0.2-0.3-0.2-0.8,0.1-1c0.3-0.2,0.8-0.1,1,0.2
			C395,284.7,395.3,285.1,395.6,285.5L395.6,285.5z M392.3,280.9c0.2,0.3,0.1,0.8-0.2,1c-0.3,0.2-0.8,0.1-1-0.2
			c-0.3-0.4-0.5-0.8-0.8-1.2c-0.2-0.3-0.1-0.8,0.2-1c0.3-0.2,0.8-0.1,1,0.2C391.8,280.1,392.1,280.5,392.3,280.9L392.3,280.9z
			 M389.4,276.1c0.2,0.3,0.1,0.8-0.3,1c-0.3,0.2-0.8,0.1-1-0.3c-0.3-0.4-0.5-0.8-0.7-1.2c-0.2-0.3-0.1-0.8,0.3-1
			c0.4-0.2,0.8-0.1,1,0.3C388.9,275.3,389.1,275.7,389.4,276.1L389.4,276.1z M386.8,271.1c0.2,0.4,0,0.8-0.3,0.9
			c-0.3,0.2-0.8,0-0.9-0.3l-0.3-0.5l-0.3-0.7c-0.2-0.4,0-0.8,0.3-0.9c0.4-0.2,0.8,0,0.9,0.3C386.4,270.3,386.6,270.7,386.8,271.1
			L386.8,271.1z M384.5,266c0.1,0.3,0,0.8-0.4,0.9s-0.8-0.1-0.9-0.4c-0.2-0.5-0.4-0.9-0.5-1.4c-0.1-0.4,0-0.8,0.4-0.9
			c0.4-0.1,0.8,0.1,0.9,0.4C384.2,265.1,384.4,265.5,384.5,266L384.5,266z M382.7,260.7c0.1,0.4-0.1,0.8-0.5,0.9
			c-0.4,0.1-0.8-0.1-0.9-0.5c-0.1-0.5-0.3-0.9-0.4-1.4c-0.1-0.4,0.1-0.8,0.5-0.9c0.4-0.1,0.8,0.1,0.9,0.5
			C382.4,259.8,382.5,260.2,382.7,260.7L382.7,260.7z M381.2,255.2c0.1,0.4-0.1,0.8-0.5,0.9c-0.4,0.1-0.8-0.1-0.9-0.5
			c-0.1-0.5-0.2-0.9-0.3-1.4c-0.1-0.4,0.2-0.7,0.5-0.8c0.4-0.1,0.8,0.1,0.9,0.5C381,254.3,381.1,254.8,381.2,255.2L381.2,255.2z
			 M380.1,249.7c0.1,0.4-0.2,0.7-0.6,0.8c-0.4,0.1-0.7-0.2-0.8-0.6c-0.1-0.5-0.1-0.9-0.2-1.4c0-0.4,0.2-0.7,0.6-0.8
			c0.4,0,0.7,0.2,0.8,0.6C380,248.8,380,249.3,380.1,249.7L380.1,249.7z M379.5,244.2c0,0.4-0.3,0.7-0.7,0.8c-0.4,0-0.7-0.3-0.8-0.7
			c0-0.5-0.1-1-0.1-1.4c0-0.4,0.3-0.7,0.7-0.7c0.4,0,0.7,0.3,0.7,0.7l0,0.7L379.5,244.2z M379.3,238.5c0,0.4-0.3,0.7-0.7,0.7
			c-0.4,0-0.7-0.3-0.7-0.7c0-0.5,0-0.9,0-1.4c0-0.4,0.3-0.7,0.7-0.7c0.4,0,0.7,0.3,0.7,0.7C379.3,237.6,379.3,238.1,379.3,238.5
			L379.3,238.5z M379.5,232.9c0,0.4-0.4,0.7-0.8,0.7c-0.4,0-0.7-0.4-0.7-0.8c0.1-0.5,0.1-0.9,0.1-1.4c0-0.4,0.4-0.7,0.8-0.6
			c0.4,0,0.7,0.4,0.6,0.8C379.6,232,379.5,232.5,379.5,232.9L379.5,232.9z M380.1,227.4c-0.1,0.4-0.4,0.7-0.8,0.6
			c-0.4-0.1-0.7-0.4-0.6-0.8c0.1-0.5,0.2-0.9,0.3-1.4c0.1-0.4,0.4-0.7,0.8-0.6c0.4,0.1,0.6,0.4,0.6,0.8
			C380.3,226.4,380.2,226.9,380.1,227.4L380.1,227.4z M381.2,221.8c-0.1,0.4-0.5,0.6-0.9,0.5c-0.4-0.1-0.6-0.5-0.5-0.9l0.2-0.7
			l0.2-0.7c0.1-0.4,0.5-0.6,0.9-0.5c0.4,0.1,0.6,0.5,0.5,0.9C381.4,220.9,381.3,221.4,381.2,221.8L381.2,221.8z M382.7,216.4
			c-0.1,0.4-0.5,0.6-0.9,0.5c-0.4-0.1-0.6-0.5-0.5-0.9c0.1-0.5,0.3-0.9,0.5-1.4c0.1-0.4,0.5-0.6,0.9-0.4c0.4,0.1,0.5,0.5,0.4,0.9
			C383,215.6,382.8,216,382.7,216.4L382.7,216.4z M384.6,211.2c-0.1,0.4-0.6,0.5-0.9,0.4c-0.3-0.1-0.5-0.6-0.4-0.9
			c0.2-0.4,0.4-0.9,0.5-1.3c0.2-0.4,0.6-0.5,0.9-0.4c0.4,0.1,0.5,0.6,0.4,0.9C385,210.3,384.8,210.7,384.6,211.2L384.6,211.2z
			 M386.9,206.1c-0.2,0.4-0.6,0.5-1,0.3c-0.3-0.2-0.5-0.6-0.3-0.9c0.2-0.4,0.5-0.9,0.7-1.3c0.2-0.3,0.6-0.5,1-0.3
			c0.3,0.2,0.5,0.6,0.3,1C387.4,205.2,387.1,205.6,386.9,206.1L386.9,206.1z M389.7,201.2c-0.2,0.3-0.7,0.4-1,0.2
			c-0.3-0.2-0.4-0.6-0.2-1c0.3-0.4,0.5-0.8,0.8-1.2c0.2-0.3,0.7-0.4,1-0.2c0.3,0.2,0.4,0.7,0.2,1
			C390.1,200.4,389.9,200.8,389.7,201.2L389.7,201.2z M392.7,196.5c-0.2,0.3-0.7,0.4-1,0.1c-0.3-0.2-0.4-0.7-0.1-1
			c0.3-0.4,0.6-0.8,0.9-1.2c0.2-0.3,0.7-0.4,1-0.1c0.3,0.2,0.4,0.7,0.1,1C393.3,195.7,393,196.1,392.7,196.5L392.7,196.5z
			 M396.2,192.1c-0.3,0.3-0.7,0.3-1,0.1c-0.3-0.3-0.3-0.7-0.1-1c0.3-0.4,0.6-0.7,0.9-1.1c0.3-0.3,0.7-0.3,1-0.1
			c0.3,0.3,0.3,0.7,0.1,1C396.8,191.3,396.5,191.7,396.2,192.1L396.2,192.1z M400,187.9c-0.3,0.3-0.7,0.3-1,0c-0.3-0.3-0.3-0.7,0-1
			l0.5-0.5l0.6-0.5c0.3-0.3,0.7-0.3,1,0c0.3,0.3,0.3,0.7,0,1l-0.6,0.5L400,187.9z M404.1,184.1c-0.3,0.3-0.8,0.2-1-0.1
			c-0.3-0.3-0.2-0.7,0.1-1l0.7-0.5l0.5-0.4c0.3-0.2,0.7-0.2,1,0.1c0.3,0.3,0.2,0.7-0.1,1C404.8,183.5,404.5,183.8,404.1,184.1
			L404.1,184.1z M408.5,180.6c-0.3,0.2-0.8,0.2-1-0.1c-0.2-0.3-0.1-0.8,0.2-1c0.4-0.3,0.8-0.6,1.2-0.8c0.3-0.2,0.8-0.1,1,0.2
			c0.2,0.3,0.1,0.8-0.2,1C409.3,180.1,408.9,180.4,408.5,180.6L408.5,180.6z M413.2,177.5c-0.3,0.2-0.8,0.1-1-0.2
			c-0.2-0.3-0.1-0.8,0.3-1l0.6-0.4l0.6-0.3c0.3-0.2,0.8-0.1,1,0.3c0.2,0.3,0.1,0.8-0.3,1l-0.6,0.3L413.2,177.5z M418.1,174.8
			c-0.3,0.2-0.8,0-0.9-0.3c-0.2-0.4,0-0.8,0.3-1c0.4-0.2,0.9-0.4,1.3-0.6c0.4-0.2,0.8,0,0.9,0.3c0.2,0.4,0,0.8-0.3,1
			C418.9,174.4,418.5,174.6,418.1,174.8L418.1,174.8z M423.2,172.4c-0.4,0.2-0.8,0-0.9-0.4c-0.1-0.4,0-0.8,0.4-0.9
			c0.5-0.2,0.9-0.4,1.3-0.5c0.4-0.1,0.8,0.1,0.9,0.4c0.1,0.4,0,0.8-0.4,0.9C424.1,172.1,423.6,172.2,423.2,172.4L423.2,172.4z
			 M428.5,170.5c-0.4,0.1-0.8-0.1-0.9-0.5c-0.1-0.4,0.1-0.8,0.5-0.9c0.5-0.1,0.9-0.3,1.4-0.4c0.4-0.1,0.8,0.1,0.9,0.5
			c0.1,0.4-0.1,0.8-0.5,0.9C429.3,170.2,428.9,170.3,428.5,170.5L428.5,170.5z M433.8,168.9c-0.4,0.1-0.8-0.1-0.9-0.5
			c-0.1-0.4,0.1-0.8,0.5-0.9c0.5-0.1,0.9-0.2,1.4-0.3c0.4-0.1,0.7,0.2,0.9,0.5c0.1,0.4-0.2,0.8-0.5,0.9
			C434.8,168.6,434.3,168.8,433.8,168.9L433.8,168.9z M439.3,167.7c-0.4,0.1-0.7-0.2-0.8-0.6c-0.1-0.4,0.2-0.7,0.6-0.8l0.6-0.1
			l0.8-0.1c0.4-0.1,0.8,0.2,0.8,0.6c0.1,0.4-0.2,0.8-0.6,0.8l-0.8,0.1L439.3,167.7z M444.9,166.8c-0.4,0.1-0.8-0.2-0.8-0.6
			c-0.1-0.4,0.2-0.7,0.6-0.8c0.5-0.1,0.9-0.1,1.4-0.2c0.4,0,0.7,0.3,0.8,0.7c0.1,0.4-0.2,0.7-0.6,0.8
			C445.8,166.7,445.4,166.8,444.9,166.8L444.9,166.8z M450.5,166.4c-0.4,0-0.7-0.3-0.7-0.7c0-0.4,0.3-0.7,0.7-0.7l0.8,0l0.7,0
			c0.4,0,0.7,0.3,0.7,0.7c0,0.4-0.3,0.7-0.7,0.7L450.5,166.4z M456.2,166c-0.4,0-0.8-0.2-0.8-0.6c-0.1-0.4,0.2-0.7,0.6-0.8
			c0.5-0.1,0.9-0.1,1.4-0.2c0.4-0.1,0.7,0.2,0.8,0.6c0.1,0.4-0.2,0.7-0.6,0.8C457.1,165.8,456.7,165.9,456.2,166L456.2,166z
			 M461.9,164.9c-0.4,0.1-0.8-0.1-0.9-0.5c-0.1-0.4,0.1-0.8,0.5-0.9c0.5-0.1,0.9-0.2,1.3-0.4c0.4-0.1,0.8,0.1,0.9,0.5
			c0.1,0.4-0.1,0.8-0.5,0.9C462.8,164.7,462.3,164.8,461.9,164.9L461.9,164.9z M467.4,163.2c-0.4,0.1-0.8-0.1-0.9-0.4
			c-0.1-0.4,0.1-0.8,0.4-0.9c0.4-0.2,0.9-0.3,1.3-0.5c0.3-0.1,0.8,0,0.9,0.4c0.2,0.3,0,0.8-0.4,0.9
			C468.2,162.9,467.8,163,467.4,163.2L467.4,163.2z M472.6,160.8c-0.3,0.2-0.8,0.1-1-0.3c-0.2-0.3-0.1-0.8,0.3-0.9
			c0.4-0.2,0.8-0.5,1.2-0.7c0.3-0.2,0.8-0.1,1,0.3c0.2,0.3,0.1,0.8-0.3,1C473.4,160.4,473,160.6,472.6,160.8L472.6,160.8z
			 M477.5,157.8c-0.3,0.2-0.8,0.1-1-0.2c-0.2-0.3-0.1-0.8,0.2-1c0.4-0.3,0.7-0.5,1.1-0.8c0.3-0.3,0.7-0.2,1,0.1
			c0.2,0.3,0.2,0.8-0.1,1C478.3,157.3,477.9,157.6,477.5,157.8L477.5,157.8z M482,154.2c-0.3,0.3-0.7,0.3-1,0c-0.3-0.3-0.3-0.7,0-1
			c0.3-0.3,0.7-0.7,1-1c0.3-0.3,0.7-0.3,1,0c0.3,0.3,0.3,0.7,0.1,1C482.6,153.4,482.3,153.8,482,154.2L482,154.2z M485.7,149.7
			c-0.2,0.3-0.7,0.4-1,0.2c-0.3-0.2-0.4-0.7-0.2-1c0.3-0.4,0.5-0.8,0.8-1.2c0.2-0.3,0.7-0.5,1-0.2c0.3,0.2,0.5,0.6,0.3,1
			C486.3,148.9,486,149.3,485.7,149.7L485.7,149.7z M488.5,144.6c-0.1,0.4-0.5,0.6-0.9,0.4c-0.4-0.1-0.5-0.6-0.4-0.9
			c0.1-0.4,0.3-0.9,0.5-1.3c0.1-0.4,0.5-0.6,0.9-0.5c0.4,0.1,0.6,0.5,0.5,0.9C488.8,143.7,488.6,144.1,488.5,144.6L488.5,144.6z
			 M489.9,138.9c-0.1,0.4-0.4,0.7-0.8,0.6c-0.4,0-0.7-0.4-0.6-0.8c0-0.5,0.1-0.9,0.1-1.4c0-0.4,0.3-0.7,0.7-0.7
			c0.4,0,0.7,0.3,0.7,0.7C489.9,137.9,489.9,138.5,489.9,138.9L489.9,138.9z M489.6,133.1c0.1,0.4-0.2,0.7-0.6,0.8
			c-0.4,0.1-0.8-0.2-0.9-0.6c-0.1-0.4-0.2-0.9-0.3-1.3c-0.1-0.4,0.1-0.8,0.5-0.9c0.4-0.1,0.8,0.1,0.9,0.5
			C489.4,132.1,489.5,132.6,489.6,133.1L489.6,133.1z M487.7,127.5c0.2,0.4,0,0.8-0.3,1c-0.3,0.2-0.8,0-0.9-0.3
			c-0.2-0.4-0.4-0.8-0.6-1.2c-0.2-0.3-0.1-0.8,0.3-1c0.3-0.2,0.8-0.1,1,0.3C487.3,126.7,487.5,127.1,487.7,127.5L487.7,127.5z
			 M484.7,122.6c0.3,0.3,0.2,0.8-0.1,1c-0.3,0.2-0.8,0.2-1-0.1c-0.3-0.4-0.5-0.7-0.9-1.1c-0.2-0.3-0.2-0.7,0.1-1
			c0.3-0.3,0.8-0.2,1,0.1C484.2,121.8,484.4,122.2,484.7,122.6L484.7,122.6z M481,118.2c0.3,0.3,0.3,0.7,0,1c-0.3,0.3-0.7,0.3-1,0
			c-0.3-0.3-0.7-0.7-1-1c-0.3-0.3-0.3-0.7,0-1c0.3-0.3,0.7-0.3,1,0C480.3,117.5,480.6,117.9,481,118.2L481,118.2z M476.7,114.4
			c0.3,0.3,0.4,0.7,0.1,1c-0.3,0.3-0.7,0.4-1,0.1c-0.4-0.3-0.7-0.6-1.1-0.9c-0.3-0.2-0.4-0.7-0.1-1c0.2-0.3,0.7-0.4,1-0.1
			C476,113.8,476.3,114,476.7,114.4L476.7,114.4z M472.1,111c0.3,0.2,0.4,0.7,0.2,1c-0.2,0.3-0.7,0.4-1,0.2
			c-0.4-0.3-0.8-0.5-1.2-0.8c-0.3-0.2-0.4-0.7-0.2-1c0.2-0.3,0.7-0.4,1-0.2C471.3,110.4,471.7,110.7,472.1,111L472.1,111z
			 M467.3,107.9c0.3,0.2,0.5,0.6,0.3,1c-0.2,0.3-0.7,0.5-1,0.3c-0.4-0.2-0.8-0.5-1.2-0.7c-0.3-0.2-0.5-0.6-0.3-1
			c0.2-0.3,0.6-0.5,1-0.3C466.4,107.4,466.9,107.7,467.3,107.9L467.3,107.9z M462.3,105.1c0.3,0.2,0.5,0.6,0.3,1
			c-0.2,0.3-0.6,0.5-1,0.3c-0.4-0.2-0.8-0.4-1.2-0.6c-0.3-0.2-0.5-0.6-0.3-1c0.2-0.3,0.6-0.5,0.9-0.3
			C461.4,104.7,461.9,104.9,462.3,105.1L462.3,105.1z M457.1,102.7c0.4,0.1,0.5,0.6,0.4,0.9c-0.1,0.4-0.6,0.5-0.9,0.4
			c-0.4-0.2-0.9-0.4-1.3-0.6c-0.4-0.1-0.5-0.5-0.4-0.9c0.2-0.4,0.6-0.5,0.9-0.4C456.2,102.3,456.7,102.5,457.1,102.7L457.1,102.7z
			 M451.8,100.6c0.4,0.1,0.6,0.5,0.4,0.9c-0.1,0.4-0.5,0.5-0.9,0.4l-1.3-0.5c-0.4-0.1-0.6-0.5-0.4-0.9c0.1-0.4,0.5-0.6,0.9-0.5
			L451.8,100.6z M446.4,98.8c0.4,0.1,0.6,0.5,0.5,0.9c-0.1,0.4-0.5,0.6-0.9,0.5c-0.5-0.1-0.9-0.3-1.3-0.4c-0.4-0.1-0.6-0.5-0.5-0.9
			c0.1-0.4,0.5-0.6,0.9-0.5C445.5,98.5,445.9,98.7,446.4,98.8L446.4,98.8z M440.8,97.4c0.4,0.1,0.6,0.5,0.5,0.9
			c-0.1,0.4-0.5,0.6-0.9,0.5c-0.5-0.1-0.9-0.2-1.4-0.3c-0.4-0.1-0.6-0.5-0.6-0.9c0.1-0.4,0.5-0.6,0.9-0.5L440.8,97.4z M435.3,96.2
			c0.4,0.1,0.7,0.4,0.6,0.8c-0.1,0.4-0.4,0.6-0.8,0.6l-1.4-0.2c-0.4-0.1-0.6-0.4-0.6-0.8c0.1-0.4,0.4-0.7,0.8-0.6L435.3,96.2z
			 M429.6,95.4c0.4,0.1,0.7,0.4,0.6,0.8c-0.1,0.4-0.4,0.7-0.8,0.6c-0.5-0.1-0.9-0.1-1.4-0.2c-0.4-0.1-0.7-0.4-0.6-0.8
			c0-0.4,0.4-0.7,0.8-0.6L429.6,95.4z M424,94.8c0.4,0,0.7,0.4,0.7,0.8c0,0.4-0.4,0.7-0.8,0.7l-1.4-0.1c-0.4,0-0.7-0.4-0.7-0.8
			c0-0.4,0.4-0.7,0.8-0.7L424,94.8z M418.3,94.4c0.4,0,0.7,0.3,0.7,0.7c0,0.4-0.4,0.7-0.8,0.7l-1.4-0.1c-0.4,0-0.7-0.4-0.7-0.7
			c0-0.4,0.3-0.7,0.7-0.7L418.3,94.4z M412.6,94.2c0.4,0,0.7,0.3,0.7,0.7c0,0.4-0.3,0.7-0.7,0.7l-1.4,0c-0.4,0-0.7-0.3-0.7-0.7
			c0-0.4,0.3-0.7,0.7-0.7L412.6,94.2z M406.9,94.2c0.4,0,0.7,0.3,0.7,0.7c0,0.4-0.3,0.7-0.7,0.7l-1.4,0.1c-0.4,0-0.7-0.3-0.7-0.7
			c0-0.4,0.3-0.7,0.7-0.7L406.9,94.2z M401.2,94.4c0.4,0,0.7,0.3,0.7,0.7c0,0.4-0.3,0.7-0.7,0.7c-0.5,0-0.9,0.1-1.4,0.1
			c-0.4,0-0.7-0.3-0.7-0.7c0-0.4,0.3-0.7,0.7-0.7L401.2,94.4z M395.5,94.8c0.4,0,0.7,0.3,0.8,0.7c0,0.4-0.3,0.7-0.7,0.8l-1.4,0.1
			c-0.4,0-0.7-0.3-0.8-0.7c0-0.4,0.3-0.7,0.7-0.8L395.5,94.8z M389.9,95.3c0.4,0,0.7,0.3,0.8,0.6c0,0.4-0.3,0.7-0.7,0.8l-1.4,0.1
			c-0.4,0-0.7-0.3-0.8-0.7c0-0.4,0.3-0.7,0.7-0.8L389.9,95.3z M384.2,95.8c0.4,0,0.7,0.2,0.8,0.6c0,0.4-0.2,0.7-0.6,0.8l-1.4,0.2
			c-0.4,0-0.7-0.2-0.8-0.6c-0.1-0.4,0.2-0.7,0.6-0.8L384.2,95.8z M378.6,96.6c0.4-0.1,0.8,0.2,0.8,0.6c0.1,0.4-0.2,0.8-0.6,0.8
			l-1.4,0.2c-0.4,0.1-0.7-0.2-0.8-0.6c-0.1-0.4,0.2-0.7,0.6-0.8L378.6,96.6z"/>
		<g>
			<polygon class="st19" points="365.1,101.1 342.1,112.4 338.7,102.8 335.2,105.9 337.6,99.8 334.1,90.2 			"/>
			<polygon class="st20" points="365.1,101.1 337.6,99.8 334.1,90.2 			"/>
			<polygon class="st21" points="365.1,101.1 335.2,105.9 338.7,102.8 			"/>
			<polygon class="st20" points="365.1,101.1 338.7,102.8 342.1,112.4 			"/>
		</g>
		<g>
			<path class="st21" d="M422.5,123.3c13.3,0,24,10.7,24,24c0,3-0.6,6-1.6,8.6h0h0c-0.6,1.6-1.4,3.1-2.3,4.5l-15.8,30.8
				c-1.5,3.9-7.1,3.9-8.6,0l-15.8-30.8c-0.9-1.4-1.7-2.9-2.3-4.5l0,0l0,0c-1-2.7-1.6-5.6-1.6-8.6C398.4,134,409.2,123.3,422.5,123.3
				L422.5,123.3z"/>
			<path class="st4" d="M422.5,136.3c6.1,0,11,4.9,11,11c0,6.1-4.9,11-11,11s-11-4.9-11-11C411.5,141.2,416.4,136.3,422.5,136.3
				L422.5,136.3z"/>
		</g>
		<g>
			<path class="st1" d="M367.7,169.9c8.6,0,15.6,7,15.6,15.6c0,2-0.4,3.9-1,5.6l0,0h0c-0.4,1-0.9,2-1.5,2.9l-10.3,20
				c-1,2.6-4.6,2.5-5.6,0l-10.3-20c-0.6-0.9-1.1-1.9-1.5-2.9l0,0l0,0c-0.7-1.8-1-3.6-1-5.6C352.1,176.9,359.1,169.9,367.7,169.9
				L367.7,169.9z"/>
			<path class="st4" d="M367.7,178.4c3.9,0,7.1,3.2,7.1,7.1c0,3.9-3.2,7.1-7.1,7.1c-3.9,0-7.1-3.2-7.1-7.1
				C360.6,181.6,363.8,178.4,367.7,178.4L367.7,178.4z"/>
		</g>
		<g>
			<path class="st20" d="M224.2,137.5c5.5,0,10,4.5,10,10c0,1.3-0.3,2.5-0.7,3.6l0,0l0,0c-0.3,0.7-0.6,1.3-0.9,1.8l-6.6,12.8
				c-0.7,1.6-2.9,1.6-3.6,0l-6.6-12.8c-0.4-0.6-0.7-1.2-1-1.8l0,0l0,0c-0.4-1.1-0.7-2.3-0.7-3.6C214.2,142,218.6,137.5,224.2,137.5
				L224.2,137.5z"/>
			<path class="st4" d="M224.2,142.9c2.5,0,4.6,2,4.6,4.6c0,2.5-2,4.6-4.6,4.6c-2.5,0-4.6-2-4.6-4.6
				C219.6,145,221.6,142.9,224.2,142.9L224.2,142.9z"/>
		</g>
		<path class="st22" d="M47.3,357.3c-0.7,0-1.4-0.6-1.4-1.4c0-0.8,0.6-1.4,1.4-1.4H507c0.8,0,1.4,0.7,1.4,1.4c0,0.8-0.6,1.4-1.4,1.4
			H47.3z"/>
		<g>
			<path class="st21" d="M152.4,144.3c10.6,0,19.2,8.6,19.2,19.2c0,2.4-0.5,4.8-1.3,6.9l0,0l0,0c-0.5,1.3-1.1,2.5-1.8,3.6
				l-12.6,24.7c-1.2,3.1-5.7,3.1-6.9,0l-12.6-24.7c-0.7-1.1-1.3-2.3-1.8-3.6l0,0l0,0c-0.8-2.2-1.3-4.5-1.3-6.9
				C133.2,152.9,141.8,144.3,152.4,144.3L152.4,144.3z"/>
			<path class="st4" d="M152.4,154.7c4.8,0,8.8,3.9,8.8,8.8s-3.9,8.8-8.8,8.8c-4.9,0-8.8-3.9-8.8-8.8S147.5,154.7,152.4,154.7
				L152.4,154.7z"/>
		</g>
		<g>
			<path class="st20" d="M201,58.7h53.6c1.8,0,3.3,1.4,3.3,3.3v52.2l4.3,7.7c0.2,0.3,0.2,0.8-0.1,1.1c-0.3,0.3-0.8,0.3-1.1,0.1
				l-7.7-4.4H201c-1.8,0-3.3-1.5-3.3-3.3V62C197.7,60.2,199.2,58.7,201,58.7L201,58.7z"/>
			<g>
				<path class="st9" d="M225.5,87.4c1.1-1.1,2.9-1.1,4,0c1.1,1.1,1.1,2.9,0,4l-15.3,15.3c-1.1,1.1-2.9,1.1-4,0
					c-1.1-1.1-1.1-2.9,0-4L225.5,87.4z"/>
				<path class="st1" d="M242.6,74.3c-4.9-4.9-12.8-4.9-17.7,0c-4.9,4.9-4.9,12.8,0,17.7c4.9,4.9,12.8,4.9,17.7,0
					C247.4,87.1,247.4,79.2,242.6,74.3L242.6,74.3z"/>
				<path class="st13" d="M241.6,75.3c-2.2-2.2-5-3.3-7.8-3.3c-2.8,0-5.7,1.1-7.8,3.3c-2.2,2.2-3.3,5-3.3,7.8c0,2.8,1.1,5.6,3.3,7.8
					c2.2,2.2,5,3.2,7.8,3.2c2.8,0,5.6-1.1,7.8-3.2c2.2-2.2,3.2-5,3.2-7.8C244.8,80.3,243.7,77.5,241.6,75.3L241.6,75.3z M233.7,69.2
					c3.5,0,7.1,1.4,9.8,4.1c2.7,2.7,4.1,6.3,4.1,9.8c0,3.5-1.4,7.1-4.1,9.8c-2.7,2.7-6.3,4.1-9.8,4.1c-3.6,0-7.1-1.4-9.8-4.1
					c-2.7-2.7-4.1-6.3-4.1-9.8c0-3.6,1.4-7.1,4.1-9.8C226.6,70.6,230.2,69.2,233.7,69.2L233.7,69.2z"/>
				<g>
					<path class="st13" d="M233.5,75c-0.9,0.1-1.8,0.2-2.7,0.6c-0.9,0.3-1.6,0.8-2.3,1.4c-0.3,0.3-0.3,0.7-0.1,1
						c0.3,0.3,0.7,0.3,1,0.1c0.6-0.5,1.2-0.9,1.9-1.1c0.7-0.3,1.4-0.4,2.2-0.5c0.4,0,0.7-0.3,0.7-0.7C234.2,75.3,233.8,75,233.5,75z
						"/>
					<path class="st13" d="M226.8,80.4c-0.4-0.1-0.8,0.1-0.9,0.5c-0.1,0.4-0.2,0.8-0.2,1.1c-0.1,0.4-0.1,0.8-0.1,1.2
						c0,0.4,0.3,0.7,0.7,0.7c0.4,0,0.7-0.3,0.7-0.7c0-0.3,0-0.7,0.1-1c0.1-0.3,0.1-0.6,0.2-0.9C227.4,80.9,227.2,80.5,226.8,80.4z"
						/>
				</g>
			</g>
		</g>
		<g>
			<path class="st17" d="M440.2,262.6c-19.7,0-22.9,63.2-22.9,73.1c0,3.6,14.7,4.8,22.9,4.8c8.2,0,22.9-1.2,22.9-4.8
				C463.1,325.8,459.9,262.6,440.2,262.6L440.2,262.6z"/>
			<path class="st12" d="M417.5,270.5l9.6,5.2c-4.2,7.3-9.4,19.7-11.5,29.4l-11.6-0.8C404.1,296.9,411.2,279.6,417.5,270.5
				L417.5,270.5z"/>
			<path class="st23" d="M436.8,327.9c0,0-14.6-10.2-17.9-15.6c-0.5,4.7-0.9,9-1.1,12.8l16.8,14.3L436.8,327.9z"/>
			<path class="st16" d="M426,283l-1.6-0.3c-2.4,8.1-4.1,17.5-5.1,26.3C423.2,305,430.2,291.2,426,283L426,283z"/>
			<path class="st11" d="M417.1,299.6c0.5-1.5,1-3.1,1.5-4.6l-11.1-4.5c-0.2,0.6-0.4,1.2-0.7,1.8
				C408.9,295.5,414.1,298.4,417.1,299.6L417.1,299.6z"/>
			<path class="st12" d="M414.9,303.9l-10.7,0.5c0,6.7,9,12.9,21.6,20.2c0.7,0.4,1.3,1.1,1.8,1.8c1.5,2.4,1.3,4.3,1.6,5
				c0.3,0.5,1.3,1.6,2.1,3.1c0.1,0.2,0.4,0.3,0.6,0.2c0.5-0.2,0.8-0.8,0.9-1.1c0-0.4-0.2-2-0.2-2c1.4,0.6,4.4,3.5,5.1,4.1
				c0.7,0.6,1.9-0.7,2.1-1.6c0.3-1.2,0.4-3.5,0.2-4.1c-0.2-0.6-1.1-3.2-1.5-3.8c-0.4-0.6-2.3-2.9-3.1-3.5c-0.7-0.5-3.6-2.6-4.2-3.1
				C424.7,314.4,421,307.1,414.9,303.9L414.9,303.9z"/>
			<path class="st17" d="M406,289.9c-1,2.8,15.1,8.5,16,6.5c3.1-7,9.4-15.3,9.4-15.3c2.3-6.2,14.7-22.2,8.3-22.2
				C420.3,258.9,411.5,275.2,406,289.9L406,289.9z"/>
			<path class="st12" d="M462.9,270.5l-9.6,5.2c4.2,7.3,9.4,19.7,11.5,29.4l11.6-0.8C476.3,296.9,469.3,279.6,462.9,270.5
				L462.9,270.5z"/>
			<path class="st16" d="M454.4,283l1.6-0.3c2.4,8.1,4.1,17.5,5.2,26.3C457.3,305,450.3,291.2,454.4,283L454.4,283z"/>
			<path class="st23" d="M443.7,327.9c0,0,14.6-10.2,17.9-15.6c0.5,4.7,0.9,9,1.1,12.8l-16.8,14.3L443.7,327.9z"/>
			<path class="st11" d="M463.3,299.6c-0.5-1.5-1-3.1-1.5-4.6l11.1-4.5c0.2,0.6,0.4,1.2,0.6,1.8
				C471.5,295.5,466.3,298.4,463.3,299.6L463.3,299.6z"/>
			<path class="st12" d="M465.6,303.9l10.7,0.5c0,6.7-9,12.9-21.6,20.2c-0.7,0.4-1.3,1.1-1.7,1.8c-1.5,2.4-1.3,4.3-1.6,5
				c-0.3,0.5-1.3,1.6-2.1,3.1c-0.1,0.2-0.4,0.3-0.6,0.2c-0.5-0.2-0.9-0.8-0.9-1.1c0-0.4,0.2-2,0.2-2c-1.4,0.6-4.4,3.5-5.1,4.1
				c-0.7,0.6-1.9-0.7-2.1-1.6c-0.3-1.2-0.3-3.5-0.2-4.1c0.1-0.6,1.1-3.2,1.5-3.8c0.4-0.6,2.3-2.9,3.1-3.5c0.7-0.5,3.5-2.6,4.2-3.1
				C455.8,314.4,459.5,307.1,465.6,303.9L465.6,303.9z"/>
			<path class="st17" d="M474.4,289.9c1,2.8-15.1,8.5-16,6.5c-3.1-7-9.5-15.3-9.5-15.3c-2.3-6.2-14.7-22.2-8.3-22.2
				C460.1,258.9,469,275.2,474.4,289.9L474.4,289.9z"/>
			<path class="st13" d="M440.5,268.5c6.3,0,8.3-5.6,6.6-7c-0.5-0.4-2.4-1.9-7.8-1.9c-5.3,0-6.3,1.5-6.9,2.1
				C430.8,263.3,432.3,268.5,440.5,268.5L440.5,268.5z"/>
			<path class="st24" d="M432.6,243.1c0-0.9-0.7-0.5-1.6-0.5c-0.9,0-1.6,2.8-1.6,3.7c0,0.5,0,1.2,0,1.8c0,0.9,0.7,1.6,1.6,1.6
				c0.9,0,1.6-0.7,1.6-1.6C432.6,247.6,432.6,243.6,432.6,243.1L432.6,243.1z"/>
			<path class="st6" d="M433.3,234.7c0-2.8-1.1-5.1-2.4-5.1c-3.9,0-1.4,18.6,0,18.6c1.3,0,2.4-2.3,2.4-5.1
				C433.3,241.4,433.3,236.5,433.3,234.7L433.3,234.7z"/>
			<path class="st6" d="M446.3,234.7c0-2.8,1.1-5.1,2.4-5.1c3.9,0,1.4,18.6,0,18.6c-1.3,0-2.4-2.3-2.4-5.1
				C446.3,241.4,446.3,236.5,446.3,234.7L446.3,234.7z"/>
			<path class="st12" d="M433.4,263v-13.7l12.8,1.6V263c0,2.4-3.2,4.1-6.4,4.1C436.3,267.1,433.4,265.5,433.4,263L433.4,263z"/>
			<path class="st11" d="M446.1,260.6v-3.3l-12.5-2.1C433.6,262.7,442.2,264.5,446.1,260.6L446.1,260.6z"/>
			<path class="st6" d="M430.7,231.6c0.1-3.9,3.6-6,7-6c3.3,0,7.3,2.1,9.8,2.1c2.4,0,3.1-1.3,3.1-1.3c3.3,3.7,0.7,9-2.2,9.7
				c-0.1,3.8-2.2,5.3-2.2,5.3l-13.2-3.9L430.7,231.6z"/>
			<path class="st12" d="M431.4,248.4c0.1-0.6,0.2-3.4,0.2-4.6c0-3.6,0.8-8.9,5.9-8.9h4.6c5.1,0,5.9,5.3,5.9,8.9
				c0,1.2,0.1,4,0.2,4.6c1,7.1-3.7,12.6-8.3,12.6C435.2,261,430.5,255.5,431.4,248.4L431.4,248.4z"/>
			<path class="st6" d="M435.5,245.6c0.7,0,1.2,0.4,1.2,0.9c0,0.5-0.6,0.9-1.2,0.9c-0.7,0-1.3-0.4-1.3-0.9
				C434.2,246,434.8,245.6,435.5,245.6L435.5,245.6z"/>
			<path class="st6" d="M444.1,245.6c0.7,0,1.2,0.4,1.2,0.9c0,0.5-0.6,0.9-1.2,0.9c-0.7,0-1.3-0.4-1.3-0.9
				C442.8,246,443.4,245.6,444.1,245.6L444.1,245.6z"/>
			<path class="st15" d="M444.4,248.6c-0.8,0-1.5,0.4-1.5,0.8s0.7,0.8,1.5,0.8c0.9,0,1.5-0.3,1.5-0.8S445.3,248.6,444.4,248.6
				L444.4,248.6z"/>
			<path class="st15" d="M435.1,248.6c-0.8,0-1.5,0.4-1.5,0.8s0.7,0.8,1.5,0.8c0.9,0,1.5-0.3,1.5-0.8S436,248.6,435.1,248.6
				L435.1,248.6z"/>
			<path class="st11" d="M439.8,251.1c0.5,0,1-0.1,1.4-0.3c-0.2,0.6-0.7,1-1.4,1s-1.2-0.4-1.4-1C438.8,251,439.3,251.1,439.8,251.1
				L439.8,251.1z"/>
			<path class="st11" d="M439.8,256.9c0.5,0,1-0.1,1.4-0.3c-0.2,0.6-0.7,1-1.4,1s-1.2-0.4-1.4-1
				C438.8,256.8,439.3,256.9,439.8,256.9L439.8,256.9z"/>
			<path class="st25" d="M443.9,253.4c-0.9,1.4-2.4,2.3-4.1,2.3c-1.7,0-3.3-0.9-4.1-2.3H443.9z"/>
			<path class="st6" d="M433.6,243.3c-0.1,0-0.2,0-0.2-0.1c-0.1-0.1-0.1-0.3,0-0.5c0.4-0.4,1.1-0.7,1.8-0.7c0.7-0.1,1.4,0.1,1.8,0.4
				c0.1,0.1,0.2,0.3,0.1,0.4c-0.1,0.1-0.3,0.2-0.4,0.1c-0.4-0.3-0.9-0.4-1.4-0.3c-0.6,0-1,0.3-1.4,0.6
				C433.8,243.3,433.7,243.3,433.6,243.3L433.6,243.3z"/>
			<path class="st6" d="M446,243.3c-0.1,0-0.2,0-0.2-0.1c-0.3-0.3-0.8-0.5-1.4-0.6c-0.5-0.1-1.1,0.1-1.4,0.3
				c-0.1,0.1-0.3,0.1-0.4-0.1c-0.1-0.1-0.1-0.3,0.1-0.4c0.5-0.3,1.2-0.5,1.8-0.4c0.7,0.1,1.3,0.3,1.8,0.7c0.1,0.1,0.1,0.3,0,0.5
				C446.1,243.3,446,243.3,446,243.3L446,243.3z"/>
			<path class="st6" d="M431.5,232c-1.3,0-2.4,1.7-2.4,3.7s1.1,3.7,2.4,3.7c1.3,0,2.4-1.6,2.4-3.7S432.8,232,431.5,232L431.5,232z"
				/>
			<path class="st12" d="M447.3,250c0,0,1.3,0.2,1.8,0.3c1,0.3,1.7-0.4,1.8-1.7c0.1-0.9,0.3-2.2,0.3-3.7c0-1.2-0.7-2.2-1.5-2.2
				c-0.9,0-1.5,1-1.5,2.2L447.3,250z"/>
			<path class="st6" d="M447.9,243.1c0-0.9,0.9-1.4,0.9-0.5c0,0.5,0,4.9,0,5.5c0,1.2-0.5,1.6-0.9,1.6c0,0,0-0.7,0-1.6
				C447.9,247.6,447.9,243.6,447.9,243.1L447.9,243.1z"/>
			<path class="st12" d="M432.3,250c0,0-1.4,0.2-1.8,0.3c-1,0.3-1.7-0.4-1.8-1.7c-0.1-0.9-0.3-2.2-0.3-3.7c0-1.2,0.7-2.2,1.5-2.2
				c0.8,0,1.5,1,1.5,2.2L432.3,250z"/>
			<path class="st6" d="M431.6,243.1c0-0.9-0.9-1.4-0.9-0.5c0,0.5,0,4.9,0,5.5c0,1.2,0.5,1.6,0.9,1.6c0,0,0-0.7,0-1.6
				C431.6,247.6,431.6,243.6,431.6,243.1L431.6,243.1z"/>
			<path class="st13" d="M447.7,281.5c1.6,0,2.8,0.9,2.8,2.1c0,1.2-1.3,2.1-2.8,2.1c-1.6,0-2.8-0.9-2.8-2.1
				C444.9,282.4,446.1,281.5,447.7,281.5L447.7,281.5z"/>
			<path class="st26" d="M480.6,318.1c-8.2,0-26.8,5.1-31.9,6.9c-1.4,0.5-4.5,1.7-9,1.7c0,2-1.8,8.4-1.6,10.4
				c0.3,4.5-2.6,17.3,1.6,17.3c3.2,0,14.1,0,14.8,0c11.2,0,26.4-14.3,29.5-19.9C489.6,323.9,488,318.1,480.6,318.1L480.6,318.1z"/>
			<path class="st26" d="M399.6,318.2c8.2,0,26.1,5,31.2,6.8c1.4,0.5,4.5,1.7,9,1.7c0,2,1.8,8.4,1.6,10.4
				c-0.3,4.5,2.6,17.3-1.6,17.3c-3.2,0-13.8,0-14.5,0c-11.2,0-26.7-14.3-29.7-19.9C389.9,323.9,392.3,318.2,399.6,318.2L399.6,318.2
				z"/>
			<path class="st9" d="M462.5,328.8H418c-0.9,0-1.7-0.5-1.8-1.2l-2.8-23.3c-0.1-0.8,0.7-1.4,1.7-1.4h50.3c1,0,1.8,0.7,1.7,1.4
				l-2.9,23.3C464.1,328.3,463.4,328.8,462.5,328.8L462.5,328.8z"/>
			<path class="st23" d="M440.2,310.4c-1.2,0-2.1,0.5-2.1,1.1c0,0.6,0.9,1.1,2.1,1.1c1.2,0,2.1-0.5,2.1-1.1
				C442.4,310.9,441.4,310.4,440.2,310.4L440.2,310.4z"/>
			<path class="st10" d="M415.6,322.4l0.6,5.2c0.1,0.7,0.9,1.2,1.8,1.2h44.5c0.9,0,1.6-0.5,1.7-1.2l1.5-12.3
				C451.3,327.1,426.2,310.9,415.6,322.4L415.6,322.4z"/>
			<path class="st7" d="M398.2,316.9c10.9,0,38.1,16.8,54.5,27.3c0.2,3.4-4.3,5.3-7.5,5.3c-24.9,0-47.9-9-53.6-21.8
				C388.2,320.3,394.6,316.9,398.2,316.9L398.2,316.9z"/>
			<path class="st26" d="M441.4,339c-9.1-3.9-24,3.3-41.2-1c8.6,6.7,27.5,11.8,32.9,11.2c5.5-0.6,11.5-5.9,11.5-5.9L441.4,339z"/>
			<path class="st27" d="M454.6,354.4c0.8,0,1.1-0.5,1.2-1l2.4-10.2c0.2-1-0.7-1.5-1.7-1.5c-3.1-0.1-8.4,2-9,4.7
				c-0.7,2.9,0.9,3.1,0.9,4.5C448.4,352.7,454.6,354.4,454.6,354.4L454.6,354.4z"/>
			<path class="st13" d="M455.9,353.1c-3.3-0.9-5.5-2.3-5.5-2.3s0.4-0.4,1.3-0.5c1.4,0.7,2.9,1.3,4.6,1.8L455.9,353.1z"/>
			<path class="st9" d="M456.6,354l2.6-11.1c0.1-0.3-0.1-0.7-0.5-0.8l-1.3-0.3l-2.8,12.6h1.3C456.2,354.4,456.5,354.3,456.6,354
				L456.6,354z"/>
			<path class="st7" d="M481.4,316.9c-10.9,0-37.8,20.4-51.7,28.5c-0.2,3.4-4.1,6.7-0.9,6.7c24.9,0,54.1-9.9,59.3-24.4
				C490.8,320,485,316.9,481.4,316.9L481.4,316.9z"/>
			<path class="st27" d="M425.2,354.4c-0.6,0-1.1-0.5-1.2-1l-2.4-10.2c-0.2-1,0.7-1.5,1.7-1.5c3.1-0.1,8.4,2,9,4.7
				c0.7,2.9-0.8,3.1-0.9,4.5C431.4,352.7,425.2,354.4,425.2,354.4L425.2,354.4z"/>
			<path class="st13" d="M423.9,353.1c3.3-0.9,5.5-2.3,5.5-2.3s-0.4-0.4-1.2-0.5c-1.4,0.7-2.9,1.3-4.6,1.8L423.9,353.1z"/>
			<path class="st9" d="M423.2,354l-2.6-11.1c-0.1-0.3,0.1-0.7,0.5-0.8l1.3-0.3l2.9,12.6h-1.3C423.6,354.4,423.3,354.3,423.2,354
				L423.2,354z"/>
		</g>
		<g>
			<polygon class="st19" points="173.2,263.8 198.7,266.4 198.6,256.2 202.9,257.9 198.6,253 198.5,242.8 			"/>
			<polygon class="st20" points="173.2,263.8 198.6,253 198.5,242.8 			"/>
			<polygon class="st21" points="173.2,263.8 202.9,257.9 198.6,256.2 			"/>
			<polygon class="st20" points="173.2,263.8 198.6,256.2 198.7,266.4 			"/>
		</g>
		<g>
			<path class="st2" d="M119.9,246.7c-33.3-16.8-39.4,39.6-33.2,72c2.4,12.8,9.9,35.8,22.9,35.8c22.3,0,46.8,0,68.5,0
				c7.3,0,13-18.9,11.1-26.5c-3.8-15.4-33.7-13.9-45.5-24.7c-10.1-9.2-11.1-8.6-20.3-18.7C114.1,274.3,132.2,252.9,119.9,246.7
				L119.9,246.7z"/>
			<path class="st3" d="M119.5,246.4c-32.9-16-29.6,39.1-23.5,71.3c6,26.5,34.7,23.2,57.6,25.2c26.3,2.3,20.5,11.5,24.4,11.5
				c17.7,0,26.9-11.3,14.2-28.4c-6.2-8.3-16.2-16.8-27.9-21.6c-17.6-7.1-25.9-7.2-36.7-16.8C113.8,275.4,137,249.3,119.5,246.4
				L119.5,246.4z"/>
			<path class="st28" d="M128.9,306.7c15.1-5.1,37.8-9.5,44-9c8.1,0.7,10.2,3.3,8.9,10c-0.8,3.9-49.7,3.2-49.7,3.2L128.9,306.7z"/>
			<path class="st28" d="M186.8,307.8c-2.9-2.9-6-3-9.9-3.3c-16.7-1.1-29.3,1.8-43.3,1.8c-0.9,0-13.7-2.4-14.6-2.4
				c0,2.9-13.4,5.4-13.4,6c0,14.9,9.2,23.7,15.4,23.7c3.2,0,3.7,0,10.2,0c15.9,0,33.1-9.6,39.7-9.6c2.2,0.6,4.7,0.3,7.1-0.7
				c12.9,13.9,49.3,23.2,53.7,25.3c3.7,1.8,4.2-1.2,4.6-6.1C216.3,331.4,203.4,319.5,186.8,307.8L186.8,307.8z"/>
			<path class="st9" d="M232.4,349.8c0.6,0.8,1.6,2.3,3.1,3.7c0.4,0.4,0.9,0.4,1.3,0l13-13.5c0.4-0.5,0.4-1,0.1-1.4
				c-0.2-0.2-0.6-0.4-0.9-0.4c-3,0.4-12.7,3.7-13.7,4.8c-1,1-1.4,3.3-2.9,5.2C232.1,348.7,232.1,349.3,232.4,349.8L232.4,349.8z"/>
			<path class="st13" d="M239.1,351.2c-1.8-2.3-2-5.2-2-5.2s1-0.6,2.1-0.8c0.3,1.6,0.9,3,1.7,4.2L239.1,351.2z"/>
			<path class="st7" d="M250.7,340.2l-13.6,14.1c-0.2,0.2-0.5,0.2-0.7,0l-0.8-0.8l14.3-14.8l0.8,0.8
				C250.9,339.7,250.9,340,250.7,340.2L250.7,340.2z"/>
			<path class="st6" d="M156.8,237.4c-5.8,13.7-5.8,41.7-13.9,43.2c-15.4,2.9-10.3-10.6-12.9-15.6c-2.6-5,16.9-33.7,16.9-33.7
				s-0.7-7,2.2-7.7C160.4,230.7,156.8,237.4,156.8,237.4L156.8,237.4z"/>
			<path class="st8" d="M167.8,291.5c-0.4-0.7-4.7-4.9-6.6-5.9c-0.3-0.2-1.5-0.6-2.8-1.1c-1.7-0.6-3.5-0.7-5.3-0.2
				c-11.1,3.2-21,2.4-29.8,3.5c-3.5,0.5-4.3,3.6-5,9.5c0.8,1,2.1,1.6,3.8,1.8c9.5,1.1,27.9-7.9,32.7-9.4l4,2.3
				c0.8,0.5,1.9,0.5,2.7-0.1l1.8-1.3c1.5,0.4,3.7,1.6,3.7,1.6C167.7,292.4,168,291.7,167.8,291.5L167.8,291.5z"/>
			<path class="st5" d="M124.2,299.2c6.1-0.1,14.6-3.1,21.3-5.8c-9-0.5-18.5-4.5-22.8-4.5c0,0,0.8,4.4-3.6,8.6
				C120.1,298.3,121.9,298.8,124.2,299.2L124.2,299.2z"/>
			<path class="st6" d="M149.1,229c1.8-3.5-0.6-7.9-3.3-9.4c-8,7.3-9.9,5.1-17.6,3.7c-7.4,12.7-11.8,28.9-15.9,38.2
				c-4,9,1,13.5,7.1,13.8c12.2-1.1,4.2-22.5,4.2-22.5L149.1,229z"/>
			<path class="st28" d="M124.3,306.4c-3-0.4-4.5-2.4-5.3-2.4c0,3.3-12.8,4.8-13.4,5.9c0,0,0,0,0,0c0,2.2,0.2,4.4,0.6,6.5
				c2.2,10.9,9.5,17.2,14.8,17.2c3.2,0,3.7,0,10.2,0c15.9,0,33.1-9.6,39.7-9.6c1.2,0.3,2.4,0.4,3.7,0.2c0.3-0.6,1.4-1.4,0.9-1.8
				c-11.8-8.7-30.8-0.7-37.1,0.1c-6.9,0.9-12.6,2.3-14.4-3.9C122.2,312.6,124.8,309.3,124.3,306.4L124.3,306.4z"/>
			<path class="st10" d="M129.4,248.3c-10.9,0-26.6,26.8-24.6,61.5c0.1,1.8,20.2,1.9,28.8-3.4c-2.2-4-2.4-10.2-2-13
				c0.5-3.6,1-7.5,2.9-9.6c4.8,0.3,6.9-3.7,4.5-9.2c-1.7-3.9-3.1-6.5-4.7-15.7C133.7,255.5,131.3,253,129.4,248.3L129.4,248.3z"/>
			<path class="st29" d="M131.3,273.6c-0.9,5.6,0.7,10.2-0.5,12.6c-1.2,2.3-4.2,4.6-8.9,3.3c-0.4-4.6-1-12.7-1.6-17.7
				C123.1,269.8,131.7,271.2,131.3,273.6L131.3,273.6z"/>
			<path class="st29" d="M133.6,306.4c-1.2-2.2-2.3-5.2-3-7.9l-8.3-9.3l-6.2-20.1c-2.6,9.6-2.7,34.1,5,37.8
				C124.8,308.6,129.7,306.6,133.6,306.4L133.6,306.4z"/>
			<path class="st6" d="M159.1,236.2c-0.5,4.6-7.8,6.3-11.5,6.3c-3.7-0.1-0.7-11.1-0.7-11.1s-1.6-10.1,1.3-10.7
				C159.5,227.7,159.1,236.2,159.1,236.2L159.1,236.2z"/>
			<path class="st8" d="M126,249.5l3.7-6.9l-0.2-8.1l12.5,4.7l-5.3,12.4c-0.2,0.3-0.3,0.7-0.4,1l-2.2,6.5
				C130.9,257.3,125.7,252.1,126,249.5L126,249.5z"/>
			<path class="st5" d="M135.1,251.6l3.7-4.5l-4.3-6.5C133.1,243.1,132,247.8,135.1,251.6L135.1,251.6z"/>
			<path class="st8" d="M150.8,242.4c1-1.6,2.2-2.7,3.2-4.3c1.7-2.8,1.1-6.1-2.6-8.6l-5.6-5.8l-3.3-1.3c-1.8-1.2-3,2.2-4.2,4
				l-3.8,9.6c-2.8,4.2-0.7,13.5,5.4,17.2c1.3,0.9,2.9,0.2,4.4-1.1c1.4-1.2,2.8-2.6,3.8-4.1c0.2-0.2,0.4-0.4,0.7-0.5
				c0.5-0.1,1-0.4,1.1-0.7C150.4,246.4,149.5,244.5,150.8,242.4L150.8,242.4z"/>
			<path class="st6" d="M149.1,231.5c1.5-2.4-7.6-12.4-10.4-13c-3.3-0.8-8.2,0.8-10.5,4.8c-3.4,5.9-8.6,16.8-6.3,20.9
				c0.7,1.2,4.5-1.3,7.9-1.6c3.2-0.3,3.5-5,8.7-3.5C141.5,242,148.2,233,149.1,231.5L149.1,231.5z"/>
			<path class="st6" d="M148.6,242.4c-0.4,0.6-1,0.8-1.4,0.5c-0.4-0.3-0.4-1-0.1-1.6c0.4-0.6,1-0.8,1.5-0.5
				C149,241.1,149,241.8,148.6,242.4L148.6,242.4z"/>
			<path class="st30" d="M144.5,242.3c-0.7-0.5-1.4-0.6-1.7-0.2c-0.2,0.4,0.1,1,0.9,1.5c0.7,0.5,1.4,0.6,1.7,0.2
				C145.5,243.4,145.2,242.7,144.5,242.3L144.5,242.3z"/>
			<path class="st6" d="M137.4,220.7c2.3-3.3,7.6-2.2,10.8,0c9.4,6.2,12.6,17,8.8,14.6c-2.3-1.4-6.2,2.3-9.9,0
				C141.7,231.8,137.4,220.7,137.4,220.7L137.4,220.7z"/>
			<path class="st6" d="M151.3,239.6c-0.1,0-0.1-0.1-0.2-0.2c-0.2-0.4-0.6-0.8-1.1-1c-0.5-0.2-1-0.3-1.5-0.2c-0.2,0-0.3-0.1-0.4-0.2
				c0-0.2,0.1-0.3,0.2-0.4c0.6-0.1,1.3,0,1.9,0.3c0.6,0.3,1.1,0.8,1.4,1.3c0.1,0.2,0,0.4-0.2,0.4
				C151.4,239.6,151.3,239.6,151.3,239.6L151.3,239.6z"/>
			<path class="st25" d="M145.7,251c0.5-0.5,1-1,1.4-1.6l-2.8-1.9C144.3,247.6,143.9,249.7,145.7,251L145.7,251z"/>
			<path class="st5" d="M143.8,251.4c-0.1,0.5-0.1,0.9,0.1,1.2c0.1-0.1,0.3-0.2,0.4-0.3c0.1,0,0.1-0.1,0.1-0.1
				C144.2,251.9,143.9,251.6,143.8,251.4L143.8,251.4z"/>
			<path class="st8" d="M122.1,304.7c-3.7-2.6-4.1-37.8-4.1-37.8l10.6,3c0,0,0.3,23,1.6,31.2C130.5,303,126.2,304.4,122.1,304.7
				L122.1,304.7z"/>
			<path class="st5" d="M118.9,288.7c-0.2-2.6-0.3-5.2-0.5-7.7l10.3-2c0.1,3.6,0.3,7.8,0.5,11.7C125.8,290.6,122,289.9,118.9,288.7
				L118.9,288.7z"/>
			<path class="st10" d="M124.3,254.8c-8.2,8.7-8.8,24.5-8.5,30.2c0.1,2.1,13.3,3.3,13.4,1c0.3-3.6,2.4-13.4,4.4-16.9
				C137.1,262.8,129.5,256.5,124.3,254.8L124.3,254.8z"/>
			<path class="st8" d="M125.7,295.3c5.1-0.1,14.6,1.9,24.7,0.5c6.2-0.8,13.3,1.8,14.8,5.2c-0.8,0.3-8.7,0.3-10.4,0
				c-6.4,1.7-27.6,7.2-32.7,3.7C126.6,300.4,125.7,295.3,125.7,295.3L125.7,295.3z"/>
			<path class="st6" d="M182.7,305.2h-29.4c-0.4,0-0.8-0.3-0.8-0.8v-1.9c0-0.5,0.4-0.8,0.8-0.8h29.4c0.5,0,0.8,0.3,0.8,0.8v1.9
				C183.5,304.9,183.2,305.2,182.7,305.2L182.7,305.2z"/>
			<polygon class="st29" points="181.5,301.7 180.7,301 154.8,301 154.1,301.7 			"/>
			<path class="st6" d="M193.7,278c-0.1-0.2-0.3-0.3-0.5-0.3h-5.8c-0.3,0-0.5,0.1-0.6,0.4l-10.5,23.4c-0.1,0.2-0.1,0.4,0.1,0.6
				c0.1,0.2,0.3,0.3,0.5,0.3h5.8c0.3,0,0.5-0.1,0.6-0.4l10.5-23.4C193.9,278.4,193.8,278.1,193.7,278L193.7,278z"/>
			<path class="st7" d="M193.7,278c-0.1-0.2-0.3-0.3-0.5-0.3l0,0h-3.3h0c-0.2,0-0.4,0.1-0.5,0.4l-10.5,23.4c-0.1,0.2-0.1,0.4,0,0.6
				c0.1,0.2,0.3,0.3,0.5,0.3l0,0h3.3h0c0.2,0,0.5-0.1,0.5-0.4l10.5-23.4C193.9,278.4,193.8,278.1,193.7,278L193.7,278z"/>
			<path class="st29" d="M183,305.2h-4c-0.3,0-0.5-0.3-0.5-0.8v-1.9c0-0.5,0.2-0.8,0.5-0.8h4c0.3,0,0.5,0.3,0.5,0.8v1.9
				C183.5,304.9,183.3,305.2,183,305.2L183,305.2z"/>
			<path class="st8" d="M136.8,241.4c0,0-0.5,0.3-1.2,0.2c-0.7-0.1-1.1-0.9-0.7-2c0.3-0.7,0.7-1.9,1.2-3.1c0.4-1,1.3-1.6,2-1.2
				c0.3,0.2,1.5,0.9,0.9,2.5C138.3,239.3,138.2,241,136.8,241.4L136.8,241.4z"/>
			<path class="st7" d="M157.4,333.1c-4.7,0.3-5.1-9,2.7-8.8c8.1,0.2,8.8-1.8,12.5-2c3.7-0.2,9.6,1.1,9.7,3.4
				c0.1,2.4-4.9,6.2-9.2,6.5C170.3,332.4,157.4,333.1,157.4,333.1L157.4,333.1z"/>
		</g>
	</g>
</g>
</svg>
