<?xml version="1.0" encoding="utf-8"?>
<!-- Generator: Adobe Illustrator 26.0.2, SVG Export Plug-In . SVG Version: 6.00 Build 0)  -->
<svg version="1.1" id="Layer_1" xmlns="http://www.w3.org/2000/svg" xmlns:xlink="http://www.w3.org/1999/xlink" x="0px" y="0px"
	 viewBox="0 0 397.8 63" style="enable-background:new 0 0 397.8 63;" xml:space="preserve">
<style type="text/css">
	.st0{fill:#2EAE3E;}
	.st1{fill:#3D82AB;}
	.st2{fill:url(#SVGID_1_);}
	.st3{fill:url(#SVGID_00000011022048006205229950000000245195999410783392_);}
	.st4{fill:url(#SVGID_00000049191539262934485790000006611588516019349919_);}
	.st5{fill:url(#SVGID_00000110463270654649776350000007135650476435276695_);}
	.st6{fill:url(#SVGID_00000158743887077200472150000005396154351068626304_);}
</style>
<g>
	<path class="st0" d="M23.3,10.7c3.4,0,6.3,0.7,8.7,2.1s4.3,3.4,5.6,6s2,5.7,2,9.4c0,3.6-0.7,6.8-2,9.4s-3.2,4.6-5.6,6
		s-5.3,2.1-8.7,2.1S17,45,14.6,43.6c-2.5-1.4-4.3-3.4-5.7-6c-1.3-2.6-2-5.7-2-9.4c0-3.6,0.7-6.8,2-9.4s3.2-4.6,5.7-6
		C17,11.4,19.9,10.7,23.3,10.7z M23.3,16.5c-1.9,0-3.5,0.4-4.9,1.3s-2.4,2.2-3.1,4c-0.7,1.8-1.1,3.9-1.1,6.4s0.4,4.6,1.1,6.4
		c0.7,1.8,1.7,3.1,3.1,4s3,1.3,4.9,1.3s3.5-0.4,4.8-1.3c1.3-0.9,2.4-2.2,3.1-4s1.1-3.9,1.1-6.4s-0.4-4.6-1.1-6.4
		c-0.7-1.7-1.7-3.1-3.1-4C26.8,16.9,25.2,16.5,23.3,16.5z"/>
	<path class="st0" d="M45.9,55.9V19.4h6.3l0.5,8.2l-0.9-0.9c0.3-1.5,0.9-2.8,1.7-4s1.9-2.1,3.2-2.8c1.3-0.7,2.8-1,4.4-1
		c2.1,0,4,0.5,5.6,1.6s2.9,2.6,3.9,4.6c0.9,2,1.4,4.4,1.4,7.2s-0.5,5.2-1.4,7.2c-1,2-2.3,3.5-3.9,4.6c-1.7,1.1-3.6,1.6-5.7,1.6
		c-2.3,0-4.1-0.6-5.6-1.9c-1.5-1.3-2.5-2.9-3.1-4.8l0.7-1.1V56L45.9,55.9L45.9,55.9z M58.9,40.2c1.9,0,3.4-0.7,4.5-2
		c1.1-1.4,1.6-3.3,1.6-5.9s-0.5-4.6-1.6-5.9c-1-1.4-2.5-2-4.4-2c-1.2,0-2.3,0.3-3.2,1c-0.9,0.6-1.6,1.5-2.1,2.7s-0.8,2.6-0.8,4.3
		c0,1.6,0.2,3,0.7,4.2s1.2,2.1,2.1,2.8C56.7,39.9,57.7,40.2,58.9,40.2z"/>
	<path class="st0" d="M95.2,19.4v5.2h-20v-5.2C75.2,19.4,95.2,19.4,95.2,19.4z M87,11.5v25.2c0,1.2,0.3,2.1,1,2.7
		c0.6,0.6,1.5,0.8,2.6,0.8c0.9,0,1.7-0.1,2.3-0.4c0.6-0.3,1.2-0.6,1.7-1.1l1.1,4.7c-0.8,0.7-1.9,1.2-3.1,1.5
		c-1.2,0.4-2.5,0.6-3.9,0.6c-1.7,0-3.2-0.3-4.6-0.8c-1.3-0.5-2.4-1.3-3.1-2.5c-0.7-1.1-1.1-2.6-1.1-4.5V13.5L87,11.5z"/>
	<path class="st0" d="M103.5,15.7c-1.5,0-2.6-0.3-3.3-1c-0.7-0.6-1.1-1.6-1.1-2.8c0-1.3,0.4-2.2,1.1-2.9c0.7-0.6,1.8-1,3.3-1
		s2.6,0.3,3.3,1c0.7,0.6,1.1,1.6,1.1,2.9c0,1.2-0.4,2.2-1.1,2.8C106.1,15.4,105,15.7,103.5,15.7z M107,19.4v25.7h-7V19.4H107z"/>
	<path class="st0" d="M114.5,45.1V19.4h6.3l0.3,4.6c0.9-1.7,2-3,3.5-3.9s3.1-1.3,5-1.3c1.9,0,3.5,0.4,5,1.3s2.6,2.1,3.4,3.8
		c0.5-1.1,1.3-2.1,2.2-2.8c0.9-0.8,2-1.3,3.1-1.7c1.1-0.4,2.3-0.6,3.4-0.6c1.7,0,3.2,0.3,4.6,1c1.4,0.7,2.5,1.7,3.3,3.1
		s1.2,3.1,1.2,5.2V45h-7V29.6c0-1.9-0.4-3.2-1.2-4s-1.9-1.2-3.2-1.2c-1,0-2,0.3-2.9,0.8s-1.6,1.3-2.1,2.3s-0.7,2.3-0.7,3.8v13.8h-7
		V29.6c0-1.9-0.4-3.2-1.3-4c-0.8-0.8-1.9-1.2-3.2-1.2c-0.9,0-1.8,0.2-2.6,0.7c-0.9,0.5-1.6,1.2-2.2,2.3s-0.8,2.4-0.8,4.1v13.6H114.5
		z"/>
	<path class="st1" d="M170.8,11.2v34h-7.1v-34C163.7,11.2,170.8,11.2,170.8,11.2z M189.5,25.1v5.7h-22.2v-5.7
		C167.3,25.1,189.5,25.1,189.5,25.1z M192.9,11.2v34h-7.1v-34C185.8,11.2,192.9,11.2,192.9,11.2z"/>
	<path class="st1" d="M204.5,15.7c-1.5,0-2.6-0.3-3.3-1c-0.7-0.6-1.1-1.6-1.1-2.8c0-1.3,0.4-2.2,1.1-2.9c0.7-0.6,1.8-1,3.3-1
		s2.6,0.3,3.3,1c0.7,0.6,1.1,1.6,1.1,2.9c0,1.2-0.4,2.2-1.1,2.8C207.1,15.4,206,15.7,204.5,15.7z M208,19.4v25.7h-7V19.4H208z"/>
	<path class="st1" d="M215.5,45.1V19.4h6.1l0.5,5c0.7-1.8,1.7-3.2,3-4.1c1.3-1,3-1.4,5-1.4c0.6,0,1.1,0.1,1.6,0.2s0.9,0.2,1.2,0.4
		l-0.8,5.9c-0.3-0.1-0.8-0.2-1.3-0.3c-0.5-0.1-1.1-0.1-1.9-0.1c-1,0-2,0.2-3,0.7s-1.8,1.3-2.4,2.3c-0.6,1-0.9,2.3-0.9,3.8v13.3
		H215.5z"/>
	<path class="st1" d="M248.6,45.6c-2.7,0-5.1-0.5-7.1-1.6s-3.6-2.6-4.7-4.6c-1.1-2-1.6-4.4-1.6-7.2s0.5-5.2,1.6-7.2s2.6-3.5,4.6-4.6
		s4.2-1.6,6.8-1.6s4.8,0.5,6.6,1.6c1.8,1,3.2,2.5,4.2,4.3c1,1.8,1.4,3.9,1.4,6.1c0,0.7,0,1.3-0.1,2c0,0.6-0.1,1.2-0.2,1.6h-20.5
		v-4.9H257l-3.4,1.2c0-2.2-0.5-3.8-1.5-5S249.7,24,248,24c-1.3,0-2.4,0.3-3.4,0.9c-0.9,0.6-1.7,1.5-2.1,2.8
		c-0.5,1.2-0.7,2.8-0.7,4.6s0.3,3.3,0.8,4.5s1.3,2.1,2.3,2.6c1,0.6,2.2,0.9,3.5,0.9c1.5,0,2.7-0.3,3.7-0.9c0.9-0.6,1.6-1.4,2.2-2.4
		l5.6,2.2c-0.5,1.3-1.4,2.5-2.5,3.4c-1.1,1-2.4,1.7-4,2.2S250.4,45.6,248.6,45.6z"/>
</g>
<g>
	<linearGradient id="SVGID_1_" gradientUnits="userSpaceOnUse" x1="284.6035" y1="20.9795" x2="284.6035" y2="45.46">
		<stop  offset="0" style="stop-color:#E1B74C"/>
		<stop  offset="1" style="stop-color:#DAA520"/>
	</linearGradient>
	<path class="st2" d="M284.7,45.5c-2.2,0-4.1-0.5-5.7-1.4c-1.6-1-2.9-2.4-3.8-4.2c-0.9-1.8-1.4-4-1.4-6.6c0-2.5,0.5-4.7,1.4-6.6
		s2.3-3.2,4.1-4.2c1.8-1,3.8-1.5,6.2-1.5c2.6,0,4.6,0.5,6.2,1.4c1.6,0.9,2.8,2.4,3.8,4.4l-4.6,2c-0.4-1.3-1-2.2-2-2.8
		c-0.9-0.6-2.1-0.9-3.4-0.9c-1.3,0-2.5,0.3-3.5,1c-1,0.6-1.7,1.6-2.3,2.8c-0.5,1.2-0.8,2.7-0.8,4.4c0,1.8,0.3,3.3,0.8,4.6
		c0.5,1.2,1.3,2.2,2.2,2.8s2.2,0.9,3.7,0.9c0.8,0,1.5-0.1,2.2-0.3c0.7-0.2,1.3-0.5,1.8-0.9c0.5-0.4,0.9-0.9,1.2-1.5
		c0.3-0.6,0.4-1.3,0.4-2.1v-0.5H285v-3.6h10.5v12.5H292l-0.4-5.2l0.9,0.6c-0.5,1.6-1.5,2.8-2.8,3.7C288.4,45,286.7,45.5,284.7,45.5z
		"/>
	
		<linearGradient id="SVGID_00000176763069111380195080000017904171626877962157_" gradientUnits="userSpaceOnUse" x1="311.2065" y1="21.3398" x2="311.2065" y2="45.0996">
		<stop  offset="0" style="stop-color:#E1B74C"/>
		<stop  offset="1" style="stop-color:#DAA520"/>
	</linearGradient>
	<path style="fill:url(#SVGID_00000176763069111380195080000017904171626877962157_);" d="M311.4,21.3c2.7,0,4.8,0.6,6.3,1.9
		c1.5,1.3,2.3,3,2.3,5.2c0,2.3-0.8,4.1-2.3,5.3c-1.5,1.2-3.6,1.9-6.3,1.9L311,36h-5.1v9.1h-4.9V21.3H311.4z M310.8,32.2
		c1.4,0,2.4-0.3,3.1-0.8c0.7-0.6,1-1.4,1-2.6c0-1.2-0.3-2-1-2.6c-0.7-0.6-1.7-0.8-3.1-0.8h-5v6.9H310.8z M313.8,33.3l7.7,11.8h-5.6
		l-6.4-10.4L313.8,33.3z"/>
	
		<linearGradient id="SVGID_00000118358639257910218440000013473491161287374747_" gradientUnits="userSpaceOnUse" x1="335.4531" y1="20.9795" x2="335.4531" y2="45.46">
		<stop  offset="0" style="stop-color:#E1B74C"/>
		<stop  offset="1" style="stop-color:#DAA520"/>
	</linearGradient>
	<path style="fill:url(#SVGID_00000118358639257910218440000013473491161287374747_);" d="M335.5,21c2.4,0,4.4,0.5,6.1,1.5
		c1.7,1,3,2.4,3.9,4.2c0.9,1.8,1.4,4,1.4,6.6s-0.5,4.7-1.4,6.6c-0.9,1.8-2.2,3.2-3.9,4.2c-1.7,1-3.7,1.5-6.1,1.5
		c-2.4,0-4.4-0.5-6.1-1.5c-1.7-1-3-2.4-4-4.2c-0.9-1.8-1.4-4-1.4-6.6s0.5-4.7,1.4-6.6c0.9-1.8,2.2-3.2,4-4.2
		C331.1,21.5,333.1,21,335.5,21z M335.5,25c-1.3,0-2.5,0.3-3.4,0.9c-0.9,0.6-1.7,1.5-2.2,2.8c-0.5,1.2-0.7,2.7-0.7,4.5
		s0.2,3.2,0.7,4.5c0.5,1.2,1.2,2.1,2.2,2.8c0.9,0.6,2.1,0.9,3.4,0.9c1.3,0,2.4-0.3,3.4-0.9c0.9-0.6,1.6-1.5,2.1-2.8
		c0.5-1.2,0.7-2.7,0.7-4.5s-0.2-3.2-0.7-4.5c-0.5-1.2-1.2-2.1-2.1-2.8C337.9,25.4,336.8,25,335.5,25z"/>
	
		<linearGradient id="SVGID_00000038382030893300139760000016274536700252214712_" gradientUnits="userSpaceOnUse" x1="361.5708" y1="21.3398" x2="361.5708" y2="45.46">
		<stop  offset="0" style="stop-color:#E1B74C"/>
		<stop  offset="1" style="stop-color:#DAA520"/>
	</linearGradient>
	<path style="fill:url(#SVGID_00000038382030893300139760000016274536700252214712_);" d="M371.7,21.3v14.4c0,3.2-0.9,5.7-2.6,7.3
		c-1.7,1.6-4.2,2.4-7.6,2.4c-3.3,0-5.8-0.8-7.6-2.4c-1.7-1.6-2.6-4.1-2.6-7.3V21.3h5v14.2c0,2,0.4,3.5,1.3,4.4
		c0.9,1,2.2,1.4,3.9,1.4c1.8,0,3-0.5,3.9-1.4c0.8-1,1.3-2.4,1.3-4.4V21.3H371.7z"/>
	
		<linearGradient id="SVGID_00000110441136028171583080000015970625879080634804_" gradientUnits="userSpaceOnUse" x1="386.8066" y1="21.3398" x2="386.8066" y2="45.0996">
		<stop  offset="0" style="stop-color:#E1B74C"/>
		<stop  offset="1" style="stop-color:#DAA520"/>
	</linearGradient>
	<path style="fill:url(#SVGID_00000110441136028171583080000015970625879080634804_);" d="M387.4,21.3c1.8,0,3.4,0.3,4.7,0.9
		c1.3,0.6,2.3,1.5,3,2.6c0.7,1.1,1.1,2.5,1.1,4.1s-0.4,3-1.1,4.1c-0.7,1.1-1.7,2-3,2.6s-2.9,0.9-4.7,0.9h-5v8.4h-5V21.3H387.4z
		 M386.7,32.8c1.5,0,2.6-0.3,3.3-1c0.7-0.6,1.1-1.6,1.1-2.8c0-1.2-0.4-2.2-1.1-2.8c-0.7-0.6-1.9-0.9-3.3-0.9h-4.2v7.5H386.7z"/>
</g>
</svg>
