<?xml version="1.0" encoding="utf-8"?>
<!-- Generator: Adobe Illustrator 26.0.2, SVG Export Plug-In . SVG Version: 6.00 Build 0)  -->
<svg version="1.1" id="Illustration" xmlns="http://www.w3.org/2000/svg" xmlns:xlink="http://www.w3.org/1999/xlink" x="0px"
	 y="0px" viewBox="0 0 3710 3710" style="enable-background:new 0 0 3710 3710;" xml:space="preserve">
<style type="text/css">
	.st0{opacity:0.3;}
	.st1{fill:#91B3FA;}
	.st2{fill:#BDD0FB;}
	.st3{fill:#2EAE3E;}
	.st4{opacity:0.26;fill:#A4EAAB;}
	.st5{opacity:0.68;}
	.st6{fill:#FFFFFF;}
	.st7{opacity:0.87;fill:#FFFFFF;}
	.st8{fill:url(#SVGID_1_);}
	.st9{opacity:0.65;fill:#FFFFFF;}
	.st10{opacity:0.78;fill:#FFFFFF;}
	.st11{fill:url(#SVGID_00000123430737120946689860000007230221949568185511_);}
	.st12{fill:url(#SVGID_00000023959599461456396060000015434736834854358179_);}
	.st13{fill:#111111;}
	.st14{fill:url(#SVGID_00000176003882534144380420000004745301173235949198_);}
	.st15{fill:url(#SVGID_00000107557591757672220610000008861199086268845976_);}
	.st16{fill:#383A2F;}
	.st17{fill:url(#SVGID_00000016039062416884002690000004597192151659180177_);}
	.st18{fill:#033566;}
	.st19{fill:url(#SVGID_00000021809031816877980480000016177451499313657018_);}
	.st20{fill:url(#SVGID_00000134217901452336271050000015557882907163691677_);}
	.st21{fill:#202123;}
	.st22{fill:url(#SVGID_00000082342532835601857830000012086596028929774271_);}
	.st23{fill:url(#SVGID_00000080907955225955313750000000947344622578648708_);}
	.st24{fill:url(#SVGID_00000149373225075690947230000000647803357143312038_);}
	.st25{fill:#545454;}
	.st26{fill:#848484;}
</style>
<g>
	<g>
		<g>
			<g class="st0">
				<path class="st1" d="M2488.2,689.2c-3.7-3.9-4-10-0.4-14.2c7.7-9.2,16-18.1,24.5-26.6c4.1-4.1,10.9-4.1,15,0
					c0,0.1,0.1,0.1,0.1,0.1c4,4.2,3.9,10.8-0.2,14.9c-8.1,8.1-15.9,16.6-23.3,25.3c-3.8,4.5-10.5,5-14.9,1.3
					C2488.7,689.8,2488.4,689.5,2488.2,689.2z M2555.3,625.7c-0.3-0.3-0.6-0.6-0.8-1c-3.5-4.7-2.6-11.3,2.1-14.9
					c9.6-7.3,19.6-14.2,29.7-20.5c5-3.1,11.5-1.6,14.6,3.3c3.1,5,1.6,11.5-3.3,14.6c-9.6,6.1-19.1,12.6-28.3,19.5
					C2565,630.1,2559,629.6,2555.3,625.7z M2634.7,578.6c-0.8-0.9-1.5-1.9-2-3c-2.4-5.3,0-11.6,5.3-14c10.9-4.9,22.3-9.4,33.6-13.4
					c5.5-1.9,11.6,1,13.5,6.5c1.9,5.5-1,11.6-6.5,13.5c-10.8,3.8-21.5,8-31.9,12.7C2642.6,582.8,2637.8,581.8,2634.7,578.6z
					 M2722.8,550.4c-1.4-1.4-2.3-3.2-2.7-5.3c-1.1-5.7,2.6-11.3,8.3-12.5c11.8-2.4,23.8-4.2,35.7-5.6c5.8-0.6,11.1,3.5,11.7,9.4
					c0.7,5.8-3.5,11.1-9.4,11.7c-11.3,1.3-22.8,3-34,5.3C2728.8,554.2,2725.2,553,2722.8,550.4z M2814.8,542.6c-1.9-2-3-4.7-2.9-7.6
					c0.2-5.9,5-10.5,10.9-10.3c12,0.3,24.1,1.2,36.1,2.5c5.8,0.6,10,5.9,9.4,11.7c-0.7,5.8-5.9,10-11.7,9.4
					c-11.4-1.3-22.9-2.1-34.3-2.4C2819.3,545.8,2816.7,544.5,2814.8,542.6z M2906.3,555.3c-2.5-2.6-3.6-6.3-2.6-10
					c1.4-5.7,7.2-9.1,12.9-7.7c11.6,3,23.3,6.5,34.6,10.4c5.5,1.9,8.5,8,6.5,13.5c-1.9,5.5-8,8.5-13.5,6.5
					c-10.8-3.7-21.8-7.1-32.9-9.9C2909.4,557.7,2907.7,556.7,2906.3,555.3z M3193.7,818.2c-1-1.1-1.8-2.3-2.3-3.8
					c-3.8-10.7-8.1-21.5-12.8-31.9c-2.4-5.3,0-11.6,5.3-14c5.3-2.4,11.6,0,14,5.3c5,11,9.5,22.3,13.5,33.6c1.9,5.5-1,11.6-6.5,13.5
					C3200.8,822.3,3196.5,821.1,3193.7,818.2z M2992.7,588c-3-3.2-3.9-8.1-1.8-12.2c2.7-5.2,9.1-7.3,14.3-4.6
					c10.7,5.5,21.3,11.5,31.4,17.9c4.9,3.1,6.5,9.7,3.4,14.6c-3.1,5-9.7,6.5-14.6,3.4c-9.7-6.1-19.7-11.8-29.8-17
					C2994.4,589.5,2993.5,588.8,2992.7,588z M3153.4,735.1c-0.5-0.5-0.9-1.1-1.3-1.7c-6.1-9.6-12.7-19.1-19.6-28.2
					c-3.5-4.7-2.6-11.3,2-14.9c4.7-3.5,11.3-2.6,14.9,2c7.3,9.6,14.2,19.6,20.6,29.7c3.1,5,1.7,11.5-3.3,14.6
					C3162.4,739.4,3156.8,738.7,3153.4,735.1z M3069.6,639.1c-3.7-3.9-4-10-0.5-14.2c3.8-4.5,10.5-5.1,14.9-1.3
					c9.2,7.7,18.1,15.9,26.6,24.4c0.1,0.1,0.1,0.1,0.2,0.2c4,4.2,3.9,10.7-0.2,14.8c-4.1,4.1-10.9,4.1-15,0
					c-8.1-8.1-16.6-15.9-25.3-23.2C3070.2,639.6,3069.9,639.4,3069.6,639.1z"/>
				<path class="st1" d="M3211.9,890.4c-1.4-1.5-2.5-3.5-2.8-5.7c-0.9-5.4-1.8-10.9-2.9-16.3c-1.2-5.7,2.6-11.3,8.3-12.5
					c5.7-1.2,11.3,2.6,12.5,8.3c1.1,5.7,2.2,11.4,3.1,17.1c0.9,5.8-3,11.2-8.8,12.1C3217.7,894.1,3214.3,892.9,3211.9,890.4z"/>
			</g>
			<g class="st0">
				<path class="st1" d="M3133.8,1204.2c-3.5-3.7-4-9.5-0.8-13.7c3.3-4.4,6.6-8.9,9.7-13.4c3.3-4.8,9.9-6,14.8-2.7
					c4.8,3.4,6,9.9,2.7,14.8c-3.3,4.8-6.7,9.5-10.2,14.1c-3.5,4.7-10.2,5.6-14.9,2.1C3134.6,1205,3134.2,1204.6,3133.8,1204.2z"/>
				<path class="st1" d="M2506.3,1241.8c-3.4-3.5-6.7-7.1-10-10.8c-3.9-4.4-3.5-11.1,0.8-15c4.4-3.9,11.1-3.5,15,0.8
					c7.6,8.4,15.5,16.6,23.6,24.2c4.3,4,4.4,10.7,0.4,15c-4,4.3-10.7,4.5-15,0.4C2516.1,1251.7,2511.1,1246.8,2506.3,1241.8z
					 M2461.9,1186.8c-0.4-0.4-0.8-0.9-1.1-1.4c-6.6-9.8-12.9-20-18.7-30.3c-2.9-5.1-1.1-11.6,4.1-14.4c5.1-2.9,11.6-1.1,14.4,4.1
					c5.5,9.8,11.5,19.5,17.8,28.8c3.3,4.8,2,11.4-2.8,14.7C2471.1,1191.2,2465.4,1190.5,2461.9,1186.8z M2564.3,1291.9
					c-3.5-3.6-4-9.3-1-13.5c3.4-4.8,10-5.9,14.8-2.5c9.1,6.5,18.6,12.7,28.3,18.4c5,3,6.7,9.5,3.7,14.5c-3,5-9.5,6.7-14.5,3.7
					c-10.2-6-20.2-12.6-29.8-19.4C2565.2,1292.8,2564.7,1292.3,2564.3,1291.9z M2419.4,1106.4c-0.9-1-1.7-2.1-2.2-3.5
					c-4.3-11-8.2-22.3-11.6-33.7c-1.7-5.6,1.5-11.5,7.1-13.2c5.6-1.7,11.5,1.5,13.2,7.1c3.2,10.8,6.9,21.5,11,32
					c2.1,5.5-0.5,11.6-6,13.7C2426.9,1110.5,2422.3,1109.4,2419.4,1106.4z M2643.6,1336.2c-2.8-3-3.8-7.4-2.1-11.5
					c2.3-5.4,8.5-7.9,13.9-5.7c10.3,4.3,21,8.3,31.7,11.8c5.6,1.8,8.6,7.8,6.8,13.4c-1.8,5.6-7.8,8.6-13.4,6.8
					c-11.3-3.7-22.5-7.8-33.3-12.4C2645.8,1338,2644.6,1337.2,2643.6,1336.2z M2730.8,1361.9c-2.3-2.4-3.4-5.7-2.8-9.2
					c1-5.8,6.5-9.6,12.3-8.6c11.1,2,22.3,3.5,33.5,4.6c5.8,0.5,10.1,5.7,9.6,11.6c-0.6,5.8-5.7,10.1-11.6,9.6
					c-11.8-1.1-23.6-2.7-35.2-4.8C2734.3,1364.6,2732.3,1363.5,2730.8,1361.9z M2821.5,1368.1c-1.7-1.8-2.8-4.2-2.9-6.9
					c-0.2-5.9,4.3-10.8,10.2-11c11.2-0.5,22.6-1.4,33.7-2.8c5.8-0.7,11.1,3.4,11.8,9.2c0.7,5.8-3.4,11.1-9.2,11.8
					c-11.7,1.5-23.6,2.5-35.5,3C2826.4,1371.5,2823.5,1370.2,2821.5,1368.1z M2911.4,1354.4c-1.2-1.2-2.1-2.8-2.6-4.6
					c-1.5-5.7,1.8-11.5,7.5-13c10.9-2.9,21.7-6.3,32.3-10.1c5.5-2,11.6,0.9,13.6,6.4c2,5.5-0.9,11.6-6.4,13.6
					c-11.1,4-22.5,7.6-34,10.7C2917.9,1358.3,2913.9,1357.1,2911.4,1354.4z M2996.1,1321.2c-0.7-0.7-1.3-1.5-1.7-2.4
					c-2.7-5.2-0.7-11.6,4.4-14.3c9.9-5.2,19.7-10.9,29.2-17c4.9-3.2,11.5-1.7,14.6,3.2c3.2,4.9,1.7,11.5-3.2,14.7
					c-10,6.4-20.3,12.4-30.8,17.9C3004.4,1325.5,2999.2,1324.5,2996.1,1321.2z M3071.4,1270.3c-0.2-0.2-0.3-0.3-0.4-0.5
					c-3.8-4.5-3.2-11.2,1.2-14.9c6.3-5.4,12.5-11,18.5-16.7c2.2-2.1,4.3-4.2,6.4-6.3c4.1-4.1,10.9-4.2,15,0c4.3,4.1,4.2,10.9,0,15
					c-2.2,2.2-4.4,4.4-6.7,6.6c-6.3,6-12.8,11.9-19.4,17.5C3081.6,1274.7,3075.2,1274.3,3071.4,1270.3z"/>
				<path class="st1" d="M2395.8,1018.3c-1.5-1.5-2.5-3.5-2.8-5.7c-0.9-5.7-1.6-11.5-2.3-17.2c-0.6-5.8,3.5-11.1,9.4-11.7
					c5.8-0.6,11.1,3.5,11.7,9.4c0.6,5.5,1.3,11,2.2,16.4c0.9,5.8-3.1,11.2-8.9,12.1C2401.5,1022,2398.1,1020.7,2395.8,1018.3z"/>
			</g>
			<g>
				<path class="st1" d="M2494.4,943.5c-0.3,2.1,0.8,4.1,2.7,5.1l54.2,26.4c3.1,28,10.6,55.7,22.8,82l-32.8,50.6
					c-1.2,1.8-1,4.1,0.3,5.7l44.6,57c1.3,1.7,3.5,2.3,5.5,1.6l57-19.6c22.6,18.2,47.7,32.2,74.2,41.9l12.6,59
					c0.4,2.1,2.1,3.6,4.2,3.9l71.8,8.8c2.1,0.3,4.1-0.8,5.1-2.7l26.4-54.2c28-3.1,55.7-10.6,82-22.8l50.6,32.8
					c1.8,1.2,4.1,1,5.7-0.3l57-44.6c1.7-1.3,2.3-3.5,1.6-5.5l-19.6-57c18.2-22.6,32.2-47.7,41.9-74.1l59-12.6
					c2.1-0.4,3.6-2.1,3.9-4.2l8.8-71.8c0.3-2.1-0.8-4.1-2.7-5.1l-54.2-26.4c-3.1-28-10.6-55.7-22.8-82l32.8-50.6
					c1.1-1.8,1-4.1-0.3-5.7l-44.6-57c-1.3-1.7-3.5-2.3-5.5-1.6l-57,19.6c-22.6-18.2-47.7-32.2-74.2-41.9l-12.6-59
					c-0.4-2.1-2.1-3.6-4.2-3.9l-71.8-8.8c-2.1-0.3-4.1,0.8-5.1,2.7l-26.4,54.2c-28,3.1-55.7,10.6-82,22.8l-50.6-32.8
					c-1.8-1.1-4.1-1-5.7,0.3l-57,44.6c-1.7,1.3-2.3,3.5-1.6,5.5l19.6,57c-18.2,22.6-32.2,47.7-41.9,74.1l-59,12.6
					c-2.1,0.4-3.6,2.1-3.9,4.2L2494.4,943.5z"/>
				<g>
					<path class="st2" d="M2761.7,996.4c-24.6-25.6-27.3-66.1-5-94.9c24.6-31.7,70.4-37.5,102.1-12.9c15.4,11.9,25.2,29.1,27.6,48.4
						c2.4,19.3-2.8,38.3-14.7,53.7c-24.6,31.7-70.4,37.5-102.1,12.9C2766.8,1001.3,2764.1,998.9,2761.7,996.4z M2854.5,907.5
						c-1.9-2-3.9-3.8-6.1-5.5c-24.3-18.8-59.4-14.4-78.3,9.9c-18.8,24.3-14.4,59.4,9.9,78.3c24.3,18.8,59.4,14.4,78.3-9.9
						c9.1-11.8,13.1-26.4,11.3-41.2C2868,927.1,2862.8,916.1,2854.5,907.5z"/>
				</g>
				<g>
					<path class="st2" d="M2686.9,1070.2c-4.2-4.4-8.2-9-12-13.9l0,0c-1.2-1.5-2.4-3.1-3.5-4.6c-5.7-7.7-10.7-15.9-15-24.4
						c-0.1-0.1-0.1-0.2-0.2-0.3c-0.2-0.3-0.3-0.7-0.5-1c-0.3-0.6-0.6-1.3-1-1.9c-0.8-1.7-0.4-3.7,0.9-4.9c0.3-0.3,0.7-0.6,1.1-0.8
						c2.1-1,4.6-0.1,5.7,2c5.3,10.8,11.7,21.2,19.2,30.8c37.2,47.6,94.8,70,150.8,64.5c31.2-3,61.9-14.6,88.3-35.3
						c4.6-3.6,9.1-7.5,13.2-11.5c28.2-27.1,46.1-62.7,50.9-102c5.5-45.2-6.9-89.8-34.9-125.6c-57.9-74-165.2-87.1-239.2-29.2
						c-4.6,3.6-8.9,7.4-13.1,11.3c-18,17.3-32,38.3-41,61.6c-0.2,0.6-0.6,1.1-1,1.5c-1.1,1.1-2.9,1.5-4.5,0.9
						c-2.2-0.8-3.3-3.3-2.4-5.5c9.4-24.5,24.1-46.5,43-64.7c4.4-4.2,8.9-8.2,13.7-11.9c77.7-60.8,190.3-47,251.1,30.7
						c29.4,37.6,42.5,84.5,36.7,131.9c-5,41.3-23.8,78.7-53.4,107.1c-4.4,4.2-9,8.2-13.9,12.1c-37.6,29.4-84.5,42.5-131.9,36.7
						C2752.8,1118.6,2715.3,1099.8,2686.9,1070.2z"/>
				</g>
			</g>
		</g>
		<g>
			<g class="st0">
				<path class="st1" d="M2035.9,621.6c-2-2-2.4-5.2-1-7.8c2.8-4.8,5.7-9.6,8.8-14.3c2-3,6-3.9,9.1-1.9c3,2,3.9,6,1.9,9.1
					c-2.9,4.4-5.7,9-8.4,13.6c-1.8,3.1-5.8,4.2-8.9,2.4C2036.8,622.5,2036.3,622.1,2035.9,621.6z"/>
				<path class="st1" d="M2064.9,580.4c-2.3-2.4-2.5-6.2-0.3-8.8c6.2-7.3,12.8-14.4,19.8-21c1.5-1.4,2.9-2.8,4.4-4.2
					c2.7-2.4,6.8-2,9.3,0.4c2.4,2.7,2.3,6.8-0.4,9.3c-1.4,1.3-2.8,2.6-4.2,4c-6.6,6.3-12.9,13.1-18.8,20c-2.3,2.8-6.5,3.1-9.2,0.8
					C2065.2,580.7,2065,580.5,2064.9,580.4z M2114.9,534.3c-0.2-0.2-0.4-0.5-0.6-0.7c-2.1-2.9-1.4-7,1.5-9.1
					c9.4-6.8,19.4-13,29.5-18.5c3.2-1.7,7.2-0.5,8.9,2.6c1.7,3.2,0.6,7.2-2.6,8.9c-9.7,5.3-19.2,11.2-28.2,17.7
					C2120.8,537,2117.1,536.7,2114.9,534.3z M2174.7,501.8c-0.6-0.6-1-1.3-1.4-2.1c-1.3-3.4,0.3-7.2,3.7-8.5
					c10.8-4.2,22-7.8,33.2-10.7c3.5-0.9,7.1,1.2,8,4.7c0.9,3.5-1.2,7.1-4.7,8c-10.7,2.7-21.4,6.2-31.7,10.2
					C2179.2,504.4,2176.4,503.7,2174.7,501.8z M2240.6,485c-0.9-1-1.6-2.3-1.8-3.7c-0.5-3.6,2.1-6.9,5.7-7.3
					c11.5-1.5,23.2-2.2,34.8-2.3c3.6,0,6.6,2.9,6.6,6.5c0,3.6-2.9,6.6-6.5,6.6c-11,0-22.2,0.8-33.2,2.2
					C2244,487.2,2241.9,486.4,2240.6,485z M2308.6,484.7c-1.3-1.4-2-3.3-1.8-5.3c0.4-3.6,3.7-6.2,7.3-5.7
					c11.5,1.4,23.1,3.5,34.3,6.3c3.5,0.9,5.7,4.4,4.8,7.9c-0.9,3.5-4.4,5.7-7.9,4.8c-10.7-2.6-21.7-4.6-32.7-6
					C2311,486.5,2309.6,485.8,2308.6,484.7z M2374.6,501c-1.7-1.8-2.3-4.4-1.4-6.9c1.3-3.4,5.1-5.1,8.5-3.8
					c10.8,4.1,21.5,9,31.7,14.4c3.2,1.7,4.4,5.7,2.7,8.9c-1.7,3.2-5.7,4.4-8.9,2.7c-9.7-5.2-19.9-9.8-30.2-13.8
					C2376,502.2,2375.2,501.7,2374.6,501z M2434.6,532.9c-2.1-2.2-2.5-5.7-0.6-8.3c2.1-3,6.2-3.7,9.1-1.6c9.5,6.6,18.6,14,27.2,21.8
					c2.6,2.5,2.9,6.6,0.5,9.3c-2.4,2.7-6.6,2.9-9.3,0.5c-8.2-7.5-17-14.4-26-20.8C2435.2,533.5,2434.9,533.2,2434.6,532.9z
					 M2505.6,605.7c-0.3-0.3-0.5-0.6-0.7-0.9c-5.3-7.9-11.1-15.7-17.3-23.2c-0.9-1.1-1.9-2.2-2.8-3.3c-2.4-2.7-2.1-6.9,0.7-9.2
					c2.7-2.4,7-2.1,9.2,0.7c1,1.2,2,2.3,3,3.5c6.5,7.8,12.6,15.9,18.2,24.3c2,3,1.2,7.1-1.8,9.1
					C2511.3,608.4,2507.8,607.9,2505.6,605.7z"/>
			</g>
			<g class="st0">
				<path class="st1" d="M2079,953.2c-2.5-2.6-2.4-6.7,0.1-9.2c2.6-2.5,6.7-2.5,9.3,0.1c7.6,7.8,15.8,15.1,24.3,21.9
					c2.8,2.3,3.3,6.4,1.1,9.2c-2.3,2.8-6.4,3.3-9.2,1.1C2095.7,969.2,2087.1,961.4,2079,953.2C2079,953.3,2079,953.3,2079,953.2z
					 M2057,928c-0.2-0.2-0.3-0.3-0.5-0.5c-7-9-13.5-18.6-19.3-28.4c-1.8-3.1-0.8-7.1,2.3-9c3.1-1.9,7.1-0.8,9,2.3
					c5.6,9.3,11.8,18.4,18.4,27.1c2.2,2.9,1.7,7-1.2,9.2C2063,930.7,2059.3,930.4,2057,928z M2131.4,994.9c-2-2.1-2.4-5.4-0.9-8
					c1.9-3.1,5.9-4.1,9-2.2c9.3,5.7,19,10.8,28.9,15.3c3.3,1.5,4.7,5.4,3.2,8.7c-1.5,3.3-5.4,4.7-8.7,3.2
					c-10.4-4.7-20.5-10.1-30.3-16.1C2132.2,995.6,2131.7,995.3,2131.4,994.9z M2022.7,870.5c-0.5-0.5-0.9-1.2-1.3-1.9
					c-4.6-10.4-8.6-21.3-11.9-32.2c-1-3.5,0.9-7.1,4.4-8.2c3.5-1,7.1,0.9,8.2,4.4c3.1,10.4,7,20.7,11.3,30.7c1.5,3.3,0,7.2-3.4,8.6
					C2027.5,873.1,2024.6,872.4,2022.7,870.5z M2192.2,1022.6c-1.6-1.7-2.3-4.2-1.5-6.5c1.1-3.5,4.8-5.4,8.2-4.3
					c10.4,3.3,21,6,31.7,8c3.6,0.7,5.9,4.1,5.2,7.6c-0.7,3.6-4.1,5.9-7.6,5.2c-11.2-2.1-22.4-4.9-33.3-8.3
					C2193.9,1024,2193,1023.4,2192.2,1022.6z M2258,1034.9c-1.2-1.3-1.9-3.1-1.8-5c0.2-3.6,3.3-6.4,7-6.1
					c10.9,0.7,21.9,0.7,32.7,0.1c3.6-0.2,6.7,2.6,6.9,6.2c0.2,3.6-2.6,6.7-6.2,6.9c-11.4,0.6-22.9,0.6-34.3-0.1
					C2260.6,1036.8,2259.1,1036.1,2258,1034.9z M2324.8,1031.1c-0.9-0.9-1.5-2.1-1.7-3.4c-0.6-3.6,1.7-7,5.3-7.6
					c10.7-1.9,21.4-4.5,31.8-7.7c3.5-1.1,7.1,0.9,8.2,4.3c1.1,3.5-0.9,7.1-4.3,8.2c-10.9,3.4-22.1,6.1-33.3,8.1
					C2328.4,1033.5,2326.2,1032.7,2324.8,1031.1z"/>
				<path class="st1" d="M2003.3,806.1c-0.9-0.9-1.5-2.1-1.7-3.4c-0.9-5.5-1.7-11.1-2.3-16.6c-0.4-3.6,2.2-6.8,5.8-7.2
					c3.6-0.4,6.8,2.2,7.2,5.8c0.6,5.2,1.3,10.5,2.2,15.8c0.6,3.6-1.8,7-5.3,7.6C2007,808.4,2004.8,807.6,2003.3,806.1z"/>
			</g>
			<g>
				<path class="st1" d="M2068.2,751.5c-0.2,1.4,0.6,2.8,1.8,3.4l36.3,17.7c2,18.7,7.1,37.3,15.2,54.9l-21.9,33.9
					c-0.8,1.2-0.7,2.7,0.2,3.8l29.8,38.1c0.9,1.1,2.4,1.6,3.7,1.1l38.1-13.1c15.1,12.2,31.9,21.5,49.6,28l8.4,39.5
					c0.3,1.4,1.4,2.4,2.8,2.6l48.1,5.9c1.4,0.2,2.8-0.6,3.4-1.8l17.7-36.3c18.7-2,37.3-7.1,54.9-15.2l33.9,21.9
					c1.2,0.8,2.7,0.7,3.8-0.2l38.1-29.8c1.1-0.9,1.6-2.4,1.1-3.7l-13.1-38.1c12.2-15.1,21.5-31.9,28-49.6l39.5-8.4
					c1.4-0.3,2.4-1.4,2.6-2.8l5.9-48.1c0.2-1.4-0.6-2.8-1.8-3.4l-36.3-17.7c-2-18.7-7.1-37.3-15.2-54.9l21.9-33.9
					c0.8-1.2,0.7-2.7-0.2-3.8l-29.8-38.1c-0.9-1.1-2.4-1.6-3.7-1.1l-38.1,13.1c-15.1-12.2-31.9-21.5-49.6-28l-8.4-39.5
					c-0.3-1.4-1.4-2.4-2.8-2.6l-48.1-5.9c-1.4-0.2-2.8,0.6-3.4,1.8l-17.7,36.3c-18.7,2-37.3,7.1-54.9,15.2l-33.9-21.9
					c-1.2-0.8-2.7-0.7-3.8,0.2l-38.1,29.8c-1.1,0.9-1.6,2.4-1.1,3.7l13.1,38.1c-12.2,15.1-21.5,31.9-28,49.6l-39.5,8.4
					c-1.4,0.3-2.4,1.4-2.6,2.8L2068.2,751.5z"/>
				<g>
					<path class="st2" d="M2246.3,787.4c-7.3-7.6-12-17.4-13.3-28c-1.7-13.1,1.9-26.1,10-36.6c16.7-21.6,47.9-25.5,69.5-8.8
						c21.6,16.8,25.5,47.9,8.8,69.5c-8.1,10.5-19.8,17.1-32.9,18.8c-13.1,1.7-26.1-1.9-36.6-10
						C2249.8,790.8,2248,789.2,2246.3,787.4z M2308.5,728c-1.2-1.3-2.5-2.5-4-3.6c-15.9-12.3-38.8-9.4-51.1,6.5
						c-6,7.7-8.6,17.2-7.4,26.9c1.2,9.7,6.1,18.3,13.8,24.2l0,0c7.7,6,17.3,8.6,26.9,7.4c9.7-1.2,18.3-6.1,24.2-13.8
						C2322.2,761.1,2320.8,740.8,2308.5,728z"/>
				</g>
				<g>
					<path class="st2" d="M2194.2,838.8c-2.9-3-5.6-6.2-8.2-9.5c-5.2-6.6-9.7-13.8-13.4-21.3c-0.2-0.3-0.3-0.7-0.5-1
						c-1.3-2.6-0.6-5.7,1.4-7.6c0.5-0.5,1.1-0.9,1.7-1.2c3.3-1.6,7.2-0.2,8.7,3c3.4,7,7.6,13.7,12.4,19.9l0,0c0.3,0.3,0.5,0.7,0.8,1
						c11.6,14.5,26.4,25.6,43,32.6c9.1,3.8,18.7,6.4,28.7,7.7c0.1,0,0.2,0,0.2,0c0.3,0,0.5,0.1,0.7,0.1c29.2,3.6,58.1-4.5,81.3-22.6
						c3-2.3,5.9-4.8,8.6-7.4c18.3-17.5,29.8-40.6,32.9-66.1c3.6-29.2-4.5-58.1-22.6-81.3c-18.2-23.2-44.3-37.9-73.5-41.5
						c-29.2-3.6-58.1,4.5-81.3,22.6c-3,2.3-5.8,4.8-8.5,7.3c-11.6,11.2-20.7,24.8-26.5,39.9c-0.4,0.9-0.9,1.7-1.6,2.4
						c-1.8,1.7-4.4,2.3-6.9,1.4c-3.4-1.3-5.1-5.1-3.8-8.5c6.5-16.9,16.6-32.1,29.7-44.6c3-2.9,6.2-5.6,9.5-8.2
						c26-20.3,58.3-29.3,91-25.3c32.7,4,61.9,20.5,82.2,46.5c20.3,26,29.3,58.3,25.3,91c-3.5,28.5-16.4,54.3-36.9,73.9
						c-3,2.9-6.2,5.7-9.6,8.3C2309,889.8,2237.5,883.8,2194.2,838.8z"/>
				</g>
			</g>
		</g>
	</g>
	<g>
		
			<ellipse transform="matrix(4.385839e-02 -0.999 0.999 4.385839e-02 -118.7325 3591.1318)" class="st3" cx="1816.8" cy="1857.6" rx="1195.4" ry="1290.3"/>
		<ellipse class="st4" cx="1746.9" cy="1771.4" rx="1012.5" ry="956.5"/>
		<g class="st5">
			<path class="st6" d="M2144.9,1863.4c-0.3,210.8-14.7,421.9-51.7,629.7c-9.4,51.9-20.2,103.6-33.2,154.7
				c-13,51.1-28,101.8-46.4,151.4c-9.2,24.8-19.3,49.2-30.6,73.1c-11.3,23.9-23.9,47.3-38.6,69.5c-14.7,22.1-31.3,43.2-51.9,60.6
				c-10.3,8.6-21.5,16.3-33.9,21.9c-12.3,5.6-25.8,9.1-39.5,9.3c-13.7,0.4-27.3-2.3-39.9-7.4c-12.6-5-24.2-12.3-34.7-20.7
				c-21-16.8-38-37.7-53-59.6c-14.9-22-27.7-45.3-39.2-69.1c-11.5-23.8-21.7-48.3-31-73c-18.6-49.5-33.8-100.1-46.9-151.2
				c-13.1-51.1-24-102.8-33.5-154.6c-18.8-103.8-31.7-208.6-40.3-313.7c-8.6-105.1-12.8-210.5-13.3-316
				c-0.2-52.7,1.1-105.4,2.9-158.1c1.9-52.7,4.8-105.3,8.6-157.9c7.7-105.1,19.2-210,36.4-314.1c8.6-52,18.7-103.8,30.8-155.1
				c12.2-51.3,26.3-102.2,43.9-152c8.8-24.9,18.5-49.5,29.5-73.5c11-24,23.3-47.5,37.7-69.7c14.5-22.1,31.1-43.2,51.9-60.1
				c10.4-8.4,21.8-15.6,34.3-20.6c12.4-5,25.9-7.5,39.4-7c13.4,0.4,26.7,3.8,38.9,9.2c12.2,5.4,23.5,12.8,33.8,21.2
				c20.7,16.8,37.8,37.4,53,59.1c15.1,21.7,28.3,44.7,40.3,68.3c11.9,23.6,22.6,47.8,32.4,72.3c19.6,49,35.7,99.3,49.8,150.2
				c14,50.9,25.9,102.3,36.1,154C2127.9,1441.4,2144.4,1652.6,2144.9,1863.4z M2132.2,1863.4c0.2-105.1-3.9-210.2-12.7-314.9
				c-8.7-104.7-21.8-209.1-41.4-312.4c-9.8-51.6-21.1-102.9-34.6-153.7c-13.5-50.7-29.2-100.9-48.2-149.9
				c-9.6-24.4-19.9-48.6-31.6-72c-11.6-23.5-24.5-46.4-39.3-68c-14.8-21.5-31.5-41.9-51.6-58.6c-10-8.3-20.9-15.5-32.7-20.9
				c-11.8-5.3-24.5-8.7-37.4-9.1c-12.9-0.4-25.8,2.2-37.7,7.1c-12,4.8-23,12-33,20.2c-20,16.6-36.3,37.5-50.4,59.4
				c-14.1,22-26,45.4-36.7,69.3c-10.7,23.9-20.1,48.5-28.6,73.3c-17,49.7-30.6,100.4-42.3,151.7c-11.6,51.2-21.2,102.9-29.4,154.8
				c-16.2,103.8-26.8,208.5-33.5,313.4c-6.8,104.9-9.3,210-9.1,315.1c-0.2,105.1,3.4,210.2,11.3,315
				c7.9,104.8,20.1,209.3,38.2,312.8c9.1,51.7,19.7,103.2,32.4,154.1c12.7,50.9,27.5,101.4,45.6,150.6c9.1,24.6,19,48.8,30.3,72.5
				c11.3,23.6,23.7,46.7,38.2,68.4c14.5,21.6,31,42.1,51.1,58.3c10,8.1,20.9,15.1,32.8,19.8c11.8,4.8,24.5,7.5,37.1,7
				c12.7-0.3,25.2-3.7,36.8-9c11.6-5.3,22.3-12.7,32.1-21c19.6-16.8,35.8-37.6,50.1-59.3c28.3-43.9,49.4-92.2,67.4-141.4
				c17.9-49.3,32.5-99.8,45.1-150.7c12.6-51,23-102.5,32-154.2c18-103.5,30-208,37.9-312.8
				C2128.5,2073.6,2132.3,1968.5,2132.2,1863.4z"/>
			<path class="st6" d="M2676.6,1863.4c-0.3,67.8-4.5,135.7-13.6,202.9c-9.1,67.2-22.5,133.9-40.7,199.2
				c-36.7,130.5-92.2,256.2-167.8,369c-37.8,56.3-80.6,109.4-128.4,157.5c-47.8,48.1-100.8,91.2-158.2,127.3
				c-57.4,36.1-119.4,65.1-184.4,84.7c-65,19.5-132.8,29.6-200.7,29.6c-67.9,0.1-135.7-10-200.7-29.5
				c-65-19.6-127.1-48.6-184.5-84.6c-57.5-36.1-110.5-79.2-158.4-127.3c-47.9-48.1-90.8-101.1-128.6-157.4
				c-75.7-112.8-131.2-238.5-168.1-369.1c-18.3-65.4-31.9-132.1-41-199.3c-9-67.3-13.3-135.2-13.5-203c0.2-67.9,4.5-135.8,13.6-203
				c9.1-67.3,22.8-133.9,41.1-199.3c37-130.6,92.6-256.2,168.3-368.9c37.8-56.3,80.7-109.3,128.6-157.3
				c47.9-48,100.9-91,158.3-127.1c57.5-36,119.5-64.7,184.4-84.4c64.9-19.5,132.7-29.6,200.5-29.6c67.8,0,135.5,10.2,200.4,29.7
				c64.9,19.7,126.9,48.5,184.3,84.5c57.4,36.1,110.3,79.1,158.1,127.2c47.8,48,90.7,101,128.4,157.3
				c75.6,112.7,131.1,238.3,167.9,368.8c18.2,65.3,31.7,132,40.8,199.2C2672,1727.7,2676.3,1795.5,2676.6,1863.4z M2662,1863.4
				c0-67.2-4.1-134.4-12.8-201.1c-8.8-66.6-21.9-132.7-39.7-197.5c-35.6-129.5-89.4-254.5-163.4-366.9c-37-56.1-79-109-126.1-157.1
				c-47.1-48-99.1-91.3-155.9-127.4c-56.8-36-118.1-65-182.5-84.6c-64.4-19.5-131.6-29.6-198.8-29.7
				c-67.3,0.2-134.4,10.4-198.8,29.9c-64.3,19.7-125.6,48.7-182.4,84.7c-56.7,36.1-108.7,79.4-155.7,127.5
				c-47,48.1-88.9,101-125.9,157.1c-73.9,112.4-127.6,237.3-163,366.8c-35.4,129.6-52.5,264-52.5,398.3
				c0,134.3,17.2,268.7,52.7,398.3c35.6,129.4,89.3,254.3,163.2,366.6c36.9,56.1,78.9,108.9,125.9,157c47,48,98.9,91.2,155.7,127.3
				c56.7,35.9,118,64.8,182.3,84.5c64.3,19.5,131.3,29.8,198.5,30c67.2-0.2,134.3-10.3,198.6-29.8c64.3-19.6,125.6-48.5,182.4-84.4
				c56.8-36,108.8-79.3,155.8-127.2c47-48,89.1-100.8,126.1-156.9c74-112.3,127.9-237.2,163.6-366.7c17.8-64.8,31-130.8,39.8-197.5
				C2657.9,1997.8,2661.9,1930.6,2662,1863.4z"/>
			<path class="st6" d="M737.8,1400.2l268.9-1.8l268.9-1l537.8-0.8l537.8,0.9l268.9,1.1l268.9,1.9c0.4,0,0.6,0.3,0.6,0.6
				c0,0.4-0.3,0.6-0.6,0.6l-268.9,1.9l-268.9,1.1l-537.8,0.9l-537.8-0.8l-268.9-1l-268.9-1.8c-0.5,0-1-0.4-1-1
				C736.9,1400.6,737.3,1400.2,737.8,1400.2z"/>
			<path class="st6" d="M1049.8,949.8l190.9-1.8l190.9-1c63.6-0.4,127.3-0.4,190.9-0.5l190.9-0.3l381.9,0.9l190.9,1.1l190.9,1.9
				c0.4,0,0.6,0.3,0.6,0.6c0,0.4-0.3,0.6-0.6,0.6l-190.9,1.9l-190.9,1.1l-381.9,0.9l-190.9-0.3c-63.6-0.1-127.3-0.1-190.9-0.5
				l-190.9-1l-190.9-1.8c-0.5,0-1-0.4-0.9-1C1048.9,950.2,1049.3,949.8,1049.8,949.8z"/>
			<path class="st6" d="M644.4,1850.6l292.3-1.8l292.3-1l584.6-0.8l584.6,0.9l292.3,1.1l292.3,1.9c0.4,0,0.6,0.3,0.6,0.6
				c0,0.4-0.3,0.6-0.6,0.6l-292.3,1.9l-292.3,1.1l-584.6,0.9l-584.6-0.8l-292.3-1l-292.3-1.8c-0.5,0-1-0.4-1-1
				C643.4,1851.1,643.9,1850.6,644.4,1850.6z"/>
			<path class="st6" d="M737.8,2301l268.9-1.8l268.9-1l537.8-0.8l537.8,0.9l268.9,1.1l268.9,1.9c0.4,0,0.6,0.3,0.6,0.6
				c0,0.4-0.3,0.6-0.6,0.6l-268.9,1.9l-268.9,1.1l-537.8,0.9l-537.8-0.8l-268.9-1l-268.9-1.8c-0.5,0-1-0.4-1-1
				C736.9,2301.5,737.3,2301.1,737.8,2301z"/>
			<path class="st6" d="M2615.7,2755.8H1088.3c-1.9,0-3.4-1.5-3.4-3.4c0-1.9,1.5-3.4,3.4-3.4h1527.4c1.9,0,3.4,1.5,3.4,3.4
				C2619,2754.3,2617.5,2755.8,2615.7,2755.8z"/>
		</g>
	</g>
	<g>
		<g>
			<path class="st2" d="M2286.4,2163.4l-1277.6-26c-51.8-1.1-94.3-41.3-98.1-93l-63.1-855.9c-4.3-58.3,41.9-107.9,100.3-107.8
				l1358.6,1.8c56.2,0.1,101.4,46.3,100.3,102.4l-17.9,880.1C2387.7,2120.5,2341.8,2164.5,2286.4,2163.4z"/>
			<path class="st7" d="M927.7,1266.3l42.1,739.8c1.8,32.1,27.9,57.6,60.1,58.5l1225.9,37.8c34.5,1.1,63.3-26.3,64-60.8l16.2-795.3
				c0.7-35.1-27.8-63.8-62.9-63.4l-1284.2,17.6C953.5,1201.2,925.7,1231,927.7,1266.3z"/>
			<path class="st2" d="M1549,1872.8l691.9-6.6c7.1-0.1,12.8,5.7,12.7,12.8l-0.2,11.1c-0.1,6.9-5.8,12.4-12.7,12.3l-691.7-4.5
				c-7,0-12.6-5.8-12.5-12.8l0,0C1536.7,1878.3,1542.2,1872.9,1549,1872.8z"/>
			<path class="st2" d="M1535.4,1943.1l-0.1,4.7c-0.1,6.9,5.4,12.7,12.3,12.8l691.5,14.1c6.9,0.1,12.7-5.4,12.8-12.3l0.1-4.7
				c0.1-6.9-5.4-12.7-12.3-12.8l-691.5-14.1C1541.3,1930.6,1535.5,1936.2,1535.4,1943.1z"/>
			<path class="st2" d="M1744,2009.4l0,2.1c-0.1,6.9,5.4,12.7,12.3,12.8l481.6,9.8c6.9,0.1,12.7-5.4,12.8-12.3l0.2-9.8
				c0.1-7-5.5-12.8-12.5-12.8l-481.7-2.1C1749.8,1997,1744.2,2002.5,1744,2009.4z"/>
		</g>
		<g>
			<path class="st1" d="M2097.8,1951.7H680.5c-57.5,0-105.5-43.7-110.9-100.9l-89.3-947.7c-6.1-64.5,44-120.6,108.8-121.8
				l1506.7-28.7c62.3-1.2,113.5,49,113.5,111.3v976.4C2209.2,1901.8,2159.4,1951.7,2097.8,1951.7z"/>
			<path class="st7" d="M570.9,987.5l63.4,819.5c2.8,35.6,32.2,63.2,68,63.6l1360.3,14.3c38.3,0.4,69.6-30.6,69.6-68.9V933.7
				c0-39-32.3-70.2-71.2-68.8L637.2,913.4C598,914.7,567.9,948.5,570.9,987.5z"/>
			<path class="st1" d="M1297.1,980.1l767.1-22.9c7.9-0.2,14.4,6.1,14.4,13.9v12.4c0,7.6-6.1,13.8-13.8,13.9l-767.1,10.6
				c-7.8,0.1-14.1-6.2-14.1-13.9l0,0C1283.6,986.5,1289.6,980.3,1297.1,980.1z"/>
			<path class="st1" d="M1283.6,1058.3v5.3c0,7.7,6.2,13.9,13.9,13.9h767.1c7.7,0,13.9-6.2,13.9-13.9v-5.3c0-7.7-6.2-13.9-13.9-13.9
				h-767.1C1289.8,1044.4,1283.6,1050.6,1283.6,1058.3z"/>
			<path class="st1" d="M1516.4,1127.1v2.3c0,7.7,6.2,13.9,13.9,13.9h534.3c7.7,0,13.9-6.2,13.9-13.9v-10.9
				c0-7.8-6.4-14.1-14.2-13.9l-534.3,8.5C1522.5,1113.3,1516.4,1119.5,1516.4,1127.1z"/>
			<path class="st1" d="M1875.2,1548.2c-1.3,0-2.7-0.4-3.8-1.4l-230.3-187.1l-227,166.3c-2.6,1.9-6.2,1.4-8.2-1l-315.8-378.8
				c-35.9,31.5-268.5,235.5-299.5,262.5c-2.5,2.2-6.3,1.9-8.5-0.6c-2.2-2.5-1.9-6.3,0.6-8.5c33.6-29.4,304.1-266.6,304.1-266.6
				c1.2-1.1,2.8-1.6,4.4-1.5c1.6,0.1,3.1,0.9,4.2,2.2l316.1,379.2l226.2-165.7c2.2-1.6,5.2-1.5,7.4,0.2l229.9,186.8l123.1-107.6
				c2.5-2.2,6.3-1.9,8.5,0.6c2.2,2.5,1.9,6.3-0.6,8.5l-126.9,110.9C1878.1,1547.7,1876.7,1548.2,1875.2,1548.2z"/>
			<path class="st1" d="M1095.6,1751.9c-2.2,0-4-1.8-4-4v-12.1c0-2.2,1.8-4,4-4c2.2,0,4,1.8,4,4v12.1
				C1099.6,1750.1,1097.8,1751.9,1095.6,1751.9z M1095.6,1711.7c-2.2,0-4-1.8-4-4v-12.1c0-2.2,1.8-4,4-4c2.2,0,4,1.8,4,4v12.1
				C1099.6,1709.9,1097.8,1711.7,1095.6,1711.7z M1095.6,1671.5c-2.2,0-4-1.8-4-4v-12.1c0-2.2,1.8-4,4-4c2.2,0,4,1.8,4,4v12.1
				C1099.6,1669.7,1097.8,1671.5,1095.6,1671.5z M1095.6,1631.2c-2.2,0-4-1.8-4-4v-12.1c0-2.2,1.8-4,4-4c2.2,0,4,1.8,4,4v12.1
				C1099.6,1629.4,1097.8,1631.2,1095.6,1631.2z M1095.6,1591c-2.2,0-4-1.8-4-4V1575c0-2.2,1.8-4,4-4c2.2,0,4,1.8,4,4v12.1
				C1099.6,1589.2,1097.8,1591,1095.6,1591z M1095.6,1550.8c-2.2,0-4-1.8-4-4v-12.1c0-2.2,1.8-4,4-4c2.2,0,4,1.8,4,4v12.1
				C1099.6,1549,1097.8,1550.8,1095.6,1550.8z M1095.6,1510.6c-2.2,0-4-1.8-4-4v-12.1c0-2.2,1.8-4,4-4c2.2,0,4,1.8,4,4v12.1
				C1099.6,1508.8,1097.8,1510.6,1095.6,1510.6z M1095.6,1470.4c-2.2,0-4-1.8-4-4v-12.1c0-2.2,1.8-4,4-4c2.2,0,4,1.8,4,4v12.1
				C1099.6,1468.6,1097.8,1470.4,1095.6,1470.4z M1095.6,1430.2c-2.2,0-4-1.8-4-4v-12.1c0-2.2,1.8-4,4-4c2.2,0,4,1.8,4,4v12.1
				C1099.6,1428.4,1097.8,1430.2,1095.6,1430.2z M1095.6,1390c-2.2,0-4-1.8-4-4v-12.1c0-2.2,1.8-4,4-4c2.2,0,4,1.8,4,4v12.1
				C1099.6,1388.2,1097.8,1390,1095.6,1390z M1095.6,1349.8c-2.2,0-4-1.8-4-4v-12.1c0-2.2,1.8-4,4-4c2.2,0,4,1.8,4,4v12.1
				C1099.6,1348,1097.8,1349.8,1095.6,1349.8z M1095.6,1309.6c-2.2,0-4-1.8-4-4v-12.1c0-2.2,1.8-4,4-4c2.2,0,4,1.8,4,4v12.1
				C1099.6,1307.8,1097.8,1309.6,1095.6,1309.6z M1095.6,1269.4c-2.2,0-4-1.8-4-4v-12.1c0-2.2,1.8-4,4-4c2.2,0,4,1.8,4,4v12.1
				C1099.6,1267.6,1097.8,1269.4,1095.6,1269.4z M1095.6,1229.2c-2.2,0-4-1.8-4-4v-12.1c0-2.2,1.8-4,4-4c2.2,0,4,1.8,4,4v12.1
				C1099.6,1227.4,1097.8,1229.2,1095.6,1229.2z"/>
			<path class="st1" d="M1410.6,1759.3c-2.2,0-4-1.8-4-4v-12.1c0-2.2,1.8-4,4-4c2.2,0,4,1.8,4,4v12.1
				C1414.6,1757.5,1412.8,1759.3,1410.6,1759.3z M1410.6,1719.1c-2.2,0-4-1.8-4-4V1703c0-2.2,1.8-4,4-4c2.2,0,4,1.8,4,4v12.1
				C1414.6,1717.3,1412.8,1719.1,1410.6,1719.1z M1410.6,1678.8c-2.2,0-4-1.8-4-4v-12.1c0-2.2,1.8-4,4-4c2.2,0,4,1.8,4,4v12.1
				C1414.6,1677,1412.8,1678.8,1410.6,1678.8z M1410.6,1638.6c-2.2,0-4-1.8-4-4v-12.1c0-2.2,1.8-4,4-4c2.2,0,4,1.8,4,4v12.1
				C1414.6,1636.8,1412.8,1638.6,1410.6,1638.6z M1410.6,1598.4c-2.2,0-4-1.8-4-4v-12.1c0-2.2,1.8-4,4-4c2.2,0,4,1.8,4,4v12.1
				C1414.6,1596.6,1412.8,1598.4,1410.6,1598.4z M1410.6,1558.2c-2.2,0-4-1.8-4-4v-12.1c0-2.2,1.8-4,4-4c2.2,0,4,1.8,4,4v12.1
				C1414.6,1556.4,1412.8,1558.2,1410.6,1558.2z"/>
			<path class="st1" d="M1649.9,1767c-2.2,0-4-1.7-4-3.9l-0.4-12.1c-0.1-2.2,1.7-4.1,3.9-4.1c2.3-0.2,4.1,1.7,4.1,3.9l0.4,12.1
				c0.1,2.2-1.7,4.1-3.9,4.1C1650,1767,1650,1767,1649.9,1767z M1648.7,1726.8c-2.2,0-3.9-1.7-4-3.9l-0.4-12.1
				c-0.1-2.2,1.7-4.1,3.9-4.1c2.2-0.1,4.1,1.7,4.1,3.9l0.4,12.1c0.1,2.2-1.7,4.1-3.9,4.1C1648.8,1726.8,1648.7,1726.8,1648.7,1726.8
				z M1647.4,1686.6c-2.2,0-3.9-1.7-4-3.9l-0.4-12.1c-0.1-2.2,1.7-4.1,3.9-4.1c2.2-0.1,4.1,1.7,4.1,3.9l0.4,12.1
				c0.1,2.2-1.7,4.1-3.9,4.1C1647.5,1686.6,1647.5,1686.6,1647.4,1686.6z M1646.2,1646.4c-2.2,0-3.9-1.7-4-3.9l-0.4-12.1
				c-0.1-2.2,1.7-4.1,3.9-4.1c2.3-0.1,4.1,1.7,4.1,3.9l0.4,12.1c0.1,2.2-1.7,4.1-3.9,4.1C1646.3,1646.4,1646.2,1646.4,1646.2,1646.4
				z M1645,1606.2c-2.2,0-3.9-1.7-4-3.9l-0.4-12.1c-0.1-2.2,1.7-4.1,3.9-4.1c2.3-0.2,4.1,1.7,4.1,3.9l0.4,12.1
				c0.1,2.2-1.7,4.1-3.9,4.1C1645,1606.2,1645,1606.2,1645,1606.2z M1643.7,1566c-2.2,0-3.9-1.7-4-3.9l-0.4-12.1
				c-0.1-2.2,1.7-4.1,3.9-4.1c2.2-0.2,4.1,1.7,4.1,3.9l0.4,12.1c0.1,2.2-1.7,4.1-3.9,4.1C1643.8,1566,1643.7,1566,1643.7,1566z
				 M1642.5,1525.9c-2.2,0-3.9-1.7-4-3.9l-0.4-12.1c-0.1-2.2,1.7-4.1,3.9-4.1c2.1-0.1,4.1,1.7,4.1,3.9l0.4,12.1
				c0.1,2.2-1.7,4.1-3.9,4.1C1642.5,1525.9,1642.5,1525.9,1642.5,1525.9z M1641.2,1485.7c-2.2,0-4-1.7-4-3.9l-0.4-12.1
				c-0.1-2.2,1.7-4.1,3.9-4.1c2.2-0.1,4.1,1.7,4.1,3.9l0.4,12.1c0.1,2.2-1.7,4.1-3.9,4.1C1641.3,1485.7,1641.3,1485.7,1641.2,1485.7
				z M1640,1445.5c-2.2,0-3.9-1.7-4-3.9l-0.4-12.1c-0.1-2.2,1.7-4.1,3.9-4.1c2.3-0.1,4.1,1.7,4.1,3.9l0.4,12.1
				c0.1,2.2-1.7,4.1-3.9,4.1C1640,1445.5,1640,1445.5,1640,1445.5z M1638.7,1405.3c-2.2,0-4-1.7-4-3.9l-0.4-12.1
				c-0.1-2.2,1.7-4.1,3.9-4.1c2.3-0.2,4.1,1.7,4.1,3.9l0.4,12.1c0.1,2.2-1.7,4.1-3.9,4.1C1638.8,1405.3,1638.8,1405.3,1638.7,1405.3
				z"/>
			<path class="st1" d="M1878.2,1734c-2.2,0-4-1.8-4-4v-12.1c0-2.2,1.8-4,4-4c2.2,0,4,1.8,4,4v12.1
				C1882.3,1732.2,1880.5,1734,1878.2,1734z M1878.2,1693.8c-2.2,0-4-1.8-4-4v-12.1c0-2.2,1.8-4,4-4c2.2,0,4,1.8,4,4v12.1
				C1882.3,1692,1880.5,1693.8,1878.2,1693.8z M1878.2,1653.6c-2.2,0-4-1.8-4-4v-12.1c0-2.2,1.8-4,4-4c2.2,0,4,1.8,4,4v12.1
				C1882.3,1651.8,1880.5,1653.6,1878.2,1653.6z M1878.2,1613.4c-2.2,0-4-1.8-4-4v-12.1c0-2.2,1.8-4,4-4c2.2,0,4,1.8,4,4v12.1
				C1882.3,1611.5,1880.5,1613.4,1878.2,1613.4z M1878.2,1573.1c-2.2,0-4-1.8-4-4v-12.1c0-2.2,1.8-4,4-4c2.2,0,4,1.8,4,4v12.1
				C1882.3,1571.3,1880.5,1573.1,1878.2,1573.1z"/>
			<g>
				<path class="st1" d="M759.8,1817.5c-3.1,0-5.7-2.4-6-5.5L689,1046.6c-0.3-3.3,2.2-6.2,5.5-6.5c3.3-0.3,6.2,2.2,6.5,5.5
					l64.8,765.4c0.3,3.3-2.2,6.2-5.5,6.5C760.1,1817.5,759.9,1817.5,759.8,1817.5z"/>
				<g>
					<polygon class="st1" points="676.6,1071.8 695.3,1049.7 717.4,1068.3 715.9,1051 693.8,1032.4 675.2,1054.5 					"/>
				</g>
			</g>
			<g>
				<path class="st1" d="M2039,1781.8H711.1c-3.3,0-6-2.7-6-6s2.7-6,6-6H2039c3.3,0,6,2.7,6,6S2042.3,1781.8,2039,1781.8z"/>
				<g>
					<polygon class="st1" points="2014.9,1796.2 2035.4,1775.8 2014.9,1755.3 2032.3,1755.3 2052.8,1775.8 2032.3,1796.2 					"/>
				</g>
			</g>
		</g>
	</g>
	<g>
		<g>
			<linearGradient id="SVGID_1_" gradientUnits="userSpaceOnUse" x1="486.1724" y1="1034.5952" x2="621.8889" y2="877.0673">
				<stop  offset="0" style="stop-color:#2EA046"/>
				<stop  offset="1" style="stop-color:#02C86D"/>
			</linearGradient>
			<circle class="st8" cx="624.6" cy="873.9" r="101.2"/>
			<path class="st9" d="M544,837.1c-0.6,0-1.2-0.1-1.7-0.4c-1.9-0.9-2.6-3.2-1.7-5.1c16.1-31.9,48.3-51.7,84-51.7
				c5.7,0,11.4,0.5,17,1.5c2.1,0.4,3.4,2.4,3.1,4.4c-0.4,2.1-2.3,3.4-4.4,3.1c-5.1-0.9-10.4-1.4-15.6-1.4
				c-32.8,0-62.5,18.2-77.3,47.6C546.7,836.3,545.4,837.1,544,837.1z"/>
			
				<ellipse transform="matrix(0.9239 -0.3827 0.3827 0.9239 -287.5283 306.5348)" class="st10" cx="626.8" cy="876" rx="82.8" ry="82.8"/>
			<g>
				<path class="st3" d="M618.6,937.6v-9c-9.4-0.4-18.7-2.6-25.3-5.5c-2.4-1-3.6-3.7-2.9-6.2l2.3-8.4c0.8-3.1,4.2-4.7,7.1-3.4
					c6.5,2.7,14.6,4.9,23.3,4.9c9,0,15.8-3.1,15.8-9.4c0-5.7-5.2-9-17.8-12.4c-17.9-4.9-30.8-12.7-30.8-28.5
					c0-14.3,10.4-25.1,28.5-28.1v-9c0-2.9,2.3-5.2,5.2-5.2h5.3c2.9,0,5.2,2.3,5.2,5.2v8.1c8.7,0.3,15,1.8,20,3.6
					c2.6,0.9,4,3.7,3.3,6.3l-2.1,7.8c-0.8,3-4,4.6-6.9,3.5c-4.6-1.7-11.2-3.6-19.6-3.6c-10.7,0-13.8,4.4-13.8,8.4
					c0,4.9,6.4,8.3,20.4,12.6c19.9,6,28.2,14.3,28.2,29.1c0,13.6-10.1,25.9-29.7,29v10.1c0,2.9-2.3,5.2-5.2,5.2h-5.3
					C621,942.8,618.6,940.5,618.6,937.6z"/>
			</g>
		</g>
		<g>
			
				<ellipse transform="matrix(0.7071 -0.7071 0.7071 0.7071 -265.7771 866.149)" class="st3" cx="912.6" cy="753.9" rx="176.1" ry="176.1"/>
			<path class="st9" d="M772.2,687c-0.6,0-1.2-0.1-1.7-0.4c-1.9-0.9-2.6-3.2-1.7-5.1c27.6-54.6,82.7-88.5,143.8-88.5
				c9.8,0,19.5,0.9,29,2.6c2.1,0.4,3.4,2.4,3.1,4.4c-0.4,2.1-2.3,3.4-4.4,3.1c-9.1-1.7-18.4-2.5-27.7-2.5
				c-58.3,0-110.8,32.3-137,84.4C775,686.2,773.6,687,772.2,687z"/>
			<circle class="st10" cx="916.4" cy="757.6" r="144.1"/>
			<g>
				<path class="st3" d="M902.2,864.7v-15.7c-16.3-0.7-32.5-4.5-44-9.5c-4.1-1.8-6.2-6.4-5-10.7l4-14.6c1.5-5.4,7.3-8.1,12.4-6
					c11.4,4.8,25.5,8.6,40.6,8.6c15.7,0,27.5-5.3,27.5-16.3c0-9.9-9.1-15.7-31-21.6c-31.2-8.5-53.6-22.1-53.6-49.6
					c0-24.8,18.1-43.8,49.6-48.8v-15.7c0-5,4.1-9.1,9.1-9.1h9.2c5,0,9.1,4.1,9.1,9.1v14.1c15.1,0.6,26.1,3.2,34.9,6.3
					c4.5,1.6,6.9,6.4,5.7,11l-3.7,13.5c-1.4,5.2-7,8.1-12,6.2c-8-3-19.4-6.2-34.2-6.2c-18.7,0-24,7.7-24,14.7
					c0,8.5,11.2,14.4,35.5,21.9c34.7,10.4,49.1,24.8,49.1,50.7c0,23.7-17.6,45.1-51.8,50.4v17.5c0,5-4.1,9.1-9.1,9.1h-9.2
					C906.3,873.9,902.2,869.8,902.2,864.7z"/>
			</g>
		</g>
		<g>
			
				<linearGradient id="SVGID_00000030479001045030927890000003114637232937043072_" gradientUnits="userSpaceOnUse" x1="786.1047" y1="1435.1915" x2="1029.2124" y2="1153.0133">
				<stop  offset="0" style="stop-color:#2EA046"/>
				<stop  offset="1" style="stop-color:#02C86D"/>
			</linearGradient>
			<circle style="fill:url(#SVGID_00000030479001045030927890000003114637232937043072_);" cx="1034.1" cy="1147.3" r="181.2"/>
			<path class="st9" d="M889.6,1078.3c-0.6,0-1.2-0.1-1.7-0.4c-1.9-0.9-2.6-3.2-1.7-5.1c28.3-56.2,85-91,147.9-91
				c10,0,20.1,0.9,29.9,2.7c2.1,0.4,3.4,2.4,3.1,4.4c-0.4,2.1-2.3,3.4-4.4,3.1c-9.3-1.7-18.9-2.6-28.5-2.6
				c-60,0-114,33.3-141.1,86.9C892.4,1077.6,891,1078.3,889.6,1078.3z"/>
			
				<ellipse transform="matrix(0.7071 -0.7071 0.7071 0.7071 -509.9671 1071.0935)" class="st10" cx="1037.9" cy="1151.1" rx="148.3" ry="148.3"/>
			<g>
				<path class="st3" d="M1023.4,1261.4v-16.1c-16.8-0.7-33.5-4.6-45.3-9.8c-4.2-1.8-6.4-6.6-5.2-11l4.1-15
					c1.5-5.5,7.5-8.4,12.8-6.2c11.7,4.9,26.2,8.8,41.8,8.8c16.2,0,28.3-5.5,28.3-16.8c0-10.2-9.3-16.2-31.9-22.2
					c-32.1-8.8-55.2-22.8-55.2-51.1c0-25.5,18.7-45,51.1-50.2v-16.1c0-5.2,4.2-9.4,9.4-9.4h9.5c5.2,0,9.4,4.2,9.4,9.4v14.5
					c15.6,0.6,26.9,3.3,35.9,6.4c4.6,1.6,7.1,6.6,5.8,11.3l-3.8,13.9c-1.5,5.4-7.2,8.3-12.4,6.3c-8.3-3.1-20-6.4-35.2-6.4
					c-19.2,0-24.7,8-24.7,15.1c0,8.8,11.5,14.8,36.5,22.5c35.7,10.7,50.5,25.5,50.5,52.2c0,24.4-18.1,46.4-53.3,51.9v18.1
					c0,5.2-4.2,9.4-9.4,9.4h-9.5C1027.6,1270.8,1023.4,1266.6,1023.4,1261.4z"/>
			</g>
		</g>
		<g>
			
				<linearGradient id="SVGID_00000114789187022948402120000000462683143206768537_" gradientUnits="userSpaceOnUse" x1="1133.8396" y1="900.4213" x2="1399.4341" y2="900.4213">
				<stop  offset="0" style="stop-color:#2EA046"/>
				<stop  offset="1" style="stop-color:#02C86D"/>
			</linearGradient>
			<circle style="fill:url(#SVGID_00000114789187022948402120000000462683143206768537_);" cx="1266.6" cy="900.4" r="132.8"/>
			<path class="st9" d="M1160.8,850.9c-0.6,0-1.2-0.1-1.7-0.4c-1.9-0.9-2.6-3.2-1.7-5.1c20.9-41.5,62.8-67.3,109.3-67.3
				c7.4,0,14.8,0.7,22.1,2c2.1,0.4,3.4,2.4,3.1,4.4c-0.4,2.1-2.3,3.4-4.4,3.1c-6.8-1.2-13.7-1.9-20.7-1.9
				c-43.6,0-82.8,24.2-102.5,63.1C1163.5,850.1,1162.2,850.9,1160.8,850.9z"/>
			
				<ellipse transform="matrix(0.9912 -0.1327 0.1327 0.9912 -108.6549 176.488)" class="st10" cx="1269.4" cy="903.2" rx="108.7" ry="108.7"/>
			<g>
				<path class="st3" d="M1258.8,984v-11.8c-12.3-0.5-24.5-3.4-33.2-7.2c-3.1-1.4-4.7-4.8-3.8-8.1l3-11c1.1-4,5.5-6.1,9.4-4.5
					c8.6,3.6,19.2,6.4,30.6,6.4c11.9,0,20.7-4,20.7-12.3c0-7.4-6.8-11.9-23.3-16.3c-23.5-6.4-40.4-16.7-40.4-37.4
					c0-18.7,13.7-33,37.4-36.8v-11.8c0-3.8,3.1-6.9,6.9-6.9h6.9c3.8,0,6.9,3.1,6.9,6.9v10.6c11.4,0.5,19.7,2.4,26.3,4.7
					c3.4,1.2,5.2,4.8,4.3,8.3l-2.8,10.2c-1.1,3.9-5.3,6.1-9.1,4.6c-6.1-2.3-14.6-4.7-25.8-4.7c-14.1,0-18.1,5.8-18.1,11.1
					c0,6.4,8.4,10.9,26.8,16.5c26.2,7.8,37,18.7,37,38.2c0,17.9-13.3,34-39,38V984c0,3.8-3.1,6.9-6.9,6.9h-6.9
					C1261.9,990.9,1258.8,987.8,1258.8,984z"/>
			</g>
		</g>
	</g>
	<g>
		<path class="st13" d="M2404.3,3170.2c37.6,3.2,102.8,8.5,154.2,10.8c30.9,1.4,48.7-1.7,59-5.8c0,1.2,0,2.2-0.1,3.3
			c-0.2,5.4-4.6,9.7-10.1,10c-97.2,5.4-174.5,1.9-202,0.2c-5.7-0.3-9.1-6.5-6.2-11.4C2400.7,3174.9,2402.4,3172.5,2404.3,3170.2z"/>
		<path class="st13" d="M2558.6,3180.9c-51.4-2.3-116.7-7.5-154.2-10.8c37-45.3,154.2-75.9,154.2-75.9h33.1
			c22.8,32.8,26.1,64.1,25.8,80.9C2607.3,3179.3,2589.5,3182.3,2558.6,3180.9z"/>
		
			<linearGradient id="SVGID_00000018237091126551254870000011017072953327094716_" gradientUnits="userSpaceOnUse" x1="-573.7562" y1="3077.7329" x2="-511.9559" y2="3077.7329" gradientTransform="matrix(-1 0 0 1 2023.5299 0)">
			<stop  offset="0" style="stop-color:#FEBBBA"/>
			<stop  offset="1" style="stop-color:#FF928E"/>
		</linearGradient>
		<path style="fill:url(#SVGID_00000018237091126551254870000011017072953327094716_);" d="M2597.3,3040.2l-3.1,61.3
			c-0.3,6.6-5.3,12.2-12,13.2c-6.6,0.9-15.5,1.1-24.9-2.1c-5.8-1.9-10.1-6.8-11.1-12.7l-10.7-59.7H2597.3z"/>
		<g>
			<path class="st13" d="M2981.8,3240.9c16.3-2.9,23.7-13.9,26.8-25.6c0,0.1,0,0.2,0.1,0.3c2.4,12.3-3.2,25.1-14.3,31.2
				c-13.4,7.4-28.1,8.6-39.5,8c-12.2-0.7-23.5-7.2-29.6-17.7l-0.1-0.2C2937.3,3244.9,2954.6,3245.8,2981.8,3240.9z"/>
			<path class="st13" d="M2904.9,3059.1h27.3c41.6-1.1,67.7,112.3,76.3,156.3c-3.1,11.7-10.5,22.6-26.8,25.6
				c-27.2,4.9-44.4,4-56.7-3.9c-22.5-38.2-33.6-94.2-39-126.9C2880,3073,2904.9,3059.1,2904.9,3059.1z"/>
		</g>
		
			<linearGradient id="SVGID_00000160181080959578187080000012280488088691294117_" gradientUnits="userSpaceOnUse" x1="-920.8532" y1="3045.5066" x2="-846.9955" y2="3045.5066" gradientTransform="matrix(-1 0 0 1 2023.5299 0)">
			<stop  offset="0" style="stop-color:#FEBBBA"/>
			<stop  offset="1" style="stop-color:#FF928E"/>
		</linearGradient>
		<path style="fill:url(#SVGID_00000160181080959578187080000012280488088691294117_);" d="M2928.7,3002.1l15.2,60.3
			c1.9,7.4-1.7,15-8.5,18.6c-8.5,4.4-20.4,8.9-31.4,7.6c-5.2-0.6-9.5-4.3-11.2-9.1l-22.3-63.5L2928.7,3002.1z"/>
		<path class="st16" d="M2395.1,2207.5c0,0,135.6,847.4,133.3,852.1c0,0,37.4,17,78.3,2.2c0,0-12.3-453-41-626.7
			c0,0,231.4,404.9,304.8,606.6c0,0,38.3-4.6,70-25.4c0,0-249.1-728.8-315.6-825.8L2395.1,2207.5z"/>
		<path class="st16" d="M2560.3,2430.6c0.7,0,1.5-0.2,2.1-0.6c1.9-1.2,2.4-3.6,1.3-5.5l-50.7-80.9c-0.6-0.9-1.5-1.6-2.6-1.8
			l-37.3-7.5c-2.2-0.4-4.3,1-4.7,3.1c-0.4,2.2,1,4.3,3.1,4.7l35.6,7.2l49.7,79.5C2557.6,2430,2558.9,2430.6,2560.3,2430.6z"/>
		
			<linearGradient id="SVGID_00000160909677658438961310000009869274408547183018_" gradientUnits="userSpaceOnUse" x1="95.0259" y1="1489.7723" x2="-197.492" y2="1870.3298" gradientTransform="matrix(-1 0 0 1 2023.5299 0)">
			<stop  offset="0" style="stop-color:#FEBBBA"/>
			<stop  offset="1" style="stop-color:#FF928E"/>
		</linearGradient>
		<path style="fill:url(#SVGID_00000160909677658438961310000009869274408547183018_);" d="M1773,1377.7c0,0,91.5,20.2,147.1,45.9
			c11.1,5.1,19.9,14,24.9,25c16.6,36.5,66.4,127.9,163,171.5c-13.9,18.5-36.3,56.8-46,121.4c-58-43.2-108.1-115.2-132.1-233.5
			c0,0-18.3,9.9-41.1-1.1c-12.1-5.9-26-14.2-36.4-20.7c-10.4-6.5-18.2-16.6-21.2-28.5c-4-15.6-1.6-29.3-1.6-44.1l-47-14.6
			C1782.4,1399,1768.3,1393.7,1773,1377.7z"/>
		<path class="st18" d="M2061.9,1741.4c9.8-64.5,32.1-102.9,46-121.4c60,27.1,138,35.8,237.4,1.3c9.2-3.2,18.7-5,28.4-5.6
			c52.9-3.1,227.2-8.8,371.4,38.9c30.4,10,54.9,32.5,67.6,61.5c39,89.5,102.2,293.4-73.2,396.4c-13.5-33.4-29-60.3-42.3-80.1
			c28.2-47.6,36.6-112.7-13.5-197.4c-36.5,98.7-53.7,242.6-57.3,306.3c-1.2,21,2.5,41.9,10.7,61.3l0.9,2.1c1.8,4.1-0.7,8.9-5.1,9.9
			c-98.7,22.2-201.4,16.1-232.1,13.6c-5.5-0.5-10-4.4-11.3-9.7c-48-202.3-48.1-340.2-36.4-427.4
			C2308.4,1801.3,2171.1,1822.7,2061.9,1741.4z"/>
		<path class="st18" d="M2353.1,1796.7c2,0,3.7-1.5,4-3.5c11.3-85.2,34.2-122.3,34.5-122.7c1.2-1.9,0.6-4.3-1.2-5.5
			c-1.9-1.2-4.3-0.6-5.5,1.2c-1,1.5-24.1,38.8-35.6,125.9c-0.3,2.2,1.3,4.2,3.4,4.5C2352.8,1796.7,2352.9,1796.7,2353.1,1796.7z"/>
		
			<linearGradient id="SVGID_00000032611617839157930530000006364162405613924751_" gradientUnits="userSpaceOnUse" x1="-556.9896" y1="1735.7322" x2="-524.9877" y2="1567.7224" gradientTransform="matrix(-1 0 0 1 2023.5299 0)">
			<stop  offset="0" style="stop-color:#FEBBBA"/>
			<stop  offset="1" style="stop-color:#FF928E"/>
		</linearGradient>
		<path style="fill:url(#SVGID_00000032611617839157930530000006364162405613924751_);" d="M2596.7,1498c0,0,10,105.6,18.8,136.8
			c1.3,4.7-0.7,9.7-5,12.2c-14.9,8.5-50.7,22.4-99.7-1.6c-7.9-3.9-12.7-12.2-12.3-20.9l4.3-102L2596.7,1498z"/>
		<g>
			
				<linearGradient id="SVGID_00000146493407511197177960000016438856197616125830_" gradientUnits="userSpaceOnUse" x1="-470.3972" y1="1427.4873" x2="-652.9875" y2="1567.1968" gradientTransform="matrix(-1 0 0 1 2023.5299 0)">
				<stop  offset="0" style="stop-color:#FEBBBA"/>
				<stop  offset="1" style="stop-color:#FF928E"/>
			</linearGradient>
			<path style="fill:url(#SVGID_00000146493407511197177960000016438856197616125830_);" d="M2500.6,1362.9
				c0,0-31.9,73.4-34.1,111.9c-2.1,38.5-10.4,63.5,34.1,71.3c44.5,7.8,82-14.4,102.4-52.8c0,0,31.8-59.1,24.7-83.3
				S2500.6,1362.9,2500.6,1362.9z"/>
			<path class="st21" d="M2587.8,1465.7l-2.5-1.1c-3.2-1.4-4.6-5.3-3-8.4c6.3-12.1,18.5-39.9,2.7-46.4
				c-20.4-8.4-101.1-24.8-118.5-53.5c-16.7-27.5-1.9-63.1,20.4-73.2c1.5-0.7,3.3-0.1,4,1.3l1.9,3.5c1.3,2.4,4.8,2,5.6-0.6
				c0.7-2.5,4.1-3,5.4-0.8c5.4,8.6,19.8,22.5,58.5,29.6c54.9,10.1,91.3,32.4,92.2,70.3c0.1,2.4,2.6,3.8,4.7,2.5
				c4.1-2.5,10.5-3.6,19.2,3.7c15.1,12.7,8.9,45.6-24.2,72.7c-1.6,1.3-1.6,3.7,0.1,4.8c6,3.9,14.9,13.2-8.2,25.6
				c-24,12.8-41.8,11.8-48.7,10.6c-1.7-0.3-2.8-1.9-2.4-3.6l7.4-33.4c0.4-1.9-1-3.7-3-3.7H2587.8z"/>
			
				<linearGradient id="SVGID_00000180348832669946432930000014557470932095574432_" gradientUnits="userSpaceOnUse" x1="-493.0453" y1="1397.8876" x2="-675.6359" y2="1537.5972" gradientTransform="matrix(-1 0 0 1 2023.5299 0)">
				<stop  offset="0" style="stop-color:#FEBBBA"/>
				<stop  offset="1" style="stop-color:#FF928E"/>
			</linearGradient>
			<path style="fill:url(#SVGID_00000180348832669946432930000014557470932095574432_);" d="M2586.4,1472.7c0,0,12.2-46.9,33.2-33.7
				c21,13.1-10.9,52.5-27.8,54.3L2586.4,1472.7z"/>
		</g>
		
			<linearGradient id="SVGID_00000080886146839814390170000011916741935458528955_" gradientUnits="userSpaceOnUse" x1="1845.3239" y1="1259.932" x2="1906.8679" y2="1560.9376">
			<stop  offset="0" style="stop-color:#FEBBBA"/>
			<stop  offset="1" style="stop-color:#FF928E"/>
		</linearGradient>
		<path style="fill:url(#SVGID_00000080886146839814390170000011916741935458528955_);" d="M1905.4,1497.1c0.9,0,1.8-0.3,2.5-0.9
			c1.7-1.4,2-3.9,0.6-5.6c-3.5-4.3-34.2-41.8-46-48.5c-4.3-2.4-6.9-4.9-7.4-7.3c-0.3-1.1-0.1-2.4,0.5-3.8l36.1,7.2l20.4,17.5
			c1.7,1.4,4.2,1.3,5.6-0.4c1.4-1.7,1.2-4.2-0.4-5.6l-21.2-18.2c-0.5-0.4-1.1-0.7-1.8-0.9l-39.9-8c-1.6-0.3-3.2,0.3-4.1,1.7
			c-2.9,4.3-3.9,8.4-3,12.3c1.1,4.7,4.8,8.7,11.3,12.4c8.9,5,34.6,35.3,43.7,46.6C1903.1,1496.6,1904.3,1497.1,1905.4,1497.1z"/>
		
			<linearGradient id="SVGID_00000012470850130039621580000013310759158071529360_" gradientUnits="userSpaceOnUse" x1="2593.1506" y1="2121.3359" x2="2593.1506" y2="1790.1185">
			<stop  offset="0" style="stop-color:#FEBBBA"/>
			<stop  offset="1" style="stop-color:#FF928E"/>
		</linearGradient>
		<path style="fill:url(#SVGID_00000012470850130039621580000013310759158071529360_);" d="M2587.9,2163.3l-141.2,1.7l49.4-46.5
			c12.3-11.6,31-13.4,45.2-4.2c8.3,5.4,17.3,12.7,25.1,22.4c0,0,88.1-32.2,130.8-104.2c13.3,19.8,28.8,46.6,42.3,80.1
			C2701.3,2135.1,2651.7,2152.7,2587.9,2163.3z"/>
		<g>
			<path class="st25" d="M2572.7,2181.5c-0.3,0-0.5,0-0.8,0l-358.4-0.4c-8.9,0-16-7.1-16-15.9c0-8.8,7.2-16,16.1-15.9l358.4,0.4
				c8.9,0,16,7.1,16,15.9C2587.9,2174.2,2581.2,2181.1,2572.7,2181.5z"/>
			<path class="st26" d="M1891.4,1859.6h298.5c22,0,42.1,12.6,51.4,32.3l138,289.5h-370.9c-14.2,0-26.9-8.6-32.2-21.6l-107-267.9
				C1863,1876.4,1874.5,1859.6,1891.4,1859.6z"/>
			
				<ellipse transform="matrix(0.9497 -0.313 0.313 0.9497 -526.3149 752.1591)" class="st1" cx="2079.2" cy="2015.2" rx="23.5" ry="37.9"/>
		</g>
	</g>
</g>
</svg>
