<?xml version="1.0" encoding="utf-8"?>
<!-- Generator: Adobe Illustrator 26.0.2, SVG Export Plug-In . SVG Version: 6.00 Build 0)  -->
<svg version="1.1" id="Layer_1" xmlns="http://www.w3.org/2000/svg" xmlns:xlink="http://www.w3.org/1999/xlink" x="0px" y="0px"
	 viewBox="0 0 1920 1080" style="enable-background:new 0 0 1920 1080;" xml:space="preserve">
<style type="text/css">
	.st0{clip-path:url(#SVGID_00000029744446110290598140000004893272786690076601_);}
	.st1{fill:#A6ECFF;}
	.st2{fill:#033566;}
	.st3{fill:#18A6DE;}
	.st4{fill:#0970B0;}
	.st5{fill:url(#Path_62_00000098212352879109355080000011269751022418623665_);}
	.st6{fill:url(#Path_63_00000048464372643716580550000006483433354212226982_);}
	.st7{fill:#FFFFFF;}
	.st8{fill:#E8385A;}
	.st9{fill:#08325B;}
	.st10{fill:#2EAE3E;}
	.st11{fill:#727272;}
</style>
<g>
	<defs>
		<rect id="SVGID_1_" width="1920" height="1080"/>
	</defs>
	<clipPath id="SVGID_00000178883063115079404610000001435371864172555157_">
		<use xlink:href="#SVGID_1_"  style="overflow:visible;"/>
	</clipPath>
	<g id="_10x-roi-visual-v1" style="clip-path:url(#SVGID_00000178883063115079404610000001435371864172555157_);">
		<g id="Layer_2_00000183242756186420475580000000010908775851144382_" transform="translate(-6.618 36.129)">
			<g id="Layer_3">
				<path id="Path_55" class="st1" d="M1022.9-21.7H987l69.7,102.3l-48.7,69.9H490.6v28.6h532.2l68.4-98.2L1022.9-21.7z"/>
				<path id="Path_56" class="st1" d="M489.9,150.6L303.6,337l20.3,20.3l206.6-206.6L489.9,150.6z"/>
				<path id="Path_57" class="st2" d="M1022.9,832.3H987l69.7,102.3l-48.7,69.9H490.6v28.6h532.2l68.4-98.2L1022.9,832.3z"/>
				<path id="Path_58" class="st2" d="M489.9,1033.2L303.6,846.8l20.3-20.3l206.6,206.6L489.9,1033.2z"/>
				<path id="Path_59" class="st3" d="M1096.3,244.4h-35.9l69.7,102.3l-48.7,69.9H548.9v28.6h547.4l68.4-98.2L1096.3,244.4z"/>
				<path id="Path_60" class="st4" d="M1096.3,557.3h-35.9l69.7,102.3l-48.7,69.9H526.1v28.6h570.2l68.4-98.2L1096.3,557.3z"/>
				<path id="Path_61" class="st2" d="M274.7,571.3v343.5c0.5,0,1.1,0,1.6,0V569.7L274.7,571.3z"/>
				
					<linearGradient id="Path_62_00000176026024429645423800000006192384531117653683_" gradientUnits="userSpaceOnUse" x1="24.4047" y1="776.6722" x2="24.4047" y2="1311.5999" gradientTransform="matrix(1.45 0 0 -1.456 240.0608 2057.4255)">
					<stop  offset="0" style="stop-color:#FF5572"/>
					<stop  offset="1" style="stop-color:#FFBC00"/>
				</linearGradient>
				<path id="Path_62" style="fill:url(#Path_62_00000176026024429645423800000006192384531117653683_);" d="M276.2,569.7h-1.6v1.6
					L276.2,569.7z"/>
				
					<linearGradient id="Path_63_00000023965462596038190300000017417466983388648608_" gradientUnits="userSpaceOnUse" x1="24.4047" y1="775.6183" x2="24.4047" y2="1310.6582" gradientTransform="matrix(1.45 0 0 -1.456 240.0608 2055.9695)">
					<stop  offset="0" style="stop-color:#FF5572"/>
					<stop  offset="1" style="stop-color:#FFBC00"/>
				</linearGradient>
				<path id="Path_63" style="fill:url(#Path_63_00000023965462596038190300000017417466983388648608_);" d="M274.7,568.1v1.6h1.6
					L274.7,568.1z"/>
				<path id="Path_64" class="st1" d="M276.2,569.7V216.8c-0.5,0-1.1,0-1.6,0v351.3L276.2,569.7L276.2,569.7z"/>
				<path id="Path_65" class="st3" d="M623.6,569.7c0-1.3,0.1-2.6,0.1-3.9c0.1-91.2-35.6-178.9-99.5-244L276.2,569.7H623.6z"/>
				<path id="Path_66" class="st4" d="M276.2,569.7l244,244c65.3-64.5,102.4-152.2,103.3-244H276.2z"/>
				<path id="Path_67" class="st1" d="M276.2,569.7l247.9-247.9c-65.2-66.8-154.5-104.7-247.9-105V569.7z"/>
				<path id="Path_68" class="st2" d="M276.2,569.7v345.1c91.5-0.3,179.1-36.6,244-101.1L276.2,569.7z"/>
				
					<image style="overflow:visible;opacity:0.12;enable-background:new    ;" width="870" height="870" id="Rectangle_93" xlink:href="71B9469B29591147.png"  transform="matrix(0.6459 0 0 0.6459 0 291.7164)">
				</image>
				<circle id="Ellipse_17" class="st7" cx="274.7" cy="565.8" r="238.1"/>
				<path id="Path_69" class="st8" d="M222.8,470.8c0-5,0.1-10.2,0.1-15.6c-6.2,5.9-13.9,10-22.3,11.8l-2.3-20.1
					c9.6-1.1,24-8.8,28.5-15.7h19.4v93.6h-23.5L222.8,470.8z"/>
				<path id="Path_70" class="st8" d="M263.6,477.9c0-31.9,13.3-48.2,38.8-48.2c25.5,0,38.8,16.3,38.8,48.2s-13.3,48.2-38.8,48.2
					C277,526.1,263.6,509.8,263.6,477.9z M317.3,477.9c0-21-4.4-29.2-14.7-29.2s-14.8,8.2-14.8,29.2c0,21,4.4,29.2,14.7,29.2
					S317.2,498.9,317.3,477.9L317.3,477.9z"/>
				<path id="Path_71" class="st8" d="M188.2,564.9h5.8l0.2,4.3c1.4-3,4.5-4.9,7.8-4.7c3.3-0.2,6.3,1.7,7.7,4.7c1.5-3,4.7-4.8,8-4.7
					c4.6,0,8.5,2.8,8.4,8.6l0,15.5h-6.4v-14.2c0-3.4-1.7-4.8-4.1-4.8c-2.9,0-5.2,2.2-5.2,6.3v12.7H204v-14.2c0-3.4-1.7-4.8-4.1-4.8
					s-5.2,1.8-5.2,6.5v12.5h-6.5L188.2,564.9z"/>
				<path id="Path_72" class="st8" d="M255.7,576.8c0,7.7-5,12.3-12.1,12.3c-7.1,0-12.1-4.6-12.1-12.3c0-7.7,5-12.3,12.1-12.3
					C250.7,564.5,255.7,569.1,255.7,576.8z M238,576.8c0,5,2.1,7.5,5.6,7.5s5.6-2.5,5.6-7.5c0-5-2.1-7.5-5.6-7.5
					S238,571.8,238,576.8L238,576.8z"/>
				<path id="Path_73" class="st8" d="M283.7,573.1v15.5h-6.5v-13.7c0-4-1.8-5.3-4.3-5.3c-2.7,0-5.4,1.8-5.4,6.5v12.5h-6.5v-23.6
					h5.8l0.2,4.4c1.4-3.2,4.6-5.1,8-4.9C280.1,564.5,283.7,567.4,283.7,573.1z"/>
				<path id="Path_74" class="st8" d="M306.6,587.1c-1.9,1.3-4.1,2-6.4,1.9c-4.8,0-8-1.9-8-7.1v-12.2h-4.4v-4.8h4.3v-5.4l6.5-1.8
					v7.2h7.6v4.8h-7.6v11.1c-0.2,1.6,0.9,3,2.5,3.2c0.3,0,0.5,0,0.8,0c1.3,0.1,2.7-0.4,3.7-1.3L306.6,587.1z"/>
				<path id="Path_75" class="st8" d="M310.9,554.6h6.5V569c1.4-2.9,4.4-4.7,7.6-4.5c4.9,0,8.5,2.9,8.5,8.6v15.5H327V575
					c0-4.1-1.8-5.4-4.2-5.4c-2.8,0-5.4,1.8-5.4,6.5v12.5h-6.5L310.9,554.6z"/>
				<path id="Path_76" class="st8" d="M338.3,584.2l3.7-3.8c1.7,2.5,4.5,4,7.5,3.9c2.5,0,4.1-0.7,4.1-2.3c0-1-0.5-1.8-2.6-2.2
					l-4.2-0.9c-5.5-1.1-7.6-3.4-7.6-7c0-3.8,3.5-7.5,10.4-7.5c4.7,0,8.3,1.5,10.3,4.4l-3.9,3.8c-1.4-2.1-3.7-3.4-6.2-3.4
					c-2.7,0-4.2,0.9-4.2,2.3c0,1,0.8,1.7,3.1,2.2l4.8,1c4.7,0.9,6.5,3.3,6.5,6.5c0,4.5-3.7,7.8-10.5,7.8
					C344.8,589.1,340.7,587.3,338.3,584.2z"/>
				<path id="Path_77" class="st9" d="M163.6,657.9h-12.7V689h-10.2v-31.1H128V650h35.6L163.6,657.9z"/>
				<path id="Path_78" class="st9" d="M193,674.2c0,9.7-6.4,15.4-15.7,15.4c-9.3,0-15.6-5.7-15.6-15.4s6.4-15.4,15.6-15.4
					C186.5,658.9,193,664.6,193,674.2z M171.8,674.2c0,5.8,2,8.2,5.5,8.2s5.5-2.4,5.5-8.2c0-5.8-2.1-8.2-5.5-8.2
					S171.8,668.5,171.8,674.2L171.8,674.2z"/>
				<path id="Path_79" class="st9" d="M220,687.4c-2.5,1.5-5.4,2.3-8.3,2.2c-6.7,0-10.9-2.6-11-9.4v-13.5h-5.1v-7.2h5.1v-6.6l10-2.8
					v9.4h8.8v7.2h-8.8v11.9c0,2.8,1.4,4,3.9,4c1.5,0.1,3.1-0.4,4.3-1.3L220,687.4z"/>
				<path id="Path_80" class="st9" d="M255,683l-0.6,5.7c-1.4,0.6-2.8,0.9-4.3,0.8c-3.7,0-6.6-1.4-7.5-4.4c-1.7,3-5.7,4.4-9.6,4.4
					c-6.1,0-9.9-2.8-9.9-8.2c0-4.3,2.5-7.1,8-8.2l10.2-2.1v-0.8c0-2.8-1.7-4.5-4.3-4.5c-2.6,0-4.5,1.1-5.3,4.4l-8.5-2
					c1.1-5.7,5.8-9.3,14.4-9.3s13.6,3.9,13.6,11.2v10.8c0,1.6,0.7,2.3,2.1,2.3C253.8,683.2,254.4,683.2,255,683L255,683z
					 M241.2,678.1v-1.7l-4.8,1c-2.4,0.5-3.5,1.3-3.5,3.1c0,1.8,1.4,2.6,3.2,2.6c2.6,0.2,4.9-1.7,5.1-4.3
					C241.2,678.6,241.2,678.3,241.2,678.1L241.2,678.1z"/>
				<path id="Path_81" class="st9" d="M268.8,679c0,2.6,0.8,3.6,2.8,3.6c1,0,2-0.1,2.9-0.5l-0.6,6c-1.9,1-4,1.5-6.1,1.5
					c-6.3,0-9-2.8-9-9.3V647h10L268.8,679z"/>
				<path id="Path_82" class="st9" d="M312.5,689.6c-11.9,0-19.1-7.5-19.1-20.1s7.3-20.1,19.1-20.1c8.2,0,14.7,3.4,16.7,10.8
					l-8.9,3.6c-1.1-4.8-3.6-6.4-7.4-6.4c-5.7,0-9,4.1-9,12.1s3,12.1,9.1,12.1c3.8,0,6.6-2,7.5-6.4l9.2,2.6
					C327.3,686,320.8,689.6,312.5,689.6z"/>
				<path id="Path_83" class="st9" d="M364.2,674.2c0,9.7-6.4,15.4-15.7,15.4s-15.6-5.7-15.6-15.4s6.4-15.4,15.6-15.4
					S364.2,664.6,364.2,674.2z M343.1,674.2c0,5.8,2,8.2,5.5,8.2s5.6-2.4,5.6-8.2c0-5.8-2.1-8.2-5.6-8.2S343.1,668.5,343.1,674.2z"
					/>
				<path id="Path_84" class="st9" d="M367.8,684l4.7-5.6c2.3,2.8,5.7,4.5,9.4,4.4c2.4,0,4.2-0.7,4.2-2.2c0-1.1-0.6-1.7-3-2.2
					l-4.1-0.8c-7.4-1.5-10.2-4.4-10.2-9.2s4.4-9.6,13.9-9.6c6,0,10.6,1.8,13.3,5.1l-4.8,5.4c-2-2.4-5-3.8-8.2-3.8
					c-2.9,0-4.3,0.8-4.3,2.2c0,1.1,0.8,1.8,3.5,2.3l5.4,1.1c6.1,1.1,8.6,4.1,8.6,8.3c0,5.7-4.6,10.2-13.9,10.2
					C376.4,689.6,371.2,687.7,367.8,684z"/>
				<path id="Path_85" class="st9" d="M423,687.4c-2.5,1.5-5.4,2.3-8.3,2.2c-6.7,0-10.9-2.6-11-9.4v-13.5h-5.1v-7.2h5.1v-6.6l10-2.8
					v9.4h8.8v7.2h-8.8v11.9c0,2.8,1.4,4,3.9,4c1.5,0.1,3.1-0.4,4.3-1.3L423,687.4z"/>
				<path id="Path_86" class="st10" d="M571.4,85.7c23.9-14.9,33.4-25.7,33.4-35.6c0-5.4-3.2-9.4-9.4-9.4c-6.7,0-10.5,5-10.7,14.3
					l-15.6-4.8c0.3-15.5,11.7-23.8,27.4-23.8c18.5,0,26.4,11.5,26.4,22.4c0,13.7-10.7,24-29.6,34.9v0.1c3.5-0.2,9.6-0.4,14.1-0.4
					h16.4v13.9h-52.4V85.7z"/>
				<path id="Path_87" class="st10" d="M548.2,118.5h3.9l0.2,2.9c1-2,3-3.3,5.2-3.2c2.2-0.1,4.3,1.1,5.2,3.1c1-2,3.1-3.2,5.4-3.1
					c2.9-0.2,5.5,2,5.7,4.9c0,0.3,0,0.6,0,0.8l0,10.4h-4.3v-9.6c0-2.3-1.1-3.2-2.7-3.2c-1.9,0-3.5,1.5-3.5,4.2v8.5h-4.4v-9.6
					c0-2.3-1.1-3.2-2.8-3.2c-1.6,0-3.5,1.2-3.5,4.3v8.4h-4.3L548.2,118.5z"/>
				<path id="Path_88" class="st10" d="M593.6,126.5c0,5.2-3.3,8.3-8.1,8.3c-4.8,0-8.1-3.1-8.1-8.3c0-5.2,3.3-8.3,8.1-8.3
					C590.2,118.2,593.6,121.3,593.6,126.5z M581.7,126.5c0,3.4,1.4,5,3.8,5c2.4,0,3.7-1.7,3.7-5s-1.4-5-3.7-5
					C583.1,121.4,581.7,123.1,581.7,126.5L581.7,126.5z"/>
				<path id="Path_89" class="st10" d="M612.4,124v10.4H608v-9.2c0-2.7-1.2-3.6-2.9-3.6c-1.8,0-3.6,1.2-3.6,4.3v8.4h-4.3v-15.9h3.9
					l0.2,3c0.9-2.1,3.1-3.4,5.4-3.3C610,118.2,612.4,120.1,612.4,124z"/>
				<path id="Path_90" class="st10" d="M627.7,133.4c-1.3,0.9-2.8,1.3-4.3,1.3c-3.2,0-5.4-1.3-5.4-4.8v-8.2h-2.9v-3.2h2.9v-3.7
					l4.4-1.2v4.9h5.1v3.2h-5.1v7.5c-0.1,1.1,0.6,2,1.7,2.2c0.2,0,0.3,0,0.5,0c0.9,0,1.8-0.3,2.5-0.9L627.7,133.4z"/>
				<path id="Path_91" class="st10" d="M630.7,111.6h4.4v9.7c0.9-1.9,3-3.1,5.1-3c3.3,0,5.7,1.9,5.7,5.8v10.4h-4.3v-9.1
					c0-2.7-1.2-3.6-2.8-3.6c-1.8,0-3.7,1.2-3.7,4.4v8.4h-4.4V111.6z"/>
				<path id="Path_92" class="st10" d="M649.1,131.5l2.5-2.5c1.1,1.7,3,2.6,5.1,2.6c1.7,0,2.7-0.5,2.7-1.5c0-0.6-0.3-1.2-1.8-1.5
					l-2.8-0.6c-3.7-0.8-5.1-2.3-5.1-4.7c0-2.6,2.4-5,7-5c3.2,0,5.6,1,6.9,3l-2.6,2.5c-0.9-1.4-2.5-2.3-4.2-2.3
					c-1.8,0-2.8,0.6-2.8,1.6c0,0.6,0.5,1.2,2.1,1.5l3.2,0.6c3.1,0.6,4.4,2.2,4.4,4.3c0,3-2.5,5.3-7,5.3
					C653.8,134.9,651,133.7,649.1,131.5z"/>
				<path id="Path_93" class="st11" d="M698.2,64c-5.6,0-9.2-3.8-9.2-10s3.6-10,9.2-10c3.9,0,6.6,1.6,7.8,4.8l-3,1.3
					c-0.5-2.1-2.5-3.5-4.6-3.4c-3.6,0-6,2.7-6,7.3s2.2,7.3,5.9,7.3c2.3,0.1,4.4-1.4,5-3.7l3,1C705.1,61.9,701.8,64.2,698.2,64z"/>
				<path id="Path_94" class="st11" d="M723.6,56.3c0,4.8-3,7.7-7.3,7.7s-7.4-2.9-7.4-7.7s3-7.7,7.4-7.7
					C720.5,48.6,723.6,51.5,723.6,56.3z M712,56.3c0,3.3,1.6,5.2,4.2,5.2s4.2-1.9,4.2-5.2c0-3.3-1.6-5.2-4.2-5.2S712,52.9,712,56.3z
					"/>
				<path id="Path_95" class="st11" d="M726.2,60.7l2.2-1.9c1,1.7,2.8,2.8,4.8,2.7c1.8,0,3-0.6,3-1.8c0-0.7-0.4-1.4-1.8-1.7
					l-3.1-0.6c-3.1-0.6-4.4-2-4.4-4.2c0-2.4,2.2-4.5,6.1-4.5c2.9,0,5.1,1.1,6.2,3l-2.2,1.8c-0.8-1.5-2.3-2.4-3.9-2.3
					c-1.9,0-3,0.8-3,1.9c0,0.8,0.5,1.4,2,1.7l3.4,0.7c2.8,0.6,3.9,1.9,3.9,3.8c0,2.8-2.4,4.8-6.2,4.8
					C730.4,64.1,727.8,62.9,726.2,60.7z"/>
				<path id="Path_96" class="st11" d="M752.8,62.7c-1.1,0.9-2.5,1.3-3.9,1.3c-2.6,0-4.6-1.1-4.6-4.2v-8.4h-2.8v-2.5h2.8v-3.4
					l3.2-0.9v4.3h5.1v2.5h-5.1v7.8c-0.1,1.1,0.7,2,1.8,2.1c0.1,0,0.2,0,0.4,0c0.9,0,1.8-0.3,2.5-0.9L752.8,62.7z"/>
				<path id="Path_97" class="st11" d="M779,56.3c0,4.8-3,7.7-7.3,7.7c-4.3,0-7.4-2.9-7.4-7.7s3-7.7,7.4-7.7
					C776,48.6,779,51.5,779,56.3z M767.5,56.3c0,3.3,1.6,5.2,4.2,5.2c2.6,0,4.2-1.9,4.2-5.2c0-3.3-1.6-5.2-4.2-5.2
					C769.1,51.1,767.5,52.9,767.5,56.3L767.5,56.3z"/>
				<path id="Path_98" class="st11" d="M787,48.9h4.8v2.5h-4.7v12.3h-3.2V51.4h-2.8v-2.5h2.8v-2.1c0-3,1.9-4.7,5.2-4.7
					c1-0.1,2,0.2,2.8,0.7l-0.6,2.3c-0.5-0.3-1.1-0.4-1.7-0.4c-1.6,0-2.6,0.6-2.6,2.4L787,48.9z"/>
				<path id="Path_99" class="st11" d="M819.7,44.2v19.5h-3.2v-8.5h-9.6v8.5h-3.2V44.2h3.2v8.3h9.6v-8.3H819.7z"/>
				<path id="Path_100" class="st11" d="M837.7,63.7l-5-7.8h-4.2v7.8h-3.1V44.2h7.9c4.2,0,6.8,2.2,6.8,5.8c0.1,2.6-1.7,4.9-4.2,5.4
					l5.4,8.3L837.7,63.7z M828.5,53.2h4.6c2.5,0,3.8-1,3.8-3.2c0-2.2-1.2-3.2-3.8-3.2h-4.6V53.2z"/>
				<path id="Path_101" class="st11" d="M868.9,56.3c0,4.8-2.9,7.7-6.6,7.7c-2,0-3.8-1-4.8-2.7v8.6h-3.2v-21h2.8l0.1,2.8
					c0.9-1.9,2.9-3.1,5.1-3C866,48.6,868.9,51.4,868.9,56.3z M865.7,56.3c0-3.2-1.5-5.2-4-5.2s-4.1,2-4.1,5.2c0,3.2,1.6,5.1,4.1,5.1
					C864.1,61.4,865.7,59.5,865.7,56.3L865.7,56.3z"/>
				<path id="Path_102" class="st11" d="M885.9,57.2h-10.8c0.3,2.8,1.9,4.2,4.3,4.2c1.6,0.1,3.1-0.7,3.8-2.1l2.5,1.2
					c-1.2,2.3-3.7,3.6-6.3,3.4c-4.4,0-7.4-2.9-7.4-7.7s3-7.7,7.3-7.7c3.5-0.2,6.6,2.5,6.8,6c0,0.3,0,0.5,0,0.8
					C886,56,886,56.6,885.9,57.2L885.9,57.2z M875.2,54.8h7.8c0.1-1.9-1.4-3.6-3.3-3.7c-0.1,0-0.3,0-0.4,0
					C877,51.1,875.6,52.4,875.2,54.8L875.2,54.8z"/>
				<path id="Path_103" class="st11" d="M890,48.9h2.7l0.3,2.7c0.7-1.9,2.6-3.1,4.6-3c0.6,0,1.1,0.1,1.6,0.3l-0.4,2.8
					c-0.6-0.2-1.2-0.3-1.8-0.3c-1.9,0-3.8,1.4-3.8,4.4v7.8H890L890,48.9z"/>
				<path id="Path_104" class="st11" d="M900.4,60.7l2.2-1.9c1,1.7,2.8,2.8,4.8,2.7c1.8,0,3-0.6,3-1.8c0-0.7-0.4-1.4-1.8-1.7
					l-3.1-0.6c-3.1-0.6-4.4-2-4.4-4.2c0-2.4,2.2-4.5,6.1-4.5c2.9,0,5.1,1.1,6.2,3l-2.2,1.8c-0.8-1.5-2.3-2.4-3.9-2.3
					c-1.9,0-3,0.8-3,1.9c0,0.8,0.5,1.4,2,1.7l3.4,0.7c2.8,0.6,3.9,1.9,3.9,3.8c0,2.8-2.4,4.8-6.2,4.8
					C904.6,64.1,902,62.9,900.4,60.7z"/>
				<path id="Path_105" class="st11" d="M931.1,56.3c0,4.8-3,7.7-7.3,7.7c-4.3,0-7.4-2.9-7.4-7.7s3-7.7,7.4-7.7
					C928.1,48.6,931.1,51.5,931.1,56.3z M919.6,56.3c0,3.3,1.6,5.2,4.2,5.2s4.2-1.9,4.2-5.2c0-3.3-1.6-5.2-4.2-5.2
					S919.6,52.9,919.6,56.3z"/>
				<path id="Path_106" class="st11" d="M948.6,54.1v9.6h-3.2v-8.6c0-2.9-1.4-3.9-3.2-3.9c-1.9,0-4,1.2-4,4.6v7.9h-3.2V48.9h2.8
					l0.1,2.5c1-1.8,2.9-3,5-2.8C946.1,48.6,948.6,50.4,948.6,54.1z"/>
				<path id="Path_107" class="st11" d="M693.8,88.3h4.8v2.5h-4.7V103h-3.2V90.8h-2.8v-2.5h2.8v-2.1c0-3,1.9-4.7,5.2-4.7
					c1-0.1,2,0.2,2.8,0.7l-0.6,2.3c-0.5-0.3-1.1-0.4-1.7-0.4c-1.6,0-2.6,0.7-2.6,2.4L693.8,88.3z"/>
				<path id="Path_108" class="st11" d="M714.8,95.7c0,4.8-3,7.7-7.3,7.7s-7.4-2.9-7.4-7.7s3-7.7,7.4-7.7S714.8,90.9,714.8,95.7z
					 M703.3,95.7c0,3.3,1.6,5.2,4.2,5.2s4.2-1.9,4.2-5.2c0-3.3-1.6-5.2-4.2-5.2C704.9,90.5,703.3,92.3,703.3,95.7z"/>
				<path id="Path_109" class="st11" d="M718.8,88.3h2.7l0.3,2.7c0.7-1.9,2.6-3.1,4.6-3c0.6,0,1.1,0.1,1.6,0.3l-0.4,2.8
					c-0.6-0.2-1.2-0.3-1.8-0.3c-1.9,0-3.8,1.4-3.8,4.4v7.8h-3.2L718.8,88.3z"/>
				<path id="Path_110" class="st11" d="M739.6,100.7c7.5-5.3,10-7.9,10-11.2c0.1-1.9-1.4-3.4-3.2-3.5c-0.2,0-0.3,0-0.5,0
					c-2.5,0-3.9,1.7-4.1,4.6l-2.8-1.3c0.4-3.7,3-6.1,7.1-6.1c4.3,0,6.8,2.7,6.8,6.1c0,3.7-2.5,6.9-9,11v0.1c0.7-0.1,2.4-0.1,3.2-0.1
					h6.1v2.7h-13.6L739.6,100.7z"/>
				<path id="Path_111" class="st11" d="M767,88.3h2.8l0.1,2.5c5.1,1.8,10.8,0.8,14.9-2.8c2.8-0.2,5.3,2,5.4,4.8c0,0.2,0,0.5,0,0.7
					v9.6H787v-9c0-2.4-1.3-3.4-3-3.4c-2.1,0-3.9,1.6-3.9,4.4v8H777v-9c0-2.4-1.3-3.4-3-3.4s-3.8,1.3-3.8,4.6v7.9h-3.2L767,88.3z"/>
				<path id="Path_112" class="st11" d="M808.7,95.7c0,4.8-3,7.7-7.3,7.7c-4.3,0-7.4-2.9-7.4-7.7s3-7.7,7.4-7.7
					S808.7,90.9,808.7,95.7z M797.2,95.7c0,3.3,1.6,5.2,4.2,5.2c2.6,0,4.2-1.9,4.2-5.2c0-3.3-1.6-5.2-4.2-5.2
					C798.8,90.5,797.2,92.3,797.2,95.7L797.2,95.7z"/>
				<path id="Path_113" class="st11" d="M826.2,93.5v9.6h-3.2v-8.6c0-2.9-1.4-3.9-3.2-3.9c-1.9,0-4,1.2-4,4.6v7.9h-3.2V88.3h2.8
					l0.1,2.5c1-1.8,2.9-3,5-2.8C823.8,88,826.2,89.8,826.2,93.5z"/>
				<path id="Path_114" class="st11" d="M840.5,102.1c-1.1,0.9-2.5,1.3-3.9,1.3c-2.6,0-4.6-1.1-4.6-4.2v-8.4h-2.8v-2.5h2.8v-3.5
					l3.2-0.9v4.3h5.1v2.5h-5.1v7.9c-0.1,1,0.6,2,1.7,2.1c0.1,0,0.3,0,0.4,0c0.9,0,1.8-0.3,2.5-0.9L840.5,102.1z"/>
				<path id="Path_115" class="st11" d="M843.5,81.7h3.2v9c1-1.7,2.8-2.8,4.8-2.7c3.1,0,5.6,1.8,5.6,5.5v9.6h-3.2v-8.6
					c0-2.9-1.4-3.9-3.2-3.9c-1.9,0-4,1.3-4,4.7v7.8h-3.2L843.5,81.7z"/>
				<path id="Path_116" class="st11" d="M860.4,100.1l2.2-1.9c1,1.7,2.8,2.8,4.8,2.7c1.8,0,3-0.7,3-1.8c0-0.7-0.4-1.4-1.8-1.7
					l-3.1-0.6c-3.1-0.6-4.4-2-4.4-4.2c0-2.4,2.2-4.5,6.1-4.5c2.9,0,5.1,1.1,6.2,3l-2.2,1.8c-0.8-1.5-2.3-2.4-3.9-2.3
					c-1.9,0-3,0.8-3,1.9c0,0.8,0.5,1.4,2,1.7l3.4,0.7c2.8,0.6,3.9,1.9,3.9,3.8c0,2.8-2.4,4.8-6.2,4.8
					C864.6,103.5,862,102.2,860.4,100.1z"/>
				<path id="Path_117" class="st10" d="M604.6,314.3c0-3.7,0.1-7.6,0.1-11.6c-4.6,4.4-10.4,7.5-16.6,8.8l-1.7-15
					c7.2-0.8,17.9-6.6,21.3-11.8h14.5v69.8h-17.6V314.3z"/>
				<path id="Path_118" class="st10" d="M655.9,346c0,5.9-4,9.5-10.6,9.5c-6.6,0-10.6-3.6-10.6-9.5c0-6,4-9.6,10.6-9.6
					C651.9,336.3,655.9,339.9,655.9,346z"/>
				<path id="Path_119" class="st10" d="M663.9,340.5l16-7.9c1.6,5.6,4.7,9.3,11.5,9.3c6.6,0,10.6-3.5,10.6-10.2
					c-0.1-6.2-3.7-9.6-10.6-9.6c-5,0-8.7,1.4-11.2,4.1l-13.8-2.5l4.4-39h44v14.1h-30.8l-1.8,14l-0.3,1.7h0.1c2.9-3.2,8.2-5,14.4-5
					c13.8,0,21.9,8.9,21.9,21.2c0,17.1-12.7,25-27.4,25C678.8,355.6,669.9,351.2,663.9,340.5z"/>
				<path id="Path_120" class="st10" d="M599.5,377.7h3.9l0.2,2.9c1-2,3-3.3,5.2-3.2c2.2-0.1,4.3,1.1,5.2,3.1c1-2,3.1-3.2,5.4-3.1
					c2.9-0.2,5.5,2,5.7,5c0,0.3,0,0.6,0,0.9l0,10.4h-4.3V384c0-2.3-1.1-3.2-2.7-3.2c-1.9,0-3.5,1.5-3.5,4.2v8.5h-4.3V384
					c0-2.3-1.1-3.2-2.8-3.2c-1.6,0-3.5,1.2-3.5,4.3v8.4h-4.3L599.5,377.7z"/>
				<path id="Path_121" class="st10" d="M644.9,385.6c0,5.2-3.3,8.3-8.1,8.3c-4.8,0-8.1-3.1-8.1-8.3s3.3-8.3,8.1-8.3
					C641.5,377.4,644.9,380.4,644.9,385.6z M633,385.6c0,3.4,1.4,5,3.8,5s3.7-1.7,3.7-5s-1.4-5-3.7-5S633,382.3,633,385.6L633,385.6
					z"/>
				<path id="Path_122" class="st10" d="M663.7,383.1v10.4h-4.4v-9.2c0-2.7-1.2-3.6-2.9-3.6c-1.8,0-3.6,1.2-3.6,4.3v8.4h-4.3v-15.9
					h3.9l0.2,3c0.9-2.1,3.1-3.4,5.4-3.3C661.3,377.4,663.7,379.3,663.7,383.1z"/>
				<path id="Path_123" class="st10" d="M679,392.6c-1.3,0.9-2.8,1.3-4.3,1.3c-3.2,0-5.4-1.3-5.4-4.8v-8.2h-2.9v-3.2h2.9V374
					l4.4-1.2v4.9h5.1v3.2h-5.1v7.5c-0.1,1.1,0.6,2,1.7,2.2c0.2,0,0.4,0,0.5,0c0.9,0,1.8-0.3,2.5-0.9L679,392.6z"/>
				<path id="Path_124" class="st10" d="M682,370.7h4.3v9.7c0.9-1.9,3-3.1,5.1-3c3.3,0,5.7,1.9,5.7,5.8v10.4h-4.4v-9.2
					c0-2.7-1.2-3.6-2.8-3.6c-1.8,0-3.7,1.2-3.7,4.4v8.4H682L682,370.7z"/>
				<path id="Path_125" class="st10" d="M700.3,390.6l2.5-2.5c1.1,1.7,3,2.6,5,2.6c1.7,0,2.7-0.5,2.7-1.5c0-0.6-0.3-1.2-1.7-1.5
					l-2.8-0.6c-3.7-0.8-5.1-2.3-5.1-4.7c0-2.6,2.3-5,7-5c3.2,0,5.6,1,6.9,3l-2.6,2.5c-0.9-1.4-2.5-2.3-4.2-2.3
					c-1.8,0-2.8,0.6-2.8,1.6c0,0.6,0.5,1.2,2.1,1.5l3.2,0.6c3.1,0.6,4.4,2.2,4.4,4.3c0,3-2.5,5.3-7.1,5.3
					C705.1,394,702.2,392.8,700.3,390.6z"/>
				<path id="Path_126" class="st11" d="M749.1,314.7c-5.6,0-9.2-3.8-9.2-10s3.6-10,9.2-10c3.9,0,6.6,1.6,7.8,4.8l-3,1.3
					c-0.5-2.1-2.5-3.5-4.6-3.4c-3.6,0-6,2.7-6,7.3s2.2,7.3,5.9,7.3c2.3,0.1,4.4-1.4,5-3.7l3,1C755.9,312.9,752.9,314.7,749.1,314.7z
					"/>
				<path id="Path_127" class="st11" d="M774.5,307.1c0,4.8-3,7.7-7.3,7.7c-4.3,0-7.4-2.9-7.4-7.7s3-7.7,7.4-7.7
					S774.5,302.2,774.5,307.1z M763,307.1c0,3.3,1.6,5.2,4.2,5.2c2.6,0,4.2-1.9,4.2-5.2s-1.6-5.2-4.2-5.2
					C764.6,301.9,763,303.7,763,307.1L763,307.1z"/>
				<path id="Path_128" class="st11" d="M777.1,311.5l2.2-1.9c1,1.7,2.8,2.8,4.8,2.7c1.8,0,3-0.7,3-1.8c0-0.7-0.4-1.4-1.8-1.7
					l-3.1-0.6c-3.1-0.6-4.4-2-4.4-4.2c0-2.4,2.2-4.5,6.1-4.5c2.9,0,5.1,1.1,6.2,3l-2.2,1.8c-0.8-1.5-2.3-2.4-3.9-2.3
					c-1.9,0-3,0.8-3,1.9c0,0.8,0.5,1.4,2,1.7l3.4,0.7c2.8,0.6,3.9,1.9,3.9,3.8c0,2.8-2.4,4.8-6.2,4.8
					C781.4,314.9,778.8,313.6,777.1,311.5z"/>
				<path id="Path_129" class="st11" d="M803.7,313.5c-1.1,0.9-2.5,1.3-3.9,1.3c-2.6,0-4.6-1.1-4.6-4.2v-8.4h-2.8v-2.5h2.8v-3.5
					l3.2-0.9v4.3h5.1v2.5h-5.1v7.9c-0.1,1.1,0.7,2,1.8,2.1c0.1,0,0.2,0,0.4,0c0.9,0,1.8-0.3,2.5-0.9L803.7,313.5z"/>
				<path id="Path_130" class="st11" d="M830,307.1c0,4.8-3,7.7-7.3,7.7s-7.4-2.9-7.4-7.7s3-7.7,7.4-7.7
					C826.9,299.4,830,302.2,830,307.1z M818.4,307.1c0,3.3,1.6,5.2,4.2,5.2s4.2-1.9,4.2-5.2s-1.6-5.2-4.2-5.2
					S818.4,303.7,818.4,307.1L818.4,307.1z"/>
				<path id="Path_131" class="st11" d="M837.9,299.7h4.8v2.5H838v12.3h-3.2v-12.3h-2.8v-2.5h2.8v-2.1c0-3,1.9-4.7,5.2-4.7
					c1-0.1,2,0.2,2.8,0.7l-0.6,2.3c-0.5-0.3-1.1-0.4-1.7-0.4c-1.6,0-2.6,0.7-2.6,2.4L837.9,299.7z"/>
				<path id="Path_132" class="st11" d="M869.1,298.6l-2.1,2c-1.2-2.1-3.4-3.3-5.8-3.2c-2.9,0-4.1,1.3-4.1,2.8c0,1.2,0.6,2.1,3,2.7
					l4,0.9c3.7,0.9,5.2,2.5,5.2,5.1c0,3.6-3.1,5.9-7.8,5.9c-4.1,0-7.1-1.7-8.6-4.1l2.2-2.2c1.4,2.3,3.9,3.7,6.6,3.5
					c2.7,0,4.3-1,4.4-2.8c0-1.1-0.6-2.1-2.7-2.5l-4.3-1c-3.5-0.8-5.2-2.5-5.2-5.1c0-3.3,2.9-6,7.6-6
					C864.4,294.5,867.3,296,869.1,298.6z"/>
				<path id="Path_133" class="st11" d="M886.1,308h-10.8c0.3,2.8,1.9,4.2,4.3,4.2c1.6,0.1,3.1-0.7,3.8-2.1l2.5,1.2
					c-1.2,2.3-3.7,3.6-6.3,3.5c-4.4,0-7.4-2.9-7.4-7.7s3-7.7,7.3-7.7c3.5-0.2,6.6,2.5,6.8,6.1c0,0.2,0,0.5,0,0.7
					C886.2,306.8,886.2,307.4,886.1,308z M875.3,305.6h7.8c0.1-1.9-1.4-3.6-3.3-3.7c-0.1,0-0.3,0-0.4,0
					C877.2,301.9,875.8,303.2,875.3,305.6L875.3,305.6z"/>
				<path id="Path_134" class="st11" d="M903.7,304.9v9.6h-3.2v-8.6c0-2.9-1.4-3.9-3.2-3.9c-1.9,0-4,1.2-4,4.6v7.9h-3.2v-14.8h2.8
					l0.1,2.5c1-1.8,2.9-3,5-2.8C901.3,299.4,903.7,301.2,903.7,304.9z"/>
				<path id="Path_135" class="st11" d="M908,295.2c0-1.2,0.8-1.9,2.1-1.9c1-0.2,1.9,0.5,2.1,1.5c0,0.1,0,0.3,0,0.4
					c-0.1,1.2-1.1,2.1-2.2,2C908.9,297.1,908,296.3,908,295.2z M911.6,314.4h-3.2v-14.8h3.2L911.6,314.4z"/>
				<path id="Path_136" class="st11" d="M930.3,307.1c0,4.8-3,7.7-7.3,7.7s-7.4-2.9-7.4-7.7s3-7.7,7.4-7.7S930.3,302.2,930.3,307.1z
					 M918.8,307.1c0,3.3,1.6,5.2,4.2,5.2c2.6,0,4.2-1.9,4.2-5.2s-1.6-5.2-4.2-5.2C920.4,301.9,918.8,303.7,918.8,307.1z"/>
				<path id="Path_137" class="st11" d="M934.3,299.7h2.7l0.3,2.7c0.7-1.9,2.6-3.1,4.6-3c0.6,0,1.1,0.1,1.6,0.3l-0.4,2.8
					c-0.6-0.2-1.2-0.3-1.8-0.3c-1.9,0-3.8,1.4-3.8,4.4v7.8h-3.2V299.7z"/>
				<path id="Path_138" class="st11" d="M975.9,314.4H973v-11.3l0.2-5.4l0,0l-5.9,16.7h-2.6l-5.9-16.7h0l0.2,5.4v11.3H956V295h4.7
					l3.9,11.3l1.4,4.6h0.1l1.4-4.6l3.9-11.3h4.6L975.9,314.4z"/>
				<path id="Path_139" class="st11" d="M994.9,312.2l-0.2,2.2c-0.5,0.2-1.1,0.3-1.7,0.3c-1.4,0.2-2.8-0.7-3.2-2.1
					c-1.1,1.4-2.9,2.3-4.7,2.2c-2.8,0-4.9-1.4-4.9-4c0-2.2,1.5-3.6,4.1-4.2l5.3-1V305c0.2-1.6-1-2.9-2.5-3.1c-0.2,0-0.3,0-0.5,0
					c-1.7-0.1-3.2,1-3.7,2.6l-2.7-1.1c0.7-2.4,3-4,6.5-4c3.5,0,6.1,1.7,6.1,5.3v6.6c-0.1,0.5,0.3,1,0.8,1.1c0.1,0,0.2,0,0.3,0
					C994.2,312.3,994.5,312.3,994.9,312.2z M989.6,309v-1.2l-3.7,0.8c-1.7,0.3-2.5,0.8-2.5,2s0.9,1.8,2.3,1.8
					C987.8,312.3,989.6,311.3,989.6,309L989.6,309z"/>
				<path id="Path_140" class="st11" d="M1011.4,304.9v9.6h-3.2v-8.6c0-2.9-1.4-3.9-3.2-3.9c-1.9,0-4,1.2-4,4.6v7.9h-3.2v-14.8h2.8
					l0.1,2.5c1-1.8,2.9-3,5-2.8C1009,299.4,1011.4,301.2,1011.4,304.9z"/>
				<path id="Path_141" class="st11" d="M1030,312.2l-0.2,2.2c-0.5,0.2-1.1,0.3-1.7,0.3c-1.4,0.2-2.8-0.7-3.2-2.1
					c-1.1,1.4-2.9,2.3-4.7,2.2c-2.8,0-4.9-1.4-4.9-4c0-2.2,1.5-3.6,4.1-4.2l5.3-1V305c0.2-1.6-1-2.9-2.5-3.1c-0.2,0-0.3,0-0.5,0
					c-1.7-0.1-3.3,1-3.7,2.6l-2.7-1.1c0.7-2.4,3-4,6.5-4c3.5,0,6.1,1.7,6.1,5.3v6.6c-0.1,0.5,0.3,1,0.8,1.1c0.1,0,0.2,0,0.3,0
					C1029.3,312.3,1029.7,312.3,1030,312.2z M1024.7,309v-1.2l-3.7,0.8c-1.7,0.3-2.5,0.8-2.5,2s0.9,1.8,2.3,1.8
					C1022.9,312.3,1024.7,311.3,1024.7,309L1024.7,309z"/>
				<path id="Path_142" class="st11" d="M1043.4,300.9c1,0.9,1.6,2.2,1.6,3.5c0,3-2.5,5-6.4,5c-0.7,0-1.5-0.1-2.2-0.2
					c-1.1,0.3-1.5,0.9-1.5,1.6c0,1,0.7,1.4,2.1,1.4h4.4c3,0,4.7,1.4,4.7,3.7c0,3.1-3.2,4.9-7.4,4.9c-4.9,0-7.1-1.7-7.1-3.9
					c0-1.5,1.1-2.7,2.5-2.9c-1.1-0.4-1.8-1.5-1.8-2.6c0-1.3,0.9-2.5,2.2-2.9c-1.5-0.8-2.4-2.4-2.3-4.1c0-3,2.5-5,6.3-5
					c1.1,0,2.2,0.2,3.3,0.6c0.3-2.1,2.1-3.6,4.2-3.4l0.5,2.5C1044.7,298.9,1043.6,299.6,1043.4,300.9z M1036.2,314.7
					c-1.1,0-1.9,0.6-1.9,1.6c0,1.3,1.7,2.1,4.5,2.1c3.2,0,4.8-1,4.8-2.2c0-0.9-0.6-1.5-2.5-1.5L1036.2,314.7z M1041.8,304.4
					c0.2-1.8-1-3.4-2.8-3.6c-1.8-0.2-3.4,1-3.6,2.8c-0.2,1.8,1,3.4,2.8,3.6c0.1,0,0.3,0,0.4,0c1.6,0.1,3-1,3.2-2.6
					C1041.8,304.5,1041.8,304.4,1041.8,304.4L1041.8,304.4z"/>
				<path id="Path_143" class="st11" d="M1062,308h-10.8c0.3,2.8,1.9,4.2,4.3,4.2c1.6,0.1,3.1-0.7,3.9-2.1l2.5,1.2
					c-1.2,2.3-3.7,3.6-6.3,3.5c-4.4,0-7.4-2.9-7.4-7.7s3-7.7,7.3-7.7c3.5-0.2,6.6,2.5,6.8,6c0,0.3,0,0.5,0,0.8
					C1062.2,306.8,1062.1,307.4,1062,308L1062,308z M1051.3,305.6h7.8c0.1-1.9-1.4-3.6-3.3-3.7c-0.1,0-0.3,0-0.4,0
					C1053.1,301.9,1051.7,303.2,1051.3,305.6L1051.3,305.6z"/>
				<path id="Path_144" class="st11" d="M1066.1,299.7h2.7l0.3,2.7c0.7-1.9,2.6-3.1,4.6-3c0.6,0,1.1,0.1,1.6,0.3l-0.4,2.8
					c-0.6-0.2-1.2-0.3-1.8-0.3c-1.9,0-3.9,1.4-3.9,4.4v7.8h-3.2L1066.1,299.7z"/>
				<path id="Path_145" class="st11" d="M740,334.6c0-1.2,0.8-1.9,2.1-1.9c1-0.1,1.9,0.5,2.1,1.5c0,0.1,0,0.3,0,0.4
					c0.1,1-0.7,1.9-1.7,2c-0.1,0-0.3,0-0.4,0c-1,0.1-2-0.6-2.1-1.6C740,334.9,740,334.7,740,334.6z M743.7,353.8h-3.2v-14.8h3.2
					V353.8z"/>
				<path id="Path_146" class="st11" d="M762.1,344.3v9.6H759v-8.6c0-2.9-1.4-3.9-3.2-3.9c-1.9,0-4,1.2-4,4.6v7.9h-3.2v-14.8h2.8
					l0.1,2.5c1-1.8,2.9-3,5-2.8c2.8-0.2,5.3,1.8,5.5,4.6C762.2,343.7,762.2,344,762.1,344.3z"/>
				<path id="Path_147" class="st11" d="M776.4,352.9c-1.1,0.9-2.5,1.3-3.9,1.3c-2.6,0-4.6-1.1-4.6-4.2v-8.4h-2.8v-2.5h2.8v-3.5
					l3.2-0.9v4.3h5.1v2.5H771v7.8c-0.1,1.1,0.7,2,1.8,2.1c0.1,0,0.2,0,0.4,0c0.9,0,1.8-0.3,2.5-0.9L776.4,352.9z"/>
				<path id="Path_148" class="st11" d="M792.2,347.4h-10.8c0.3,2.8,1.9,4.2,4.3,4.2c1.6,0.1,3.1-0.7,3.8-2.1l2.5,1.2
					c-1.2,2.3-3.7,3.6-6.3,3.5c-4.4,0-7.4-2.9-7.4-7.7c0-4.8,3-7.7,7.3-7.7c3.5-0.2,6.6,2.5,6.8,6c0,0.3,0,0.5,0,0.8
					C792.4,346.2,792.3,346.8,792.2,347.4z M781.5,345h7.8c0.1-1.9-1.4-3.6-3.3-3.7c-0.1,0-0.2,0-0.4,0
					C783.3,341.3,781.9,342.6,781.5,345L781.5,345z"/>
				<path id="Path_149" class="st11" d="M796.3,339.1h2.7l0.3,2.7c0.7-1.9,2.6-3.1,4.6-3c0.6,0,1.1,0.1,1.6,0.3l-0.4,2.8
					c-0.6-0.2-1.2-0.3-1.8-0.3c-1.9,0-3.9,1.4-3.9,4.4v7.8h-3.2L796.3,339.1z"/>
				<path id="Path_150" class="st11" d="M821.6,339.1l-5.9,14.8h-3.5l-5.9-14.8h3.5l4.2,12l4.3-12H821.6z"/>
				<path id="Path_151" class="st11" d="M823.7,334.6c0-1.2,0.8-1.9,2.1-1.9c1-0.1,1.9,0.5,2.1,1.5c0,0.1,0,0.3,0,0.4
					c-0.1,1.2-1.1,2.1-2.2,2C824.7,336.5,823.8,335.7,823.7,334.6z M827.4,353.8h-3.2v-14.8h3.2L827.4,353.8z"/>
				<path id="Path_152" class="st11" d="M845.3,347.4h-10.8c0.3,2.8,1.9,4.2,4.3,4.2c1.6,0.1,3.1-0.7,3.9-2.1l2.5,1.2
					c-1.2,2.3-3.7,3.6-6.3,3.5c-4.4,0-7.4-2.9-7.4-7.7c0-4.8,3-7.7,7.3-7.7c3.5-0.2,6.6,2.5,6.8,6c0,0.3,0,0.5,0,0.8
					C845.5,346.2,845.4,346.8,845.3,347.4z M834.6,345h7.8c0.1-1.9-1.4-3.6-3.3-3.7c-0.1,0-0.2,0-0.4,0
					C836.4,341.3,835,342.6,834.6,345L834.6,345z"/>
				<path id="Path_153" class="st11" d="M871.3,339.1l-5,14.8h-3.5l-3.7-11l-3.5,11h-3.5l-4.9-14.8h3.4l3.4,11.7l3.7-11.7h3.2
					l3.7,11.7l3.4-11.7H871.3z"/>
				<path id="Path_154" class="st11" d="M872.7,350.8l2.2-1.9c1,1.7,2.8,2.8,4.8,2.7c1.8,0,3-0.6,3-1.8c0-0.7-0.4-1.4-1.8-1.7
					l-3.1-0.6c-3.1-0.6-4.4-2-4.4-4.2c0-2.4,2.2-4.6,6.1-4.6c2.9,0,5.1,1.1,6.2,3l-2.2,1.8c-0.8-1.5-2.3-2.4-3.9-2.3
					c-1.9,0-3,0.8-3,1.9c0,0.8,0.5,1.4,2,1.7l3.4,0.7c2.8,0.6,3.9,1.9,3.9,3.8c0,2.8-2.4,4.8-6.2,4.8
					C876.9,354.3,874.3,353,872.7,350.8z"/>
				<path id="Path_155" class="st11" d="M909.5,347.5h-10.1v-3h10.1V347.5z"/>
				<path id="Path_156" class="st11" d="M927.2,340.4c0-0.8,0-1.7,0.1-2.6c-1.4,1.3-3.1,2.2-4.9,2.7l-0.6-2.8
					c2.3-0.5,4.3-1.7,5.9-3.5h2.7v19.5h-3.1L927.2,340.4z"/>
				<path id="Path_157" class="st11" d="M934.8,344.1c0-6.6,2.8-10,7.5-10s7.5,3.5,7.5,10c0,6.6-2.8,10-7.5,10
					S934.8,350.6,934.8,344.1z M946.6,344.1c0-4.9-1.5-7.4-4.3-7.4s-4.3,2.4-4.3,7.4c0,4.9,1.4,7.4,4.3,7.4
					C945.1,351.4,946.6,349,946.6,344.1z"/>
				<path id="Path_158" class="st11" d="M953.4,344.1c0-6.6,2.8-10,7.5-10c4.7,0,7.5,3.5,7.5,10c0,6.6-2.8,10-7.5,10
					C956.2,354.1,953.4,350.6,953.4,344.1z M965.2,344.1c0-4.9-1.5-7.4-4.3-7.4c-2.8,0-4.3,2.4-4.3,7.4c0,4.9,1.4,7.4,4.3,7.4
					C963.7,351.4,965.2,349,965.2,344.1z"/>
				<path id="Path_159" class="st11" d="M986.3,345.7h-5.9v6.2h-2.8v-6.2h-5.9v-2.6h5.9v-6.1h2.8v6.1h5.9V345.7z"/>
				<path id="Path_160" class="st11" d="M1000,332.4h3.1v9c1-1.7,2.8-2.8,4.8-2.7c3.1,0,5.6,1.8,5.6,5.5v9.6h-3.2v-8.6
					c0-2.9-1.4-3.9-3.2-3.9c-1.9,0-4,1.3-4,4.7v7.8h-3.2L1000,332.4z"/>
				<path id="Path_161" class="st11" d="M1032,346.4c0,4.8-3,7.7-7.3,7.7c-4.3,0-7.3-2.9-7.3-7.7s3-7.7,7.4-7.7
					C1029,338.8,1032,341.6,1032,346.4z M1020.5,346.4c0,3.3,1.6,5.2,4.2,5.2c2.6,0,4.2-1.9,4.2-5.2s-1.6-5.2-4.2-5.2
					C1022.1,341.3,1020.5,343.1,1020.5,346.4L1020.5,346.4z"/>
				<path id="Path_162" class="st11" d="M1035.9,348.8v-9.7h3.2v9c0,2.7,1.2,3.5,3.2,3.5s3.9-1.3,3.9-4.5v-8h3.2v14.8h-2.8l-0.1-2.4
					c-1,1.9-2.8,2.7-5.2,2.7C1038.4,354.1,1035.9,352.6,1035.9,348.8z"/>
				<path id="Path_163" class="st11" d="M1054.3,339.1h2.7l0.3,2.7c0.7-1.9,2.6-3.1,4.6-3c0.6,0,1.1,0.1,1.6,0.3l-0.4,2.8
					c-0.6-0.2-1.2-0.3-1.8-0.3c-1.9,0-3.8,1.4-3.8,4.4v7.8h-3.2V339.1z"/>
				<path id="Path_164" class="st11" d="M1064.7,350.8l2.2-1.9c1,1.7,2.8,2.8,4.8,2.7c1.8,0,3-0.6,3-1.8c0-0.7-0.4-1.4-1.8-1.7
					l-3.1-0.6c-3.1-0.6-4.4-2-4.4-4.2c0-2.4,2.2-4.6,6.1-4.6c2.9,0,5.1,1.1,6.2,3l-2.2,1.8c-0.8-1.5-2.3-2.4-3.9-2.3
					c-1.9,0-3,0.8-3,1.9c0,0.8,0.5,1.4,2,1.7l3.4,0.7c2.8,0.6,3.9,1.9,3.9,3.8c0,2.8-2.4,4.8-6.2,4.8
					C1068.9,354.3,1066.3,353,1064.7,350.8z"/>
				<path id="Path_165" class="st11" d="M754.3,385.8c0,4.8-3,7.7-7.3,7.7c-4.3,0-7.3-2.9-7.3-7.7c0-4.8,3-7.7,7.4-7.7
					S754.3,381,754.3,385.8z M742.8,385.8c0,3.3,1.6,5.2,4.2,5.2c2.6,0,4.2-1.9,4.2-5.2c0-3.3-1.6-5.2-4.2-5.2
					C744.4,380.7,742.8,382.5,742.8,385.8z"/>
				<path id="Path_166" class="st11" d="M762.3,378.4h4.8v2.5h-4.7v12.3h-3.2v-12.3h-2.8v-2.5h2.8v-2.1c0-3,1.9-4.7,5.2-4.7
					c1-0.1,2,0.2,2.8,0.7l-0.6,2.3c-0.5-0.3-1.1-0.4-1.7-0.4c-1.6,0-2.6,0.6-2.6,2.4L762.3,378.4z"/>
				<path id="Path_167" class="st11" d="M787.7,392.2c-1.1,0.9-2.5,1.3-3.9,1.3c-2.6,0-4.6-1.2-4.6-4.2v-8.4h-2.8v-2.5h2.8V375
					l3.2-0.9v4.3h5.1v2.5h-5.1v7.9c-0.1,1.1,0.7,2,1.8,2.1c0.1,0,0.2,0,0.4,0c0.9,0,1.8-0.3,2.5-0.9L787.7,392.2z"/>
				<path id="Path_168" class="st11" d="M790.6,371.8h3.2v9c1-1.7,2.8-2.8,4.8-2.7c3.1,0,5.6,1.8,5.6,5.5v9.6H801v-8.6
					c0-2.9-1.4-3.9-3.2-3.9c-1.9,0-4,1.3-4,4.7v7.8h-3.2V371.8z"/>
				<path id="Path_169" class="st11" d="M821.9,386.8h-10.8c0.3,2.8,1.9,4.2,4.3,4.2c1.6,0.1,3.1-0.7,3.9-2.1l2.5,1.2
					c-1.2,2.3-3.7,3.6-6.3,3.5c-4.4,0-7.4-2.9-7.4-7.7c0-4.8,3-7.7,7.3-7.7c3.5-0.2,6.6,2.5,6.8,6c0,0.3,0,0.5,0,0.8
					C822.1,385.6,822,386.2,821.9,386.8z M811.2,384.3h7.8c0.1-1.9-1.4-3.6-3.3-3.7c-0.1,0-0.3,0-0.4,0
					C813,380.7,811.6,382,811.2,384.3L811.2,384.3z"/>
				<path id="Path_170" class="st11" d="M825.5,374c0-1.2,0.8-1.9,2.1-1.9c1-0.2,1.9,0.5,2.1,1.5c0,0.1,0,0.3,0,0.4
					c-0.1,1.2-1.1,2.1-2.2,2C826.4,375.9,825.6,375,825.5,374z M829.2,393.2h-3.2v-14.8h3.2V393.2z"/>
				<path id="Path_171" class="st11" d="M834.1,378.4h2.7l0.3,2.7c0.7-1.9,2.6-3.1,4.6-3c0.6,0,1.1,0.1,1.6,0.3l-0.4,2.8
					c-0.6-0.2-1.2-0.3-1.8-0.3c-1.9,0-3.8,1.4-3.8,4.4v7.8h-3.2V378.4z"/>
				<path id="Path_172" class="st11" d="M864.5,392.2c-1.1,0.9-2.5,1.3-3.9,1.3c-2.6,0-4.6-1.2-4.6-4.2v-8.4h-2.8v-2.5h2.8V375
					l3.2-0.9v4.3h5.1v2.5h-5.1v7.9c-0.1,1.1,0.7,2,1.8,2.1c0.1,0,0.2,0,0.4,0c0.9,0,1.8-0.3,2.5-0.9L864.5,392.2z"/>
				<path id="Path_173" class="st11" d="M866.9,374c0-1.2,0.8-1.9,2.1-1.9c1-0.2,1.9,0.5,2.1,1.5c0,0.1,0,0.3,0,0.4
					c-0.1,1.2-1.1,2.1-2.2,2C867.8,375.9,866.9,375,866.9,374z M870.5,393.2h-3.2v-14.8h3.2V393.2z"/>
				<path id="Path_174" class="st11" d="M875.5,378.4h2.8l0.1,2.5c5.1,1.8,10.8,0.8,14.9-2.8c2.8-0.2,5.3,2,5.4,4.8
					c0,0.2,0,0.5,0,0.7v9.6h-3.2v-9c0-2.4-1.3-3.4-3-3.4c-2.1,0-3.8,1.6-3.8,4.4v8h-3.2v-9c0-2.4-1.3-3.4-3-3.4
					c-1.8,0-3.8,1.3-3.8,4.6v7.9h-3.2L875.5,378.4z"/>
				<path id="Path_175" class="st11" d="M916.5,386.8h-10.8c0.3,2.8,1.9,4.2,4.3,4.2c1.6,0.1,3.1-0.7,3.8-2.1l2.5,1.2
					c-1.2,2.3-3.7,3.6-6.3,3.5c-4.4,0-7.4-2.9-7.4-7.7c0-4.8,3-7.7,7.3-7.7c3.5-0.2,6.6,2.5,6.8,6c0,0.3,0,0.5,0,0.8
					C916.6,385.6,916.5,386.2,916.5,386.8L916.5,386.8z M905.7,384.3h7.8c0.1-1.9-1.4-3.6-3.3-3.7c-0.1,0-0.3,0-0.4,0
					C907.5,380.7,906.1,382,905.7,384.3L905.7,384.3z"/>
				<path id="Path_176" class="st10" d="M627.3,642.2c0-23.8,9.9-36,29-36s29,12.2,29,36s-9.9,36-29,36S627.3,666,627.3,642.2z
					 M667.3,642.2c0-15.7-3.3-21.8-11-21.8s-11,6.1-11,21.8s3.3,21.8,11,21.8S667.3,657.8,667.3,642.2L667.3,642.2z"/>
				<path id="Path_177" class="st10" d="M715.2,668.5c0,5.9-4,9.5-10.6,9.5c-6.6,0-10.6-3.6-10.6-9.5c0-6,4-9.6,10.6-9.6
					C711.2,658.9,715.2,662.5,715.2,668.5z"/>
				<path id="Path_178" class="st10" d="M723.2,663l16-7.9c1.6,5.6,4.7,9.3,11.5,9.3c6.6,0,10.6-3.5,10.6-10.2
					c-0.1-6.2-3.7-9.6-10.6-9.6c-5,0-8.7,1.4-11.2,4.1l-13.8-2.5l4.5-39h44v14.1h-30.8l-1.8,14l-0.3,1.7h0.1c2.9-3.2,8.1-5,14.4-5
					c13.8,0,21.9,8.9,21.9,21.2c0,17.1-12.7,25-27.4,25C738.1,678.2,729.2,673.7,723.2,663z"/>
				<path id="Path_179" class="st10" d="M652,698.3h3.9l0.2,2.9c1-2,3-3.3,5.2-3.2c2.2-0.1,4.3,1.1,5.2,3.1c1-2,3.1-3.2,5.4-3.1
					c2.9-0.2,5.5,2,5.7,5c0,0.3,0,0.6,0,0.9l0,10.4h-4.3v-9.6c0-2.3-1.1-3.2-2.7-3.2c-1.9,0-3.5,1.5-3.5,4.2v8.5h-4.3v-9.6
					c0-2.3-1.1-3.2-2.8-3.2c-1.6,0-3.5,1.2-3.5,4.3v8.4H652L652,698.3z"/>
				<path id="Path_180" class="st10" d="M697.4,706.2c0,5.2-3.3,8.3-8.1,8.3s-8.1-3.1-8.1-8.3s3.3-8.3,8.1-8.3
					C694.1,697.9,697.4,701,697.4,706.2z M685.5,706.2c0,3.4,1.4,5,3.8,5c2.4,0,3.7-1.7,3.7-5c0-3.4-1.4-5-3.7-5
					C686.9,701.2,685.5,702.8,685.5,706.2z"/>
				<path id="Path_181" class="st10" d="M716.2,703.7v10.4h-4.4v-9.2c0-2.7-1.2-3.6-2.9-3.6c-1.8,0-3.6,1.2-3.6,4.3v8.4H701v-15.9
					h3.9l0.2,3c0.9-2.1,3.1-3.4,5.4-3.3C713.8,697.9,716.2,699.9,716.2,703.7z"/>
				<path id="Path_182" class="st10" d="M731.6,713.2c-1.3,0.9-2.8,1.3-4.3,1.3c-3.2,0-5.4-1.3-5.4-4.8v-8.2h-2.9v-3.2h2.9v-3.7
					l4.3-1.2v4.9h5.1v3.2h-5.1v7.5c-0.1,1.1,0.6,2,1.7,2.2c0.2,0,0.4,0,0.5,0c0.9,0,1.8-0.3,2.5-0.9L731.6,713.2z"/>
				<path id="Path_183" class="st10" d="M734.5,691.3h4.3v9.7c0.9-1.9,3-3.1,5.1-3c3.3,0,5.7,1.9,5.7,5.8v10.4h-4.4V705
					c0-2.7-1.2-3.6-2.8-3.6c-1.8,0-3.7,1.2-3.7,4.4v8.4h-4.3L734.5,691.3z"/>
				<path id="Path_184" class="st10" d="M752.9,711.2l2.5-2.5c1.1,1.7,3,2.7,5,2.6c1.7,0,2.7-0.5,2.7-1.5c0-0.6-0.3-1.2-1.7-1.5
					l-2.8-0.6c-3.7-0.8-5.1-2.3-5.1-4.7c0-2.6,2.3-5,7-5c3.2,0,5.6,1,6.9,3l-2.6,2.5c-0.9-1.4-2.5-2.3-4.2-2.3
					c-1.8,0-2.8,0.6-2.8,1.6c0,0.6,0.5,1.2,2.1,1.5l3.2,0.6c3.1,0.6,4.4,2.2,4.4,4.3c0,3-2.5,5.3-7.1,5.3
					C757.6,714.6,754.8,713.4,752.9,711.2z"/>
				<path id="Path_185" class="st11" d="M810.5,650.8c-5.6,0-9.2-3.8-9.2-10s3.6-10,9.2-10c3.9,0,6.6,1.6,7.8,4.8l-3,1.3
					c-0.5-2.1-2.5-3.5-4.6-3.4c-3.6,0-6,2.7-6,7.3c0,4.6,2.2,7.3,5.9,7.3c2.3,0.1,4.4-1.4,5-3.7l3,1
					C817.4,648.8,814.1,651,810.5,650.8z"/>
				<path id="Path_186" class="st11" d="M835.9,643.1c0,4.8-3,7.7-7.3,7.7s-7.4-2.9-7.4-7.7s3-7.7,7.4-7.7S835.9,638.3,835.9,643.1z
					 M824.4,643.1c0,3.3,1.6,5.2,4.2,5.2c2.6,0,4.2-1.9,4.2-5.2s-1.6-5.2-4.2-5.2C826,638,824.4,639.8,824.4,643.1z"/>
				<path id="Path_187" class="st11" d="M838.6,647.5l2.2-1.9c1,1.7,2.8,2.8,4.8,2.7c1.8,0,3-0.6,3-1.8c0-0.7-0.4-1.4-1.8-1.7
					l-3.1-0.6c-3.1-0.6-4.4-2-4.4-4.2c0-2.4,2.2-4.5,6.1-4.5c2.9,0,5.1,1.1,6.2,3l-2.2,1.8c-0.8-1.5-2.3-2.4-3.9-2.3
					c-1.9,0-3,0.8-3,1.9c0,0.8,0.5,1.4,2,1.7l3.4,0.7c2.8,0.6,3.9,1.9,3.9,3.8c0,2.8-2.4,4.8-6.2,4.8
					C842.8,651,840.2,649.7,838.6,647.5z"/>
				<path id="Path_188" class="st11" d="M865.1,649.6c-1.1,0.9-2.5,1.3-3.9,1.3c-2.6,0-4.6-1.1-4.6-4.2v-8.4h-2.8v-2.5h2.8v-3.5
					l3.2-0.9v4.3h5.1v2.5h-5.1v7.9c-0.1,1,0.6,2,1.7,2.1c0.1,0,0.3,0,0.4,0c0.9,0,1.8-0.3,2.5-0.9L865.1,649.6z"/>
				<path id="Path_189" class="st11" d="M891.4,643.1c0,4.8-3,7.7-7.3,7.7s-7.4-2.9-7.4-7.7s3-7.7,7.4-7.7S891.4,638.3,891.4,643.1z
					 M879.9,643.1c0,3.3,1.6,5.2,4.2,5.2s4.2-1.9,4.2-5.2s-1.6-5.2-4.2-5.2S879.9,639.8,879.9,643.1z"/>
				<path id="Path_190" class="st11" d="M899.3,635.8h4.8v2.5h-4.7v12.3h-3.2v-12.3h-2.8v-2.5h2.8v-2.1c0-3,1.9-4.7,5.2-4.7
					c1-0.1,2,0.2,2.8,0.7l-0.6,2.3c-0.5-0.3-1.1-0.4-1.7-0.4c-1.6,0-2.6,0.7-2.6,2.4L899.3,635.8z"/>
				<path id="Path_191" class="st11" d="M927.1,643.6c0,4.5-2.6,7.2-7.1,7.2c-4.8,0-7-2.8-6.2-7.1l3-0.6c-0.5,3.4,0.4,4.9,3.2,4.9
					c3,0,3.9-1.7,3.9-5.1v-12h3.2L927.1,643.6z"/>
				<path id="Path_192" class="st11" d="M945.7,643.1c0,4.8-3,7.7-7.3,7.7s-7.4-2.9-7.4-7.7s3-7.7,7.4-7.7S945.7,638.3,945.7,643.1z
					 M934.1,643.1c0,3.3,1.6,5.2,4.2,5.2s4.2-1.9,4.2-5.2s-1.6-5.2-4.2-5.2S934.2,639.8,934.1,643.1L934.1,643.1z"/>
				<path id="Path_193" class="st11" d="M964.1,643.2c0,4.8-2.9,7.6-6.6,7.6c-2.1,0-4.1-1.2-5-3.1l-0.1,2.8h-2.8v-21.4h3.2v9.1
					c1-1.7,2.8-2.8,4.8-2.8C961.2,635.5,964.1,638.3,964.1,643.2z M961,643.2c0-3.2-1.5-5.1-4-5.1c-2.6,0-4.1,2-4.1,5.2
					c0,3.1,1.6,5.1,4.1,5.1C959.5,648.3,961,646.4,961,643.2L961,643.2z"/>
				<path id="Path_194" class="st11" d="M992.3,643.1c0,4.8-2.9,7.7-6.6,7.7c-2,0-3.8-1-4.8-2.7v8.6h-3.2v-21h2.8l0.1,2.8
					c0.9-1.9,2.9-3.1,5.1-3C989.4,635.5,992.3,638.3,992.3,643.1z M989.1,643.1c0-3.2-1.5-5.2-4-5.2c-2.5,0-4.1,2-4.1,5.2
					s1.6,5.1,4.1,5.1C987.5,648.2,989.1,646.4,989.1,643.1L989.1,643.1z"/>
				<path id="Path_195" class="st11" d="M1010,643.1c0,4.8-3,7.7-7.3,7.7s-7.4-2.9-7.4-7.7s3-7.7,7.4-7.7S1010,638.3,1010,643.1z
					 M998.5,643.1c0,3.3,1.6,5.2,4.2,5.2s4.2-1.9,4.2-5.2s-1.6-5.2-4.2-5.2C1000.1,638,998.5,639.8,998.5,643.1z"/>
				<path id="Path_196" class="st11" d="M1012.7,647.5l2.2-1.9c1,1.7,2.8,2.8,4.8,2.7c1.8,0,3-0.6,3-1.8c0-0.7-0.4-1.4-1.8-1.7
					l-3.1-0.6c-3.1-0.6-4.4-2-4.4-4.2c0-2.4,2.2-4.5,6.1-4.5c2.9,0,5.1,1.1,6.2,3l-2.2,1.8c-0.8-1.5-2.3-2.4-3.9-2.3
					c-1.9,0-3,0.8-3,1.9c0,0.8,0.5,1.4,2,1.7l3.4,0.7c2.8,0.6,3.9,1.9,3.9,3.8c0,2.8-2.4,4.8-6.2,4.8
					C1016.9,650.9,1014.3,649.7,1012.7,647.5z"/>
				<path id="Path_197" class="st11" d="M1039.3,649.6c-1.1,0.9-2.5,1.3-3.9,1.3c-2.6,0-4.6-1.1-4.6-4.2v-8.4h-2.8v-2.5h2.8v-3.5
					l3.2-0.9v4.3h5.1v2.5h-5.1v7.9c-0.1,1,0.6,2,1.7,2.1c0.1,0,0.3,0,0.4,0c0.9,0,1.8-0.3,2.5-0.9L1039.3,649.6z"/>
				<path id="Path_198" class="st11" d="M1041.6,631.3c0-1.2,0.8-1.9,2.1-1.9c1-0.1,1.9,0.5,2.1,1.5c0,0.1,0,0.3,0,0.4
					c-0.1,1.2-1.1,2.1-2.2,2C1042.6,633.2,1041.7,632.4,1041.6,631.3z M1045.3,650.5h-3.2v-14.8h3.2V650.5z"/>
				<path id="Path_199" class="st11" d="M1063.8,641v9.6h-3.2v-8.6c0-2.9-1.4-3.9-3.2-3.9c-1.9,0-4,1.2-4,4.6v7.9h-3.2v-14.8h2.8
					l0.1,2.5c1-1.8,2.9-3,5-2.8C1061.3,635.5,1063.8,637.3,1063.8,641z"/>
				<path id="Path_200" class="st11" d="M1078.9,637c1,0.9,1.6,2.1,1.6,3.5c0,3-2.5,5-6.4,5c-0.7,0-1.5-0.1-2.2-0.2
					c-1.1,0.3-1.5,0.9-1.5,1.6c0,1,0.7,1.4,2.1,1.4h4.4c3,0,4.7,1.4,4.7,3.7c0,3.1-3.2,4.9-7.4,4.9c-4.9,0-7.1-1.7-7.1-3.9
					c0-1.5,1.1-2.7,2.5-2.9c-1.1-0.4-1.8-1.5-1.8-2.6c0-1.3,0.9-2.5,2.2-2.9c-1.5-0.8-2.4-2.4-2.3-4.1c0-3,2.5-5,6.3-5
					c1.1,0,2.2,0.2,3.3,0.6c0.3-2.1,2.1-3.6,4.2-3.4l0.5,2.5C1080.2,635,1079.1,635.7,1078.9,637z M1071.6,650.8
					c-0.9-0.1-1.8,0.5-1.9,1.5c0,0,0,0.1,0,0.1c0,1.3,1.7,2.1,4.5,2.1c3.2,0,4.8-1,4.8-2.2c0-0.9-0.6-1.5-2.5-1.5L1071.6,650.8z
					 M1077.2,640.5c0.2-1.8-1-3.4-2.8-3.6c-1.8-0.2-3.4,1-3.6,2.8c-0.2,1.8,1,3.4,2.8,3.6c0.1,0,0.3,0,0.4,0c1.6,0.2,3-1,3.2-2.6
					C1077.2,640.6,1077.2,640.5,1077.2,640.5L1077.2,640.5z"/>
				<path id="Path_201" class="st11" d="M815.8,687.6l-0.2,2.2c-0.5,0.2-1.1,0.3-1.7,0.3c-1.4,0.2-2.8-0.7-3.2-2.1
					c-1.1,1.4-2.9,2.3-4.7,2.2c-2.8,0-4.9-1.4-4.9-4c0-2.2,1.5-3.6,4.1-4.2l5.3-1v-0.5c0.2-1.6-1-2.9-2.5-3.1c-0.2,0-0.3,0-0.5,0
					c-1.7-0.1-3.2,1-3.7,2.6l-2.7-1.1c0.7-2.4,3-4,6.5-4c3.5,0,6.1,1.7,6.1,5.3v6.6c-0.1,0.5,0.3,1,0.8,1.1c0.1,0,0.2,0,0.3,0
					C815.1,687.8,815.4,687.7,815.8,687.6L815.8,687.6z M810.5,684.4v-1.2l-3.7,0.8c-1.7,0.3-2.5,0.8-2.5,2s0.9,1.8,2.3,1.8
					C808.6,687.7,810.5,686.8,810.5,684.4L810.5,684.4z"/>
				<path id="Path_202" class="st11" d="M832.3,680.3v9.6h-3.2v-8.6c0-2.9-1.4-3.9-3.2-3.9c-1.9,0-4,1.2-4,4.6v7.9h-3.2v-14.8h2.8
					l0.1,2.5c1-1.8,2.9-3,5-2.8C829.9,674.8,832.3,676.6,832.3,680.3z"/>
				<path id="Path_203" class="st11" d="M850.7,668.5v21.4h-2.8l-0.2-2.8c-0.9,2-2.8,3.2-5,3.1c-3.7,0-6.5-2.8-6.5-7.6
					c0-4.9,3-7.7,6.7-7.7c1.9-0.1,3.7,1,4.6,2.8v-9.1L850.7,668.5z M847.6,682.3c0-3.1-1.6-4.9-4-4.9c-2.6,0-4.2,1.9-4.2,5.1
					c0,3.2,1.5,5.2,4,5.2C846,687.7,847.5,685.7,847.6,682.3L847.6,682.3z"/>
				<path id="Path_204" class="st11" d="M885.6,689.9h-2.9v-11.3l0.2-5.4l0,0l-5.9,16.7h-2.6l-5.9-16.7l0,0l0.2,5.4v11.3h-2.9v-19.5
					h4.7l3.9,11.3l1.4,4.6h0.1l1.4-4.6l3.9-11.3h4.6L885.6,689.9z"/>
				<path id="Path_205" class="st11" d="M904.6,687.6l-0.2,2.2c-0.5,0.2-1.1,0.3-1.7,0.3c-1.4,0.2-2.8-0.7-3.2-2.1
					c-1.1,1.4-2.9,2.3-4.7,2.2c-2.8,0-4.9-1.4-4.9-4c0-2.2,1.5-3.6,4.1-4.2l5.3-1v-0.5c0.2-1.6-1-2.9-2.5-3.1c-0.2,0-0.3,0-0.5,0
					c-1.7-0.1-3.2,1-3.7,2.6l-2.7-1.1c0.7-2.4,3-4,6.5-4s6.1,1.7,6.1,5.3v6.6c-0.1,0.5,0.3,1,0.8,1.1c0.1,0,0.2,0,0.3,0
					C903.9,687.8,904.2,687.7,904.6,687.6z M899.3,684.4v-1.2l-3.7,0.8c-1.7,0.3-2.5,0.8-2.5,2s0.9,1.8,2.3,1.8
					C897.5,687.7,899.3,686.8,899.3,684.4L899.3,684.4z"/>
				<path id="Path_206" class="st11" d="M907.6,675.1h2.7l0.3,2.7c0.7-1.9,2.6-3.1,4.6-3c0.6,0,1.1,0.1,1.6,0.3l-0.4,2.8
					c-0.6-0.2-1.2-0.3-1.8-0.3c-1.9,0-3.8,1.4-3.8,4.4v7.8h-3.2L907.6,675.1z"/>
				<path id="Path_207" class="st11" d="M925.9,683l-2.9,3v3.9h-3.2v-21.4h3.2v13.9l7-7.2h3.8l-5.6,5.8l6,9h-3.7L925.9,683z"/>
				<path id="Path_208" class="st11" d="M949.4,683.5h-10.8c0.3,2.8,1.9,4.2,4.3,4.2c1.6,0.1,3.1-0.7,3.9-2.1l2.5,1.2
					c-1.2,2.3-3.7,3.6-6.3,3.5c-4.4,0-7.4-2.9-7.4-7.7s3-7.7,7.3-7.7c3.5-0.2,6.6,2.5,6.8,6c0,0.3,0,0.5,0,0.8
					C949.5,682.2,949.5,682.9,949.4,683.5z M938.7,681h7.8c0.1-1.9-1.4-3.6-3.3-3.7c-0.1,0-0.3,0-0.4,0
					C940.5,677.3,939.1,678.7,938.7,681L938.7,681z"/>
				<path id="Path_209" class="st11" d="M962.8,688.9c-1.1,0.9-2.5,1.3-3.9,1.3c-2.6,0-4.6-1.1-4.6-4.2v-8.4h-2.8v-2.5h2.8v-3.5
					l3.2-0.9v4.3h5.1v2.5h-5.1v7.9c-0.1,1.1,0.7,2,1.8,2.1c0.1,0,0.2,0,0.4,0c0.9,0,1.8-0.3,2.5-0.9L962.8,688.9z"/>
				<path id="Path_210" class="st11" d="M965.1,670.7c0-1.2,0.8-1.9,2.1-1.9c1-0.1,1.9,0.5,2.1,1.5c0,0.1,0,0.3,0,0.4
					c-0.1,1.2-1.1,2.1-2.2,2C966.1,672.6,965.2,671.7,965.1,670.7z M968.8,689.9h-3.1v-14.8h3.2L968.8,689.9z"/>
				<path id="Path_211" class="st11" d="M987.3,680.3v9.6h-3.2v-8.6c0-2.9-1.4-3.9-3.2-3.9c-1.9,0-4,1.2-4,4.6v7.9h-3.2v-14.8h2.8
					l0.1,2.5c1-1.8,2.9-3,5-2.8C984.8,674.8,987.3,676.6,987.3,680.3z"/>
				<path id="Path_212" class="st11" d="M1002.4,676.3c1,0.9,1.6,2.2,1.6,3.5c0,3-2.5,5-6.4,5c-0.7,0-1.5-0.1-2.2-0.2
					c-1.1,0.3-1.5,0.9-1.5,1.6c0,1,0.7,1.5,2.1,1.5h4.4c3,0,4.7,1.4,4.7,3.7c0,3.1-3.2,4.9-7.4,4.9c-4.9,0-7.1-1.7-7.1-3.9
					c0-1.5,1.1-2.7,2.5-2.9c-1.1-0.4-1.8-1.5-1.8-2.6c0-1.3,0.9-2.5,2.2-2.9c-1.5-0.8-2.4-2.4-2.3-4.1c0-3,2.5-5,6.3-5
					c1.1,0,2.2,0.2,3.3,0.6c0.3-2.1,2.1-3.6,4.2-3.4l0.5,2.4C1003.7,674.4,1002.6,675.1,1002.4,676.3z M995.2,690.2
					c-0.9-0.1-1.8,0.5-1.9,1.5c0,0,0,0.1,0,0.1c0,1.3,1.7,2.1,4.5,2.1c3.2,0,4.8-1,4.8-2.2c0-0.9-0.6-1.5-2.5-1.5L995.2,690.2z
					 M1000.7,679.9c0.2-1.8-1-3.3-2.8-3.6c-1.8-0.2-3.3,1-3.6,2.8c-0.2,1.8,1,3.3,2.8,3.6c0.1,0,0.3,0,0.4,0c1.6,0.1,3-1.1,3.2-2.7
					C1000.7,680,1000.7,679.9,1000.7,679.9L1000.7,679.9z"/>
				<path id="Path_213" class="st10" d="M598.1,885.2l-14.8,7c-1.5-5-4.8-8-10.6-8c-8.2,0-13.3,7.8-13.3,20.5v1.7l0.2,0.6
					c2.4-6.3,10.2-9.8,17.1-9.8c12.9,0,22.4,7.9,22.4,21.2c0,14.4-10.3,23.4-26.2,23.4c-18,0-30.2-12.1-30.2-35.4
					c0-24.8,13.6-36.6,31.1-36.6C585.1,869.7,594.3,873.8,598.1,885.2z M562.6,918.7c0,5.5,4.4,9.3,9.9,9.3c6.4,0,10-3.4,10-9.3
					c0-5.9-3.6-9.3-10-9.3C567,909.4,562.6,913,562.6,918.7L562.6,918.7z"/>
				<path id="Path_214" class="st10" d="M515.8,960.7h3.9l0.2,2.9c1-2,3-3.3,5.2-3.2c2.2-0.1,4.3,1.1,5.2,3.1c1-2,3.1-3.2,5.4-3.1
					c2.9-0.2,5.5,2,5.7,4.9c0,0.3,0,0.6,0,0.8l0,10.4H537v-9.6c0-2.3-1.1-3.2-2.7-3.2c-1.9,0-3.5,1.5-3.5,4.2v8.5h-4.3V967
					c0-2.3-1.1-3.2-2.8-3.2c-1.6,0-3.5,1.2-3.5,4.3v8.4h-4.4L515.8,960.7z"/>
				<path id="Path_215" class="st10" d="M561.2,968.7c0,5.2-3.3,8.3-8.1,8.3c-4.8,0-8.1-3.1-8.1-8.3s3.3-8.3,8.1-8.3
					C557.9,960.4,561.2,963.5,561.2,968.7z M549.3,968.7c0,3.4,1.4,5,3.8,5c2.4,0,3.7-1.7,3.7-5c0-3.4-1.4-5-3.7-5
					C550.7,963.7,549.3,965.3,549.3,968.7z"/>
				<path id="Path_216" class="st10" d="M580.1,966.2v10.4h-4.3v-9.2c0-2.7-1.2-3.6-2.9-3.6c-1.8,0-3.6,1.2-3.6,4.3v8.4h-4.4v-15.9
					h3.9l0.2,3c0.9-2.1,3.1-3.4,5.4-3.3C577.6,960.4,580.1,962.4,580.1,966.2z"/>
				<path id="Path_217" class="st10" d="M595.4,975.6c-1.3,0.9-2.8,1.3-4.3,1.3c-3.2,0-5.4-1.3-5.4-4.8V964h-2.9v-3.2h2.9v-3.7
					l4.4-1.2v4.9h5.1v3.2H590v7.5c-0.1,1.1,0.6,2,1.7,2.2c0.2,0,0.3,0,0.5,0c0.9,0,1.8-0.3,2.5-0.9L595.4,975.6z"/>
				<path id="Path_218" class="st10" d="M598.3,953.8h4.4v9.7c0.9-1.9,3-3.1,5.1-3c3.3,0,5.7,1.9,5.7,5.8v10.4h-4.4v-9.1
					c0-2.7-1.2-3.6-2.8-3.6c-1.8,0-3.7,1.2-3.7,4.4v8.4h-4.4L598.3,953.8z"/>
				<path id="Path_219" class="st10" d="M616.7,973.7l2.5-2.5c1.1,1.7,3,2.6,5.1,2.6c1.7,0,2.7-0.5,2.7-1.5c0-0.6-0.3-1.2-1.8-1.5
					l-2.8-0.6c-3.7-0.8-5.1-2.3-5.1-4.7c0-2.6,2.4-5,7-5c3.2,0,5.6,1,6.9,3l-2.6,2.5c-0.9-1.4-2.5-2.3-4.2-2.3
					c-1.8,0-2.8,0.6-2.8,1.6c0,0.6,0.5,1.2,2.1,1.5l3.2,0.6c3.1,0.6,4.4,2.2,4.4,4.3c0,3-2.5,5.3-7,5.3
					C621.4,977.1,618.6,975.9,616.7,973.7z"/>
				<path id="Path_220" class="st11" d="M676.8,893.8c-5.6,0-9.2-3.8-9.2-10s3.6-10,9.2-10c3.9,0,6.6,1.6,7.8,4.8l-3,1.3
					c-0.5-2.1-2.5-3.5-4.6-3.4c-3.6,0-6,2.7-6,7.3c0,4.6,2.2,7.3,5.9,7.3c2.3,0.1,4.4-1.4,5-3.7l3,1
					C683.7,891.7,680.4,894,676.8,893.8z"/>
				<path id="Path_221" class="st11" d="M702.1,886.1c0,4.8-3,7.7-7.3,7.7s-7.4-2.9-7.4-7.7s3-7.7,7.4-7.7S702.1,881.3,702.1,886.1z
					 M690.6,886.1c0,3.3,1.6,5.2,4.2,5.2s4.2-1.9,4.2-5.2s-1.6-5.2-4.2-5.2S690.6,882.7,690.6,886.1L690.6,886.1z"/>
				<path id="Path_222" class="st11" d="M704.8,890.5l2.2-1.9c1,1.7,2.8,2.8,4.8,2.7c1.8,0,3-0.6,3-1.8c0-0.7-0.4-1.4-1.8-1.7
					l-3.1-0.6c-3.1-0.6-4.4-2-4.4-4.2c0-2.4,2.2-4.5,6.1-4.5c2.9,0,5.1,1.1,6.2,3l-2.2,1.8c-0.8-1.5-2.3-2.4-3.9-2.3
					c-1.9,0-3,0.8-3,1.9c0,0.8,0.5,1.4,2,1.7l3.4,0.7c2.8,0.6,3.9,1.9,3.9,3.8c0,2.8-2.4,4.8-6.2,4.8
					C709.1,893.9,706.5,892.7,704.8,890.5z"/>
				<path id="Path_223" class="st11" d="M731.4,892.5c-1.1,0.9-2.5,1.3-3.9,1.3c-2.6,0-4.6-1.1-4.6-4.2v-8.4h-2.8v-2.5h2.8v-3.5
					l3.2-0.9v4.3h5.1v2.5h-5.1v7.9c-0.1,1,0.6,2,1.7,2.1c0.1,0,0.3,0,0.4,0c0.9,0,1.8-0.3,2.5-0.9L731.4,892.5z"/>
				<path id="Path_224" class="st11" d="M757.6,886.1c0,4.8-3,7.7-7.3,7.7s-7.4-2.9-7.4-7.7s3-7.7,7.4-7.7
					C754.6,878.4,757.6,881.3,757.6,886.1z M746.1,886.1c0,3.3,1.6,5.2,4.2,5.2s4.2-1.9,4.2-5.2s-1.6-5.2-4.2-5.2
					S746.1,882.7,746.1,886.1z"/>
				<path id="Path_225" class="st11" d="M765.6,878.7h4.8v2.5h-4.7v12.3h-3.2v-12.3h-2.8v-2.5h2.8v-2.1c0-3,1.9-4.7,5.2-4.7
					c1-0.1,2,0.2,2.8,0.7l-0.6,2.3c-0.5-0.3-1.1-0.4-1.7-0.4c-1.6,0-2.6,0.6-2.6,2.4L765.6,878.7z"/>
				<path id="Path_226" class="st11" d="M781.8,878.7h2.8l0.1,2.5c5.1,1.8,10.8,0.8,14.9-2.8c2.8-0.2,5.3,2,5.4,4.8
					c0,0.2,0,0.5,0,0.7v9.6h-3.2v-9c0-2.4-1.3-3.4-3-3.4c-2.1,0-3.9,1.6-3.9,4.4v8h-3.2v-9c0-2.4-1.3-3.4-3-3.4s-3.8,1.3-3.8,4.6
					v7.9h-3.2L781.8,878.7z"/>
				<path id="Path_227" class="st11" d="M809.4,874.2c0-1.2,0.8-1.9,2.1-1.9c1-0.1,1.9,0.5,2.1,1.5c0,0.1,0,0.3,0,0.4
					c0.1,1-0.7,1.9-1.7,2c-0.1,0-0.3,0-0.4,0c-1,0.1-2-0.6-2.1-1.6C809.4,874.5,809.4,874.4,809.4,874.2z M813.1,893.5h-3.2v-14.8
					h3.2V893.5z"/>
				<path id="Path_228" class="st11" d="M816.6,890.5l2.2-1.9c1,1.7,2.8,2.8,4.8,2.7c1.8,0,3-0.6,3-1.8c0-0.7-0.4-1.4-1.8-1.7
					l-3.1-0.6c-3.1-0.6-4.4-2-4.4-4.2c0-2.4,2.2-4.5,6.1-4.5c2.9,0,5.1,1.1,6.2,3l-2.2,1.8c-0.8-1.5-2.3-2.4-3.9-2.3
					c-1.9,0-3,0.8-3,1.9c0,0.8,0.5,1.4,2,1.7l3.4,0.7c2.8,0.6,3.9,1.9,3.9,3.8c0,2.8-2.4,4.8-6.2,4.8
					C820.9,893.9,818.3,892.7,816.6,890.5z"/>
				<path id="Path_229" class="st11" d="M832.3,890.5l2.2-1.9c1,1.7,2.8,2.8,4.8,2.7c1.8,0,3-0.6,3-1.8c0-0.7-0.4-1.4-1.8-1.7
					l-3.1-0.6c-3.1-0.6-4.4-2-4.4-4.2c0-2.4,2.2-4.5,6.1-4.5c2.9,0,5.1,1.1,6.2,3l-2.2,1.8c-0.8-1.5-2.3-2.4-3.9-2.3
					c-1.9,0-3,0.8-3,1.9c0,0.8,0.5,1.4,2,1.7l3.4,0.7c2.8,0.6,3.9,1.9,3.9,3.8c0,2.8-2.4,4.8-6.2,4.8
					C836.5,893.9,833.9,892.7,832.3,890.5z"/>
				<path id="Path_230" class="st11" d="M862.2,887h-10.8c0.3,2.8,1.9,4.2,4.3,4.2c1.6,0.1,3.1-0.7,3.9-2.1l2.5,1.2
					c-1.2,2.3-3.7,3.6-6.3,3.5c-4.4,0-7.4-2.9-7.4-7.7s3-7.7,7.3-7.7c3.5-0.2,6.6,2.5,6.8,6c0,0.3,0,0.5,0,0.8
					C862.3,885.8,862.3,886.4,862.2,887z M851.4,884.6h7.8c0.1-1.9-1.4-3.6-3.3-3.7c-0.1,0-0.2,0-0.4,0
					C853.3,880.9,851.8,882.2,851.4,884.6L851.4,884.6z"/>
				<path id="Path_231" class="st11" d="M879.9,872.1v21.4h-2.8l-0.2-2.8c-0.9,2-2.8,3.2-5,3.1c-3.7,0-6.5-2.8-6.5-7.6
					c0-4.9,3-7.7,6.7-7.7c1.9-0.1,3.7,1,4.6,2.8v-9.1L879.9,872.1z M876.7,885.9c0-3.1-1.6-4.9-4-4.9c-2.6,0-4.2,1.9-4.2,5.1
					s1.5,5.2,4.1,5.2S876.7,889.2,876.7,885.9L876.7,885.9z"/>
				<path id="Path_232" class="st11" d="M668.7,913.4h7.7c4.7,0,6.8,2,6.8,5.3c0.1,2.1-1.4,3.9-3.5,4.3l0,0c2.3,0.2,4,2.2,4,4.5
					c0,3.3-2.5,5.4-7.1,5.4h-7.8L668.7,913.4z M676.1,921.8c2.5,0,3.7-0.9,3.7-2.9c0-1.9-1.2-2.9-3.7-2.9h-4.3v5.7L676.1,921.8z
					 M676.6,930.2c2.5,0,3.7-1.1,3.7-2.9c0-1.9-1.2-2.9-3.7-2.9h-4.8v5.8L676.6,930.2z"/>
				<path id="Path_233" class="st11" d="M687.7,927.8v-9.7h3.2v8.9c0,2.7,1.2,3.5,3.2,3.5s3.9-1.3,3.9-4.5v-8h3.2v14.8h-2.8
					l-0.1-2.4c-1,1.8-3,2.9-5.1,2.7C690.1,933.1,687.7,931.6,687.7,927.8z"/>
				<path id="Path_234" class="st11" d="M704.7,929.9l2.2-1.9c1,1.7,2.8,2.8,4.8,2.7c1.8,0,3-0.6,3-1.8c0-0.7-0.4-1.4-1.8-1.7
					l-3.1-0.6c-3.1-0.6-4.4-2-4.4-4.2c0-2.4,2.2-4.5,6.1-4.5c2.9,0,5.1,1.1,6.2,3l-2.2,1.8c-0.8-1.5-2.3-2.4-3.9-2.3
					c-1.9,0-3,0.8-3,1.9c0,0.8,0.5,1.4,2,1.7l3.4,0.7c2.8,0.6,3.9,1.9,3.9,3.8c0,2.8-2.4,4.8-6.2,4.8
					C709,933.3,706.4,932,704.7,929.9z"/>
				<path id="Path_235" class="st11" d="M721.1,913.6c0-1.2,0.8-1.9,2.1-1.9c1-0.1,1.9,0.5,2.1,1.5c0,0.1,0,0.3,0,0.4
					c0.1,1-0.7,1.9-1.7,2c-0.1,0-0.3,0-0.4,0c-1,0.1-2-0.6-2.1-1.6C721.1,913.9,721.1,913.8,721.1,913.6z M724.8,932.9h-3.2v-14.8
					h3.2V932.9z"/>
				<path id="Path_236" class="st11" d="M743.2,923.3v9.6h-3.2v-8.6c0-2.9-1.4-3.9-3.2-3.9c-1.9,0-4,1.2-4,4.6v7.9h-3.2v-14.8h2.8
					l0.1,2.5c1-1.8,2.9-3,5-2.8C740.8,917.8,743.2,919.6,743.2,923.3z"/>
				<path id="Path_237" class="st11" d="M761,926.4h-10.8c0.3,2.8,1.9,4.2,4.3,4.2c1.6,0.1,3.1-0.7,3.9-2.1l2.5,1.2
					c-1.2,2.3-3.7,3.6-6.3,3.5c-4.4,0-7.4-2.9-7.4-7.7s3-7.7,7.3-7.7c3.5-0.2,6.6,2.5,6.8,6c0,0.3,0,0.5,0,0.8
					C761.1,925.2,761.1,925.8,761,926.4z M750.2,924h7.8c0.1-1.9-1.4-3.6-3.3-3.7c-0.1,0-0.2,0-0.4,0
					C752.1,920.3,750.7,921.6,750.2,924L750.2,924z"/>
				<path id="Path_238" class="st11" d="M763.8,929.9l2.2-1.9c1,1.7,2.8,2.8,4.8,2.7c1.8,0,3-0.6,3-1.8c0-0.7-0.4-1.4-1.8-1.7
					l-3.1-0.6c-3.1-0.6-4.4-2-4.4-4.2c0-2.4,2.2-4.5,6.1-4.5c2.9,0,5.1,1.1,6.2,3l-2.2,1.8c-0.8-1.5-2.3-2.4-3.9-2.3
					c-1.9,0-3,0.8-3,1.9c0,0.8,0.5,1.4,2,1.7l3.4,0.7c2.8,0.6,3.9,1.9,3.9,3.8c0,2.8-2.4,4.8-6.2,4.8
					C768,933.3,765.4,932,763.8,929.9z"/>
				<path id="Path_239" class="st11" d="M779.4,929.9l2.2-1.9c1,1.7,2.8,2.8,4.8,2.7c1.8,0,3-0.6,3-1.8c0-0.7-0.4-1.4-1.8-1.7
					l-3.1-0.6c-3.1-0.6-4.4-2-4.4-4.2c0-2.4,2.2-4.5,6.1-4.5c2.9,0,5.1,1.1,6.2,3l-2.2,1.8c-0.8-1.5-2.3-2.4-3.9-2.3
					c-1.9,0-3,0.8-3,1.9c0,0.8,0.5,1.4,2,1.7l3.4,0.7c2.8,0.6,3.9,1.9,3.9,3.8c0,2.8-2.4,4.8-6.2,4.8
					C783.6,933.3,781,932,779.4,929.9z"/>
				<path id="Path_240" class="st11" d="M823.7,923.1c0,6.2-3.5,10-9.2,10s-9.2-3.8-9.2-10s3.5-10,9.2-10S823.7,916.9,823.7,923.1z
					 M808.6,923.1c0,4.6,2.2,7.3,5.9,7.3c3.7,0,5.9-2.7,5.9-7.3s-2.2-7.3-5.9-7.3C810.8,915.8,808.6,918.5,808.6,923.1z"/>
				<path id="Path_241" class="st11" d="M842.3,925.4c0,4.8-2.9,7.7-6.6,7.7c-2,0-3.8-1-4.8-2.7v8.6h-3.2v-21h2.8l0.1,2.8
					c0.9-1.9,2.9-3.1,5.1-3C839.4,917.8,842.3,920.6,842.3,925.4z M839.2,925.4c0-3.2-1.5-5.2-4-5.2s-4.1,2-4.1,5.2
					c0,3.2,1.6,5.1,4.1,5.1C837.6,930.5,839.1,928.7,839.2,925.4L839.2,925.4z"/>
				<path id="Path_242" class="st11" d="M860.8,925.4c0,4.8-2.9,7.7-6.6,7.7c-2,0-3.8-1-4.8-2.7v8.6h-3.2v-21h2.8l0.1,2.8
					c0.9-1.9,2.9-3.1,5-3C858,917.8,860.8,920.6,860.8,925.4z M857.7,925.4c0-3.2-1.5-5.2-4-5.2s-4.1,2-4.1,5.2
					c0,3.2,1.6,5.1,4.1,5.1C856.1,930.5,857.7,928.7,857.7,925.4L857.7,925.4z"/>
				<path id="Path_243" class="st11" d="M878.6,925.5c0,4.8-3,7.7-7.3,7.7c-4.3,0-7.4-2.9-7.4-7.7s3-7.7,7.4-7.7
					C875.6,917.8,878.6,920.6,878.6,925.5z M867.1,925.5c0,3.3,1.6,5.2,4.2,5.2c2.6,0,4.2-1.9,4.2-5.2s-1.6-5.2-4.2-5.2
					C868.7,920.3,867.1,922.1,867.1,925.5z"/>
				<path id="Path_244" class="st11" d="M882.6,918.1h2.7l0.3,2.7c0.7-1.9,2.6-3.1,4.6-3c0.6,0,1.1,0.1,1.6,0.3l-0.4,2.8
					c-0.6-0.2-1.2-0.3-1.8-0.3c-1.9,0-3.8,1.4-3.8,4.4v7.8h-3.2L882.6,918.1z"/>
				<path id="Path_245" class="st11" d="M903.7,931.9c-1.1,0.9-2.5,1.3-3.9,1.3c-2.6,0-4.6-1.1-4.6-4.2v-8.4h-2.8v-2.5h2.8v-3.5
					l3.2-0.9v4.3h5.1v2.5h-5.1v7.9c-0.1,1.1,0.7,2,1.8,2.1c0.1,0,0.2,0,0.4,0c0.9,0,1.8-0.3,2.5-0.9L903.7,931.9z"/>
				<path id="Path_246" class="st11" d="M906.5,927.8v-9.7h3.2v8.9c0,2.7,1.2,3.5,3.2,3.5s3.9-1.3,3.9-4.5v-8h3.2v14.8h-2.8
					l-0.1-2.4c-1,1.9-2.8,2.7-5.2,2.7C908.9,933.1,906.5,931.6,906.5,927.8z"/>
				<path id="Path_247" class="st11" d="M938.4,923.3v9.6h-3.2v-8.6c0-2.9-1.4-3.9-3.2-3.9c-1.9,0-4,1.2-4,4.6v7.9h-3.2v-14.8h2.8
					l0.1,2.5c1-1.8,2.9-3,5-2.8C935.9,917.8,938.4,919.6,938.4,923.3z"/>
				<path id="Path_248" class="st11" d="M942.6,913.6c0-1.2,0.8-1.9,2.1-1.9c1-0.1,1.9,0.5,2.1,1.5c0,0.1,0,0.3,0,0.4
					c0.1,1-0.7,1.9-1.7,2c-0.1,0-0.3,0-0.4,0c-1,0.1-2-0.6-2.1-1.6C942.6,913.9,942.6,913.8,942.6,913.6z M946.3,932.9h-3.2v-14.8
					h3.2V932.9z"/>
				<path id="Path_249" class="st11" d="M960.9,931.9c-1.1,0.9-2.5,1.3-3.9,1.3c-2.6,0-4.6-1.1-4.6-4.2v-8.4h-2.8v-2.5h2.8v-3.5
					l3.2-0.9v4.3h5.1v2.5h-5.1v7.9c-0.1,1.1,0.7,2,1.8,2.1c0.1,0,0.2,0,0.4,0c0.9,0,1.8-0.3,2.5-0.9L960.9,931.9z"/>
				<path id="Path_250" class="st11" d="M970.3,934.6c-1.3,3.4-2.8,4.6-5.4,4.6c-1.3,0-2.5-0.3-3.5-1l0.8-2.4c0.7,0.6,1.6,1,2.6,0.9
					c1.1,0,1.9-0.4,2.6-2.1l0.6-1.6l-1.6-3.7l-4.6-11.2h3.5l3.3,9.3l0.9,2.8l1-3l3.1-9h3.3L970.3,934.6z"/>
				<path id="Path_251" class="st11" d="M681.8,950.8v21.4H679l-0.2-2.8c-0.9,2-2.8,3.2-5,3.1c-3.7,0-6.5-2.8-6.5-7.6
					c0-4.9,3-7.7,6.7-7.7c1.9-0.1,3.7,1,4.6,2.8v-9.1L681.8,950.8z M678.7,964.7c0-3.1-1.6-4.9-4-4.9c-2.6,0-4.2,1.9-4.2,5.1
					s1.5,5.2,4,5.2S678.7,968,678.7,964.7z"/>
				<path id="Path_252" class="st11" d="M686.6,967.2v-9.7h3.2v8.9c0,2.7,1.2,3.5,3.2,3.5s3.9-1.3,3.9-4.5v-8h3.2v14.8h-2.8
					l-0.1-2.4c-1,1.9-2.8,2.7-5.2,2.7C689.1,972.5,686.6,971,686.6,967.2z"/>
				<path id="Path_253" class="st11" d="M718,965.8h-10.8c0.3,2.8,1.9,4.2,4.3,4.2c1.6,0.1,3.1-0.7,3.8-2.1l2.5,1.2
					c-1.2,2.3-3.7,3.6-6.3,3.5c-4.4,0-7.4-2.9-7.4-7.7c0-4.8,3-7.7,7.3-7.7c3.5-0.2,6.6,2.5,6.8,6c0,0.3,0,0.5,0,0.8
					C718.1,964.6,718,965.2,718,965.8z M707.2,963.4h7.8c0.1-1.9-1.4-3.6-3.3-3.7c-0.1,0-0.3,0-0.4,0
					C709.1,959.7,707.6,961,707.2,963.4L707.2,963.4z"/>
				<path id="Path_254" class="st11" d="M740.8,971.3c-1.1,0.9-2.5,1.3-3.9,1.3c-2.6,0-4.6-1.2-4.6-4.2V960h-2.8v-2.5h2.8V954
					l3.2-0.9v4.3h5.1v2.5h-5.1v7.9c-0.1,1.1,0.7,2,1.8,2.1c0.1,0,0.2,0,0.4,0c0.9,0,1.8-0.3,2.5-0.9L740.8,971.3z"/>
				<path id="Path_255" class="st11" d="M757.5,964.8c0,4.8-3,7.7-7.3,7.7s-7.4-2.9-7.4-7.7s3-7.7,7.4-7.7S757.5,960,757.5,964.8z
					 M745.9,964.8c0,3.3,1.6,5.2,4.2,5.2s4.2-1.9,4.2-5.2s-1.6-5.2-4.2-5.2S745.9,961.5,745.9,964.8z"/>
				<path id="Path_256" class="st11" d="M770.7,969.9c7.5-5.3,10-7.9,10-11.2c0.1-1.9-1.4-3.4-3.2-3.5c-0.2,0-0.3,0-0.5,0
					c-2.5,0-3.9,1.7-4.1,4.6l-2.8-1.3c0.4-3.7,3-6.1,7.1-6.1c4.3,0,6.8,2.7,6.8,6.1c0,3.7-2.5,6.8-9,11v0.1c0.7-0.1,2.4-0.1,3.2-0.1
					h6.1v2.7h-13.6L770.7,969.9z"/>
				<path id="Path_257" class="st11" d="M798,957.5h2.8l0.1,2.5c5.1,1.8,10.8,0.8,14.9-2.8c2.8-0.2,5.3,2,5.4,4.8c0,0.2,0,0.5,0,0.7
					v9.6h-3.2v-9c0-2.4-1.3-3.4-3-3.4c-2.1,0-3.8,1.6-3.8,4.4v8H808v-9c0-2.4-1.3-3.4-3-3.4c-1.7,0-3.9,1.3-3.9,4.6v7.9h-3.2
					L798,957.5z"/>
				<path id="Path_258" class="st11" d="M839.7,964.8c0,4.8-3,7.7-7.3,7.7s-7.4-2.9-7.4-7.7s3-7.7,7.4-7.7S839.7,960,839.7,964.8z
					 M828.2,964.8c0,3.3,1.6,5.2,4.2,5.2s4.2-1.9,4.2-5.2s-1.6-5.2-4.2-5.2C829.8,959.7,828.2,961.5,828.2,964.8L828.2,964.8z"/>
				<path id="Path_259" class="st11" d="M857.2,962.7v9.6h-3.2v-8.6c0-2.9-1.4-3.9-3.2-3.9c-1.9,0-4,1.2-4,4.6v7.9h-3.2v-14.8h2.8
					l0.1,2.5c1-1.8,2.9-3,5-2.8C854.8,957.2,857.2,959,857.2,962.7z"/>
				<path id="Path_260" class="st11" d="M871.5,971.3c-1.1,0.9-2.5,1.3-3.9,1.3c-2.6,0-4.6-1.2-4.6-4.2V960h-2.8v-2.5h2.8V954
					l3.2-0.9v4.3h5.1v2.5h-5.1v7.9c-0.1,1.1,0.7,2,1.8,2.1c0.1,0,0.2,0,0.4,0c0.9,0,1.8-0.3,2.5-0.9L871.5,971.3z"/>
				<path id="Path_261" class="st11" d="M874.5,950.8h3.2v9c1-1.7,2.8-2.8,4.8-2.7c3.1,0,5.6,1.8,5.6,5.5v9.6h-3.2v-8.6
					c0-2.9-1.4-3.9-3.2-3.9c-1.9,0-4,1.3-4,4.7v7.8h-3.2L874.5,950.8z"/>
				<path id="Path_262" class="st11" d="M891.4,969.2l2.2-1.9c1,1.7,2.8,2.8,4.8,2.7c1.8,0,3-0.6,3-1.8c0-0.7-0.4-1.4-1.8-1.7
					l-3.1-0.6c-3.1-0.6-4.4-2-4.4-4.2c0-2.4,2.2-4.5,6.1-4.5c2.9,0,5.1,1.1,6.2,3l-2.2,1.8c-0.8-1.5-2.3-2.4-3.9-2.3
					c-1.9,0-3,0.8-3,1.9c0,0.8,0.5,1.4,2,1.7l3.4,0.7c2.8,0.6,3.9,1.9,3.9,3.8c0,2.8-2.4,4.8-6.2,4.8
					C895.6,972.7,893,971.4,891.4,969.2z"/>
				<path id="Path_263" class="st11" d="M931.6,950.8v21.4h-2.8l-0.2-2.8c-0.9,2-2.8,3.2-5,3.1c-3.7,0-6.5-2.8-6.5-7.6
					c0-4.9,3-7.7,6.7-7.7c1.9-0.1,3.7,1,4.6,2.8v-9.1L931.6,950.8z M928.4,964.7c0-3.1-1.6-4.9-4-4.9c-2.6,0-4.2,1.9-4.2,5.1
					s1.5,5.2,4.1,5.2S928.4,968,928.4,964.7L928.4,964.7z"/>
				<path id="Path_264" class="st11" d="M949.5,965.8h-10.8c0.3,2.8,1.9,4.2,4.3,4.2c1.6,0.1,3.1-0.7,3.9-2.1l2.5,1.2
					c-1.2,2.3-3.7,3.6-6.3,3.5c-4.4,0-7.4-2.9-7.4-7.7c0-4.8,3-7.7,7.3-7.7c3.5-0.2,6.6,2.5,6.8,6c0,0.3,0,0.5,0,0.8
					C949.6,964.6,949.6,965.2,949.5,965.8L949.5,965.8z M938.7,963.4h7.8c0.1-1.9-1.4-3.6-3.3-3.7c-0.1,0-0.3,0-0.4,0
					C940.6,959.7,939.1,961,938.7,963.4L938.7,963.4z"/>
				<path id="Path_265" class="st11" d="M956.6,968.1c0,1.4,0.5,1.9,1.7,1.9c0.6,0,1.3-0.1,1.8-0.4l-0.3,2.4
					c-0.8,0.3-1.6,0.5-2.5,0.5c-2.6,0-3.8-1.3-3.8-4.2v-17.5h3.2L956.6,968.1z"/>
				<path id="Path_266" class="st11" d="M976.7,969.9l-0.2,2.2c-0.5,0.2-1.1,0.3-1.7,0.3c-1.4,0.2-2.8-0.7-3.2-2.1
					c-1.1,1.4-2.9,2.3-4.7,2.2c-2.8,0-4.9-1.4-4.9-4c0-2.2,1.5-3.6,4.1-4.2l5.3-1v-0.6c0.2-1.6-1-2.9-2.5-3.1c-0.2,0-0.3,0-0.5,0
					c-1.7-0.1-3.2,1-3.7,2.6l-2.7-1.1c0.7-2.4,3-4,6.5-4c3.5,0,6.1,1.7,6.1,5.3v6.6c-0.1,0.5,0.3,1,0.8,1.1c0.1,0,0.2,0,0.3,0
					C976,970.1,976.3,970,976.7,969.9z M971.4,966.8v-1.2l-3.7,0.8c-1.7,0.3-2.5,0.8-2.5,2s0.9,1.8,2.3,1.8
					C969.5,970.1,971.4,969.1,971.4,966.8L971.4,966.8z"/>
				<path id="Path_267" class="st11" d="M985.3,974c-1.3,3.4-2.8,4.6-5.4,4.6c-1.3,0-2.5-0.3-3.5-1l0.8-2.5c0.7,0.6,1.6,1,2.6,0.9
					c1.1,0,1.9-0.4,2.6-2.1l0.6-1.6l-1.6-3.7l-4.6-11.2h3.5l3.3,9.3l0.9,2.8l1-3l3.1-9h3.3L985.3,974z"/>
			</g>
		</g>
	</g>
</g>
</svg>
